<svg width="56" height="64" viewBox="0 0 56 64" fill="none" xmlns="http://www.w3.org/2000/svg">
<path d="M28.2317 1L55.1046 16.5162C46.4495 21.4459 37.8541 26.541 29.1574 31.4174C28.8087 31.613 28.4623 31.8233 28.0972 31.9878L27.9773 31.9535L1.08984 16.5162L28.0076 1H28.2317ZM38.8914 19.5836C40.5604 18.6272 42.2834 17.7353 43.9379 16.746C43.9911 16.714 44.3436 16.5199 44.3109 16.4721L28.1206 7.22574L27.8437 7.34992L11.9498 16.4703L11.9554 16.562C13.7108 17.5356 15.4422 18.5508 17.1831 19.5493C17.2414 19.5827 17.3273 19.572 17.3479 19.5836C19.1447 20.6141 20.9546 21.7044 22.7674 22.74C24.5045 23.733 26.2425 24.7269 27.9749 25.7287L28.1201 25.7672C29.8904 24.8053 31.6438 23.7798 33.3982 22.7771C33.4392 22.7535 33.4598 22.703 33.4719 22.696C35.2748 21.665 37.0913 20.6155 38.8914 19.5841V19.5836Z" stroke="#383A41" stroke-linejoin="round"/>
<path d="M55.1499 35.1438C53.3848 36.1155 51.6421 37.1293 49.8938 38.1307C49.8527 38.1543 49.8321 38.2048 49.82 38.2118C42.6396 42.3241 35.4195 46.3799 28.2624 50.5367C28.2111 50.5673 28.1546 50.5659 28.0977 50.571V44.3912L55.105 28.875H55.1499V35.1438Z" stroke="#383A41" stroke-linejoin="round"/>
<path d="M1.08963 41.3242L27.977 56.7616L28.097 56.7959L28.0522 62.9758L1 47.5041V41.3242H1.08963Z" stroke="#383A41" stroke-linejoin="round"/>
<path d="M1.08963 16.5156L27.977 31.953L28.097 31.9873L28.1418 38.1672L28.0839 38.2038C21.1094 34.2087 14.1414 30.1969 7.16643 26.2004C6.92368 26.0614 6.66038 25.9455 6.4195 25.8079C4.61284 24.7727 2.83093 23.6903 1 22.696V16.5161H1.08963V16.5156Z" stroke="#383A41" stroke-linejoin="round"/>
<path d="M55.1498 47.5046L28.2623 62.9397L28.0999 63.0004L28.0527 62.9763L28.0976 56.7964L55.1049 41.2803H55.1498V47.5046Z" stroke="#383A41" stroke-linejoin="round"/>
<path d="M1.08963 28.9209L27.977 44.3583L28.097 44.3926V50.5724C28.0942 50.5724 28.0807 50.6109 28.055 50.5933C20.8639 46.4337 13.6228 42.3394 6.4195 38.2127C4.61284 37.1776 2.83 36.0965 1 35.1008V28.9209H1.08963Z" stroke="#383A41" stroke-linejoin="round"/>
<path d="M55.1499 22.74C53.4725 23.6676 51.8125 24.6268 50.1482 25.5776C50.0357 25.642 49.9096 25.7565 49.82 25.8074C49.8032 25.8172 49.7374 25.806 49.6907 25.8329C42.5047 29.9388 35.342 34.0849 28.1425 38.1672L28.0977 31.9873C28.4627 31.8228 28.8091 31.6124 29.1578 31.4169C37.8545 26.5405 46.4499 21.4453 55.105 16.5156H55.1499V22.74Z" stroke="#383A41" stroke-linejoin="round"/>
<path d="M17.3472 19.5825C17.3267 19.5709 17.2413 19.5816 17.1824 19.5482C15.4416 18.5497 13.7101 17.5349 11.9548 16.5609L11.9492 16.4692L27.8431 7.34879L28.1199 7.22461L44.3103 16.471C44.343 16.5187 43.9905 16.7129 43.9373 16.7449C42.2828 17.7346 40.5597 18.6261 38.8908 19.5825L28.0812 13.4119L17.3477 19.5825H17.3472Z" stroke="#383A41" stroke-linejoin="round"/>
<path d="M38.8912 19.5827C37.0911 20.6142 35.2746 21.6637 33.4717 22.6946L28.1199 19.6286C26.394 20.591 24.6634 21.552 22.9614 22.5543C22.8899 22.5964 22.7503 22.6339 22.7672 22.7391C20.9549 21.7035 19.1445 20.6128 17.3477 19.5827L28.0811 13.4121L38.8907 19.5827H38.8912Z" stroke="#383A41" stroke-linejoin="round"/>
<path d="M33.4716 22.6964C33.4594 22.7034 33.4394 22.7539 33.3978 22.7775C31.6434 23.7802 29.89 24.8056 28.1198 25.7676L27.9746 25.7291C26.2421 24.7273 24.5041 23.7334 22.767 22.7404C22.7502 22.6357 22.8898 22.5977 22.9612 22.5556C24.6633 21.5533 26.3939 20.5923 28.1198 19.6299L33.4716 22.696V22.6964Z" stroke="#383A41" stroke-linejoin="round"/>
<path d="M28.1421 38.1683C35.3416 34.0866 42.5043 29.9399 49.6903 25.8341C49.7369 25.8072 49.8028 25.8183 49.8196 25.8086L55.1046 28.8761L28.0972 44.3922L27.9773 44.3579L1.08984 28.921L6.41971 25.8091C6.66013 25.9467 6.92389 26.0625 7.16665 26.2015C14.1416 30.198 21.1096 34.2098 28.0842 38.2049L28.1421 38.1683Z" stroke="#383A41" stroke-linejoin="round"/>
<path d="M28.0972 50.5712C28.1542 50.5656 28.2107 50.5675 28.262 50.5369C35.4191 46.3801 42.6392 42.3238 49.8196 38.2119L55.1046 41.2794L28.0972 56.7955L27.9773 56.7612L1.08984 41.3239L6.41971 38.2119C13.623 42.3386 20.8641 46.4324 28.0552 50.5925C28.0809 50.6101 28.0949 50.5721 28.0972 50.5716V50.5712Z" stroke="#383A41" stroke-linejoin="round"/>
</svg>
