<svg width="56" height="64" viewBox="0 0 56 64" fill="none" xmlns="http://www.w3.org/2000/svg">
<path d="M55.0699 16.3637V47.6366L49.9194 50.6288C49.8556 50.6682 49.786 50.6863 49.7142 50.7022V38.2853C49.6675 38.2369 49.0201 38.6251 48.9149 38.6852C45.5576 40.5953 42.2449 42.589 38.9004 44.5193C38.8472 44.5497 38.7446 44.5641 38.6617 44.612C35.1396 46.6446 31.6277 48.7181 28.0859 50.7022V44.4682L49.6313 32.055L49.6627 31.9485L49.6542 19.4373L33.4926 10.1292C33.4926 10.1121 33.4926 10.0951 33.4926 10.0781L38.6931 7.08698L38.9625 7.02148L55.0694 16.3637H55.0699Z" stroke="#383A41" stroke-linejoin="round"/>
<path d="M28.1871 0.727539L33.4923 3.89594L22.6784 10.0794C22.6513 10.1188 23.0037 10.3142 23.052 10.343C26.5018 12.3968 30.017 14.3543 33.4923 16.364L44.2955 22.6087L44.3062 28.8837L38.899 31.9498L38.8905 25.7238L17.3217 13.2984L17.2563 13.2574L6.45677 19.4813C4.6976 18.478 2.93417 17.478 1.1835 16.4577C1.13779 16.4311 1.11122 16.3698 1.10059 16.364L27.932 0.727539H28.1871Z" stroke="#383A41" stroke-linejoin="round"/>
<path d="M17.2721 25.7159V50.7037L17.4071 50.8485L28.086 56.9888L28.0897 63.0503L28.035 63.2234L1 47.6375V41.3524H1.10204L11.8649 47.5864C11.8665 43.4483 11.8638 39.3075 11.8649 35.1695C11.866 31.0207 11.8665 26.8709 11.8617 22.7211L11.9159 22.5986C11.9483 22.6822 12.0127 22.7179 12.0844 22.7621C13.7139 23.768 15.4412 24.6269 17.067 25.6419L17.2721 25.7159Z" stroke="#383A41" stroke-linejoin="round"/>
<path d="M1.10204 16.3642C1.11267 16.3701 1.13925 16.4313 1.18495 16.4579C2.93509 17.4777 4.69852 18.4777 6.45823 19.4815V38.2352C6.44547 38.2427 6.41996 38.2278 6.40721 38.2352L1 35.1179V16.3642C1.03029 16.3706 1.08344 16.3541 1.10204 16.3642Z" stroke="#383A41" stroke-linejoin="round"/>
<path d="M44.3583 47.6874C44.2738 47.7407 44.3073 47.8813 44.3062 47.9675C44.286 49.8931 44.3206 51.8197 44.3105 53.7457L44.2557 53.8954C39.0808 56.936 33.8394 59.8663 28.6639 62.9059C28.4864 63.0102 28.2722 63.1162 28.1372 63.2722H28.0352V63.2211L28.0899 63.048L28.0862 56.9866L44.2562 47.6353C44.2844 47.6518 44.3216 47.6651 44.3583 47.6864V47.6874Z" stroke="#383A41" stroke-linejoin="round"/>
<path d="M38.8994 31.9496L44.3066 28.8834L49.6628 31.9496L49.6315 32.0561L28.0861 44.4693C26.253 43.5155 24.5029 42.384 22.6789 41.4031V41.352L33.4423 35.143L22.7299 28.935C22.7299 28.8999 22.6768 28.8035 22.6768 28.7087C22.6768 26.6889 22.681 24.6686 22.6789 22.6499C23.0945 22.8389 23.4888 23.0807 23.8864 23.3054C28.5655 25.9536 33.1548 28.77 37.8455 31.3968C38.0331 31.5017 38.7554 31.9501 38.9 31.9501L38.8994 31.9496Z" stroke="#383A41" stroke-linejoin="round"/>
<path d="M38.8998 44.5195C40.5665 45.4589 42.2263 46.4131 43.8818 47.3722C44.0104 47.4467 44.1534 47.5772 44.2554 47.6363L28.0854 56.9876L17.4065 50.8473L17.2715 50.7024L22.6787 47.6363L28.0859 50.7024C31.6276 48.7178 35.1396 46.6448 38.6617 44.6122C38.7446 44.5643 38.8472 44.5504 38.9003 44.5195H38.8998Z" stroke="#383A41" stroke-linejoin="round"/>
<path d="M33.4932 10.1299L49.6547 19.4381L49.6627 31.9492L44.307 28.8831L44.2959 22.6086L33.4932 16.3639V10.1299Z" stroke="#383A41" stroke-linejoin="round"/>
<path d="M33.4931 3.896V10.0789C33.4931 10.0959 33.4931 10.113 33.4931 10.13V16.364C30.0178 14.3544 26.5026 12.3969 23.0528 10.343C23.0045 10.3143 22.6521 10.1188 22.6792 10.0794L33.4931 3.896Z" stroke="#383A41" stroke-linejoin="round"/>
<path d="M38.9004 44.5194C42.245 42.5891 45.5576 40.5954 48.9149 38.6853C49.0207 38.6252 49.6675 38.237 49.7143 38.2854V50.7024C49.7042 50.7045 49.676 50.7774 49.6186 50.7306L44.3586 47.6878C44.3219 47.6665 44.2853 47.6532 44.2566 47.6367C44.1545 47.5776 44.011 47.4466 43.883 47.3726C42.2274 46.4136 40.5671 45.4593 38.9009 44.52L38.9004 44.5194Z" stroke="#383A41" stroke-linejoin="round"/>
<path d="M28.0869 44.4685V50.7025L22.6797 47.6364V41.4023C24.5037 42.3827 26.2538 43.5148 28.0869 44.4685Z" stroke="#383A41" stroke-linejoin="round"/>
<path d="M17.3229 13.2983L17.2719 19.4812L11.9157 22.5985L11.8615 22.7209C11.8663 26.8702 11.8657 31.0205 11.8647 35.1693C11.7409 35.1906 11.6324 35.255 11.5245 35.3141C9.83127 36.2348 8.13268 37.2689 6.45801 38.2354V19.4817L17.2575 13.2578L17.3229 13.2988V13.2983Z" stroke="#383A41" stroke-linejoin="round"/>
<path d="M17.3235 13.2969L38.8923 25.7223L38.9008 31.9484C38.7562 31.9484 38.0339 31.5 37.8463 31.3951C33.1555 28.7682 28.5663 25.9518 23.8872 23.3037C23.4896 23.079 23.0953 22.8372 22.6797 22.6482H22.6286L17.2725 19.4798L17.3235 13.2969Z" stroke="#383A41" stroke-linejoin="round"/>
<path d="M22.6787 22.6489C22.6808 24.6676 22.6766 26.688 22.6766 28.7078C22.6766 28.8025 22.7297 28.8989 22.7297 28.9341C22.7297 33.0535 22.6787 37.2161 22.6787 41.351V47.6361L17.2715 50.7023V25.7145L17.4081 25.6751L22.6277 22.6489H22.6787Z" stroke="#383A41" stroke-linejoin="round"/>
<path d="M11.8644 35.17C11.8634 39.3081 11.8655 43.4488 11.8644 47.5869L1.10156 41.3529C2.88147 40.3411 4.64277 39.2532 6.40673 38.2356C6.41948 38.2281 6.44499 38.243 6.45775 38.2356C8.13295 37.2691 9.83154 36.235 11.5243 35.3143C11.6327 35.2557 11.7406 35.1907 11.8644 35.1694V35.17Z" stroke="#383A41" stroke-linejoin="round"/>
<path d="M17.2722 19.4815L22.6284 22.6499L17.4088 25.6761L17.2722 25.7155L17.0671 25.6415C15.4413 24.6271 13.714 23.7681 12.0845 22.7617C12.0133 22.7175 11.9484 22.6818 11.916 22.5982L17.2722 19.481V19.4815Z" stroke="#383A41" stroke-linejoin="round"/>
<path d="M22.7307 28.9346L33.4431 35.1425L22.6797 41.3515C22.6797 37.2161 22.7307 33.0535 22.7307 28.9346Z" stroke="#383A41" stroke-linejoin="round"/>
</svg>
