<svg width="54" height="63" viewBox="0 0 54 63" fill="none" xmlns="http://www.w3.org/2000/svg">
<path d="M10.8414 40.378V52.7718C10.7424 52.7762 10.6556 52.743 10.5722 52.6942C7.50131 50.9325 4.44271 49.1487 1.37075 47.3903C0.923478 47.1342 0.472865 46.8626 0 46.6553V34.2615C0.160218 34.2737 0.323774 34.3868 0.462851 34.4655C3.85079 36.3779 7.19089 38.3768 10.5722 40.3015L10.8414 40.3791V40.378Z" fill="#898E9F"/>
<path d="M0.106812 15.6433L10.8414 21.8142V34.1547H10.788C10.6534 34.1281 10.551 34.0649 10.432 34.0039C8.77193 33.1503 7.03067 32.0616 5.394 31.1225C3.59823 30.0926 1.83027 29.0083 0 28.0371V15.6433H0.106812Z" fill="#898E9F"/>
<path d="M53.9399 15.5375V15.6971L43.1519 21.8148L32.4707 15.6971C32.473 15.6872 32.4296 15.6472 32.4362 15.6162L37.561 12.6538C37.6667 12.5929 37.7524 12.4864 37.8113 12.4521C38.0238 12.329 38.3153 12.2192 38.5412 12.0884C40.0644 11.2137 41.5798 10.3234 43.1019 9.44536L43.2187 9.42651L53.9399 15.5364V15.5375Z" fill="#CEDBE7"/>
<path d="M53.9403 34.2615V46.7085L53.6711 46.7861L43.2525 52.8006L43.1523 52.7729V40.378L43.3493 40.337L53.9403 34.2615Z" fill="#B0B5C2"/>
<path d="M53.9403 15.6972V28.0377C52.3115 28.979 50.677 29.9125 49.0448 30.8482C48.9102 30.9247 48.76 31.0622 48.6532 31.1231C48.6287 31.1376 48.5386 31.1176 48.4985 31.1531C46.8062 31.9646 45.105 33.3183 43.4205 34.0777C43.3471 34.111 43.2903 34.1443 43.2058 34.1542C43.1891 34.1565 43.169 34.1542 43.1523 34.1542V21.8137L53.9403 15.696V15.6972Z" fill="#B0B5C2"/>
<path d="M27.1303 0.111084C27.1237 0.239689 27.3695 0.329491 27.4686 0.386033C30.8598 2.34727 34.2634 4.29076 37.6691 6.22649C37.7192 6.26086 37.6991 6.32627 37.7058 6.33403L26.9712 12.5049L16.29 6.33403C16.3624 6.19212 16.5916 6.09456 16.7351 6.00587C19.9016 4.0535 23.2951 2.25636 26.5273 0.386033C26.6263 0.328383 26.8711 0.239689 26.8655 0.111084H27.1326L27.1303 0.111084Z" fill="#CEDBE7"/>
<path d="M48.6527 31.1228L53.9399 34.2082V34.2614L43.3488 40.3369L43.1519 40.378C41.3216 39.4389 39.5826 38.3059 37.7579 37.3458C37.7701 35.5109 37.7423 33.6738 37.7557 31.8379C37.7568 31.635 37.8102 31.4122 37.8113 31.1749C39.5659 32.0984 41.2716 33.1384 42.9972 34.124C43.0451 34.1561 43.0985 34.1495 43.1519 34.1539L43.1786 34.206L43.2053 34.1539C43.2899 34.1428 43.3466 34.1107 43.42 34.0774C45.1046 33.318 46.8058 31.9643 48.4981 31.1527C48.5381 31.1173 48.6282 31.1361 48.6527 31.1228Z" fill="#EA6868"/>
<path d="M10.788 34.155C10.8381 34.165 10.7936 34.1628 10.8414 34.155C10.8926 34.1461 10.9482 34.1572 10.9949 34.1251C12.665 33.2592 14.2917 32.0851 15.9662 31.2536C16.0529 31.2104 16.1342 31.1683 16.2354 31.176V37.3469C14.4074 38.2881 12.6605 39.4256 10.8414 40.3791L10.5722 40.3015C7.192 38.3768 3.85079 36.3779 0.462851 34.4654C0.323774 34.3867 0.160218 34.2736 0 34.2614V34.2082L5.394 31.1228C7.02956 32.0618 8.77193 33.1506 10.432 34.0042C10.551 34.0652 10.6534 34.1284 10.788 34.155Z" fill="#EA6868"/>
<path d="M37.7587 43.5701C37.8455 45.6178 37.8232 47.6866 37.8121 49.7409C37.811 49.9782 37.7576 50.1999 37.7565 50.4039C37.742 52.2576 37.7943 54.1124 37.7331 55.965L27.24 62.005C27.1554 62.0615 27.0697 62.0726 26.9707 62.0815V49.7409L37.7587 43.5701Z" fill="#B0B5C2"/>
<path d="M26.9694 49.741V62.0816C26.9694 62.0816 26.9494 62.1271 26.9193 62.106L16.2459 55.9529C16.2248 53.883 16.2348 51.8098 16.2348 49.7399V43.5691L26.9694 49.7399V49.741Z" fill="#898E9F"/>
<path d="M16.2358 37.3464C18.046 38.3221 19.794 39.4097 21.5764 40.4319L16.4872 43.3676L16.2358 43.5694V49.7402L11.1978 52.6217C11.0866 52.6693 10.9642 52.7658 10.8418 52.7724V40.3786C12.6609 39.4252 14.4078 38.2877 16.2358 37.3464Z" fill="#C74E4E"/>
<path d="M43.1519 40.3778V52.7716C41.3394 51.8292 39.5859 50.7549 37.8113 49.7394C37.8224 47.685 37.8447 45.6174 37.7579 43.5685L32.4707 40.3767C34.2331 39.3678 35.991 38.3456 37.7579 37.3445C39.5826 38.3046 41.3216 39.4376 43.1519 40.3767V40.3778Z" fill="#AC3639"/>
<path d="M16.236 12.4514C17.8471 13.478 19.703 14.3783 21.3252 15.4404C21.4175 15.5014 21.5165 15.5424 21.5766 15.6433L10.842 21.8141L0.107422 15.6433L10.8242 9.4314C12.5566 10.3804 14.2533 11.3926 15.9668 12.3749C16.0591 12.4281 16.2149 12.4381 16.236 12.4525V12.4514Z" fill="#CEDBE7"/>
<path d="M26.9698 12.5046V18.7286C25.2675 19.6965 23.5785 20.6899 21.8784 21.6644C21.7916 21.7143 21.6837 21.7287 21.6292 21.7608L21.6325 15.8239C21.6525 15.7341 21.6114 15.7031 21.5758 15.6432C21.5168 15.5434 21.4167 15.5013 21.3243 15.4403C19.7021 14.3782 17.8463 13.478 16.2352 12.4514L16.2318 6.51445C16.2074 6.42576 16.2608 6.38917 16.2886 6.33374L26.9698 12.5046Z" fill="#AC3639"/>
<path d="M37.7053 6.33485C37.7109 6.3415 37.8355 6.30602 37.8166 6.41135L37.8121 12.4525C37.7531 12.4868 37.6675 12.5933 37.5618 12.6543L32.437 15.6166C32.4303 15.6477 32.4737 15.6865 32.4715 15.6975C32.4648 15.7319 32.3881 15.8051 32.4148 15.8771L32.4181 21.8141C30.6123 20.7741 28.791 19.7298 26.9707 18.7286V12.5046L37.7053 6.33374V6.33485Z" fill="#C74E4E"/>
<path d="M21.6298 21.7608C21.6153 21.7697 21.5909 21.8307 21.543 21.8584L16.2636 24.9017L16.2358 25.0059V31.1767C16.1345 31.169 16.0533 31.2111 15.9665 31.2543C14.2932 32.0858 12.6654 33.2588 10.9953 34.1258C10.9486 34.159 10.8919 34.1479 10.8418 34.1557V21.8151L21.5764 15.6443C21.612 15.7042 21.6532 15.7352 21.6331 15.825L21.6298 21.7619V21.7608Z" fill="#C74E4E"/>
<path d="M10.7881 34.155H10.8415C10.7936 34.1628 10.8382 34.165 10.7881 34.155Z" fill="#B57072"/>
<path d="M43.1518 21.8144V34.155C43.0983 34.1516 43.0449 34.1572 42.9971 34.125C41.2714 33.1394 39.5658 32.0995 37.8112 31.176C37.8234 29.1804 37.7989 27.1825 37.8145 25.1858C37.839 25.1027 37.7778 25.055 37.7578 25.0062C37.6865 24.8288 37.6587 24.8521 37.5063 24.7512C35.972 23.7291 34.0427 22.7512 32.4172 21.8155L32.4138 15.8786C32.3871 15.8065 32.4639 15.7333 32.4706 15.699L43.1518 21.8166V21.8144Z" fill="#AC3639"/>
<path d="M43.1523 34.155C43.169 34.155 43.1891 34.1572 43.2058 34.155L43.179 34.2071L43.1523 34.155Z" fill="#C48A8A"/>
<path d="M37.7587 25.0046C37.7787 25.0545 37.841 25.1011 37.8154 25.1842C37.7988 27.181 37.8243 29.1788 37.8121 31.1744C37.811 31.4105 37.7576 31.6345 37.7565 31.8374C37.7431 33.6733 37.7709 35.5104 37.7587 37.3452C35.9919 38.3463 34.2339 39.3685 32.4715 40.3774C30.6401 41.4251 28.8121 42.485 26.9707 43.5161V31.1223L37.7587 25.0046Z" fill="#B0B5C2"/>
<path d="M26.9699 31.1223V43.5161C25.1942 42.4517 23.3717 41.4617 21.5759 40.4306C19.7935 39.4084 18.0456 38.3208 16.2354 37.3452V25.0046L26.9699 31.1223Z" fill="#898E9F"/>
<path d="M37.7579 43.5694L26.9699 49.7402L16.2354 43.5694L16.4868 43.3676L21.5759 40.4319C23.3717 41.4618 25.1942 42.4519 26.9699 43.5173C28.8113 42.4862 30.6394 41.4275 32.4708 40.3787L37.7579 43.5705V43.5694Z" fill="#EA6868"/>
<path d="M32.4173 21.8148C34.0429 22.7516 35.9722 23.7295 37.5065 24.7506C37.6578 24.8514 37.6856 24.8282 37.7579 25.0055L26.9699 31.1232L16.2354 25.0055L16.2632 24.9013L21.5426 21.858C21.5904 21.8303 21.6149 21.7693 21.6294 21.7605C21.685 21.7283 21.7929 21.7139 21.8786 21.664C23.5776 20.6895 25.2665 19.6961 26.9699 18.7283C28.7902 19.7294 30.6116 20.7738 32.4173 21.8137V21.8148Z" fill="#CEDBE7"/>
</svg>
