<svg width="56" height="64" viewBox="0 0 56 64" fill="none" xmlns="http://www.w3.org/2000/svg">
<path d="M11.8413 41.2668V53.6605C11.7423 53.6649 11.6555 53.6317 11.572 53.5829C8.50124 51.8213 5.44266 50.0374 2.37074 48.2791C1.92347 48.023 1.47286 47.7514 1 47.5441V35.1504C1.16022 35.1626 1.32377 35.2757 1.46285 35.3544C4.85075 37.2668 8.19082 39.2657 11.572 41.1904L11.8413 41.268V41.2668Z" stroke="#383A41" stroke-linejoin="round"/>
<path d="M1.10681 16.5327L11.8413 22.7035V35.044H11.7879C11.6533 35.0173 11.5509 34.9541 11.4319 34.8932C9.77184 34.0395 8.0306 32.9508 6.39395 32.0118C4.59819 30.9818 2.83025 29.8976 1 28.9264V16.5327H1.10681Z" stroke="#383A41" stroke-linejoin="round"/>
<path d="M54.9397 16.4254V16.585L44.1518 22.7026L33.4707 16.585C33.473 16.575 33.4296 16.5351 33.4362 16.5041L38.5609 13.5418C38.6666 13.4808 38.7523 13.3743 38.8113 13.34C39.0238 13.2169 39.3153 13.1072 39.5412 12.9763C41.0643 12.1016 42.5797 11.2114 44.1018 10.3333L44.2186 10.3145L54.9397 16.4243V16.4254Z" stroke="#383A41" stroke-linejoin="round"/>
<path d="M54.9393 35.1504V47.5973L54.67 47.6749L44.2515 53.6893L44.1514 53.6616V41.2668L44.3483 41.2258L54.9393 35.1504Z" stroke="#383A41" stroke-linejoin="round"/>
<path d="M54.9393 16.5856V28.926C53.3104 29.8673 51.676 30.8008 50.0438 31.7365C49.9091 31.813 49.7589 31.9504 49.6521 32.0114C49.6276 32.0258 49.5375 32.0059 49.4975 32.0414C47.8052 32.8529 46.104 34.2066 44.4195 34.966C44.3461 34.9993 44.2893 35.0325 44.2048 35.0425C44.1881 35.0447 44.1681 35.0425 44.1514 35.0425V22.702L54.9393 16.5845V16.5856Z" stroke="#383A41" stroke-linejoin="round"/>
<path d="M28.1302 1C28.1235 1.1286 28.3694 1.21841 28.4685 1.27495C31.8597 3.23616 35.2632 5.17963 38.6689 7.11535C38.719 7.14972 38.6989 7.21513 38.7056 7.22289L27.9711 13.3937L17.29 7.22289C17.3624 7.08098 17.5916 6.98342 17.7351 6.89473C20.9016 4.94238 24.295 3.14525 27.5272 1.27495C27.6262 1.2173 27.871 1.1286 27.8654 1H28.1325L28.1302 1Z" stroke="#383A41" stroke-linejoin="round"/>
<path d="M49.6526 32.0117L54.9397 35.0971V35.1503L44.3488 41.2258L44.1518 41.2668C42.3216 40.3278 40.5826 39.1947 38.7579 38.2346C38.7701 36.3998 38.7423 34.5627 38.7557 32.7268C38.7568 32.5239 38.8102 32.3011 38.8113 32.0638C40.5659 32.9873 42.2715 34.0273 43.9972 35.0129C44.045 35.045 44.0984 35.0384 44.1518 35.0428L44.1785 35.0949L44.2053 35.0428C44.2898 35.0317 44.3466 34.9995 44.42 34.9663C46.1045 34.2069 47.8057 32.8532 49.498 32.0417C49.538 32.0062 49.6281 32.025 49.6526 32.0117Z" stroke="#383A41" stroke-linejoin="round"/>
<path d="M11.7879 35.0439C11.838 35.0539 11.7935 35.0517 11.8413 35.0439C11.8925 35.035 11.9481 35.0461 11.9948 35.014C13.6649 34.1481 15.2915 32.974 16.966 32.1425C17.0528 32.0993 17.134 32.0572 17.2352 32.0649V38.2357C15.4072 39.177 13.6604 40.3144 11.8413 41.2679L11.572 41.1903C8.19193 39.2657 4.85075 37.2667 1.46285 35.3543C1.32377 35.2756 1.16022 35.1625 1 35.1503V35.0971L6.39395 32.0117C8.02949 32.9508 9.77184 34.0395 11.4319 34.8931C11.5509 34.9541 11.6533 35.0173 11.7879 35.0439Z" stroke="#383A41" stroke-linejoin="round"/>
<path d="M38.7576 44.4575C38.8444 46.5052 38.8222 48.574 38.811 50.6283C38.8099 50.8656 38.7565 51.0873 38.7554 51.2913C38.7409 53.145 38.7932 54.9997 38.732 56.8523L28.239 62.8923C28.1544 62.9488 28.0687 62.9599 27.9697 62.9688V50.6283L38.7576 44.4575Z" stroke="#383A41" stroke-linejoin="round"/>
<path d="M27.9703 50.6294V62.9699C27.9703 62.9699 27.9502 63.0153 27.9202 62.9943L17.2469 56.8412C17.2258 54.7713 17.2358 52.6982 17.2358 50.6283V44.4575L27.9703 50.6283V50.6294Z" stroke="#383A41" stroke-linejoin="round"/>
<path d="M17.2357 38.2358C19.046 39.2115 20.7939 40.2991 22.5763 41.3212L17.4872 44.257L17.2357 44.4587V50.6295L12.1978 53.5109C12.0866 53.5586 11.9642 53.655 11.8418 53.6617V41.268C13.6609 40.3146 15.4077 39.1771 17.2357 38.2358Z" stroke="#383A41" stroke-linejoin="round"/>
<path d="M44.1518 41.2667V53.6604C42.3393 52.718 40.5859 51.6437 38.8112 50.6282C38.8224 48.5738 38.8446 46.5062 38.7578 44.4574L33.4707 41.2656C35.2331 40.2567 36.991 39.2345 38.7578 38.2334C40.5825 39.1935 42.3215 40.3265 44.1518 41.2656V41.2667Z" stroke="#383A41" stroke-linejoin="round"/>
<path d="M17.2349 13.3403C18.8459 14.3669 20.7018 15.2671 22.324 16.3292C22.4163 16.3902 22.5153 16.4312 22.5754 16.5321L11.8409 22.7029L1.10645 16.5321L11.8231 10.3203C13.5555 11.2693 15.2522 12.2815 16.9656 13.2638C17.058 13.317 17.2137 13.327 17.2349 13.3414V13.3403Z" stroke="#383A41" stroke-linejoin="round"/>
<path d="M27.9697 13.3939V19.6179C26.2674 20.5858 24.5784 21.5791 22.8783 22.5536C22.7916 22.6035 22.6836 22.6179 22.6291 22.6501L22.6325 16.7132C22.6525 16.6234 22.6113 16.5924 22.5757 16.5325C22.5167 16.4328 22.4166 16.3906 22.3243 16.3296C20.7021 15.2676 18.8462 14.3673 17.2352 13.3407L17.2318 7.40386C17.2074 7.31516 17.2608 7.27858 17.2886 7.22314L27.9697 13.3939Z" stroke="#383A41" stroke-linejoin="round"/>
<path d="M38.7042 7.22425C38.7098 7.2309 38.8344 7.19543 38.8155 7.30075L38.811 13.3418C38.7521 13.3762 38.6664 13.4826 38.5607 13.5436L33.436 16.5059C33.4293 16.537 33.4727 16.5758 33.4705 16.5869C33.4638 16.6212 33.387 16.6944 33.4137 16.7665L33.4171 22.7033C31.6113 21.6634 29.79 20.619 27.9697 19.6179V13.3939L38.7042 7.22314V7.22425Z" stroke="#383A41" stroke-linejoin="round"/>
<path d="M22.6297 22.6501C22.6152 22.659 22.5907 22.72 22.5429 22.7477L17.2636 25.791L17.2357 25.8952V32.066C17.1345 32.0582 17.0533 32.1003 16.9665 32.1436C15.2931 32.9751 13.6654 34.148 11.9953 35.015C11.9486 35.0483 11.8919 35.0372 11.8418 35.0449V22.7045L22.5763 16.5337C22.6119 16.5936 22.6531 16.6246 22.633 16.7144L22.6297 22.6513V22.6501Z" stroke="#383A41" stroke-linejoin="round"/>
<path d="M11.7881 35.0439H11.8415C11.7936 35.0517 11.8382 35.0539 11.7881 35.0439Z" fill="#383A41" stroke="#383A41" stroke-linejoin="round"/>
<path d="M44.1516 22.7023V35.0427C44.0982 35.0394 44.0448 35.0449 43.997 35.0128C42.2713 34.0272 40.5657 32.9873 38.8111 32.0638C38.8233 30.0682 38.7989 28.0704 38.8144 26.0737C38.8389 25.9905 38.7777 25.9429 38.7577 25.8941C38.6865 25.7167 38.6587 25.74 38.5063 25.6391C36.972 24.6169 35.0427 23.6391 33.4172 22.7034L33.4138 16.7665C33.3871 16.6945 33.4639 16.6213 33.4706 16.5869L44.1516 22.7045V22.7023Z" stroke="#383A41" stroke-linejoin="round"/>
<path d="M44.1514 35.0439C44.1681 35.0439 44.1881 35.0462 44.2048 35.0439L44.1781 35.0961L44.1514 35.0439Z" fill="#383A41" stroke="#383A41" stroke-linejoin="round"/>
<path d="M38.7576 25.894C38.7776 25.9439 38.84 25.9905 38.8144 26.0736C38.7977 28.0703 38.8233 30.0681 38.811 32.0637C38.8099 32.2999 38.7565 32.5238 38.7554 32.7267C38.742 34.5626 38.7699 36.3997 38.7576 38.2345C36.9908 39.2356 35.2329 40.2578 33.4705 41.2667C31.6391 42.3144 29.8111 43.3742 27.9697 44.4053V32.0116L38.7576 25.894Z" stroke="#383A41" stroke-linejoin="round"/>
<path d="M27.9698 32.0116V44.4053C26.1941 43.341 24.3717 42.3509 22.5759 41.3199C20.7935 40.2977 19.0456 39.2101 17.2354 38.2345V25.894L27.9698 32.0116Z" stroke="#383A41" stroke-linejoin="round"/>
<path d="M38.7577 44.4588L27.9698 50.6296L17.2354 44.4588L17.4868 44.257L22.5759 41.3213C24.3716 42.3512 26.1941 43.3413 27.9698 44.4067C29.8112 43.3756 31.6392 42.3169 33.4706 41.2681L38.7577 44.4599V44.4588Z" stroke="#383A41" stroke-linejoin="round"/>
<path d="M33.4172 22.7032C35.0427 23.64 36.972 24.6178 38.5063 25.6389C38.6576 25.7398 38.6854 25.7165 38.7577 25.8939L27.9698 32.0115L17.2354 25.8939L17.2632 25.7897L22.5425 22.7464C22.5904 22.7187 22.6148 22.6577 22.6293 22.6489C22.6849 22.6167 22.7929 22.6023 22.8785 22.5524C24.5775 21.5779 26.2664 20.5846 27.9698 19.6167C29.7901 20.6178 31.6114 21.6622 33.4172 22.7021V22.7032Z" stroke="#383A41" stroke-linejoin="round"/>
</svg>
