<svg width="55" height="63" viewBox="0 0 55 63" fill="none" xmlns="http://www.w3.org/2000/svg">
<path d="M54.0698 15.6116V46.6115L48.9193 49.5776C48.8555 49.6166 48.7859 49.6346 48.7142 49.6504V37.3419C48.6674 37.2938 48.0201 37.6786 47.9148 37.7383C44.5575 39.6317 41.2449 41.608 37.9003 43.5215C37.8472 43.5516 37.7446 43.5658 37.6617 43.6133C34.1396 45.6282 30.6277 47.6836 27.0859 49.6504V43.4708L48.6313 31.1659L48.6626 31.0604L48.6541 18.6583L32.4926 9.4314C32.4926 9.41451 32.4926 9.39762 32.4926 9.38073L37.693 6.41576L37.9625 6.35083L54.0693 15.6116H54.0698Z" fill="#CEDBE7"/>
<path d="M27.188 0.111572L32.4931 3.25232L21.6793 9.3818C21.6522 9.42086 22.0046 9.61459 22.0529 9.64309C25.5027 11.679 29.0179 13.6194 32.4931 15.6116L43.2964 21.8018L43.307 28.022L37.8998 31.0614L37.8913 24.8897L16.3226 12.5727L16.2572 12.5321L5.45773 18.7016C3.69856 17.7072 1.93514 16.7158 0.184472 15.7045C0.138765 15.6781 0.112192 15.6174 0.101562 15.6116L26.9329 0.111572H27.188Z" fill="#CEDBE7"/>
<path d="M16.2721 24.8813V49.651L16.4071 49.7946L27.0859 55.8813L27.0896 61.8899L27.0349 62.0615L0 46.6116V40.3813H0.102042L10.8649 46.561C10.8665 42.459 10.8638 38.3544 10.8649 34.2524C10.8659 30.1399 10.8665 26.0263 10.8617 21.9127L10.9159 21.7913C10.9483 21.8741 11.0126 21.9095 11.0844 21.9533C12.7139 22.9504 14.4411 23.8019 16.0669 24.808L16.2721 24.8813Z" fill="#898E9F"/>
<path d="M0.102042 15.612C0.112672 15.6178 0.139245 15.6785 0.184952 15.7049C1.93509 16.7157 3.69851 17.707 5.45821 18.7021V37.2921C5.44546 37.2995 5.41994 37.2847 5.40719 37.2921L0 34.2021V15.612C0.0302939 15.6183 0.083441 15.602 0.102042 15.612Z" fill="#898E9F"/>
<path d="M43.3582 46.6623C43.2737 46.7151 43.3072 46.8545 43.3062 46.94C43.286 48.8487 43.3205 50.7585 43.3104 52.6678L43.2557 52.8161C38.0807 55.8301 32.8394 58.7349 27.6639 61.748C27.4864 61.8514 27.2722 61.9565 27.1372 62.1111H27.0352V62.0604L27.0899 61.8889L27.0862 55.8803L43.2562 46.6106C43.2844 46.627 43.3216 46.6402 43.3582 46.6613V46.6623Z" fill="#CEDBE7"/>
<path d="M37.9004 31.0605L43.3076 28.0211L48.6637 31.0605L48.6324 31.1661L27.087 43.471C25.254 42.5256 23.5039 41.4039 21.6799 40.4316V40.3809L32.4432 34.2261L21.7309 28.0723C21.7309 28.0375 21.6777 27.942 21.6777 27.848C21.6777 25.8458 21.682 23.8431 21.6799 21.842C22.0955 22.0294 22.4898 22.2691 22.8874 22.4918C27.5664 25.1169 32.1557 27.9087 36.8465 30.5126C37.0341 30.6166 37.7563 31.0611 37.9009 31.0611L37.9004 31.0605Z" fill="#EA6868"/>
<path d="M37.8997 43.5217C39.5664 44.4529 41.2262 45.3988 42.8817 46.3495C43.0103 46.4234 43.1533 46.5527 43.2553 46.6113L27.0853 55.881L16.4065 49.7943L16.2715 49.6507L21.6787 46.6113L27.0859 49.6507C30.6276 47.6834 34.1396 45.6284 37.6616 43.6136C37.7445 43.5661 37.8471 43.5523 37.9002 43.5217H37.8997Z" fill="#EA6868"/>
<path d="M32.4932 9.43188L48.6547 18.6588L48.6626 31.0608L43.307 28.0214L43.2959 21.8017L32.4932 15.6115V9.43188Z" fill="#AC3639"/>
<path d="M32.4931 3.2522V9.38115C32.4931 9.39804 32.4931 9.41493 32.4931 9.43182V15.6114C29.0178 13.6193 25.5026 11.6789 22.0528 9.64296C22.0045 9.61446 21.6521 9.42074 21.6792 9.38167L32.4931 3.2522Z" fill="#C74E4E"/>
<path d="M37.9004 43.5219C41.2449 41.6084 44.5576 39.6321 47.9149 37.7387C48.0207 37.679 48.6675 37.2942 48.7142 37.3423V49.6508C48.7041 49.653 48.676 49.7253 48.6186 49.6788L43.3586 46.6626C43.3219 46.6415 43.2853 46.6283 43.2566 46.612C43.1545 46.5534 43.011 46.4235 42.8829 46.3502C41.2274 45.3995 39.5671 44.4536 37.9009 43.5224L37.9004 43.5219Z" fill="#AC3639"/>
<path d="M27.0859 43.4713V49.6509L21.6787 46.6115V40.4319C23.5027 41.4037 25.2529 42.5259 27.0859 43.4713Z" fill="#898E9F"/>
<path d="M16.3229 12.5726L16.2719 18.7015L10.9157 21.7916L10.8615 21.913C10.8663 26.0261 10.8657 30.1402 10.8647 34.2527C10.7408 34.2739 10.6324 34.3377 10.5245 34.3963C8.83126 35.309 7.13267 36.3341 5.45801 37.2921V18.7021L16.2575 12.5325L16.3229 12.5731V12.5726Z" fill="#C74E4E"/>
<path d="M16.3225 12.5725L37.8912 24.8895L37.8997 31.0612C37.7551 31.0612 37.0329 30.6168 36.8453 30.5128C32.1545 27.9089 27.5652 25.117 22.8862 22.492C22.4886 22.2692 22.0943 22.0296 21.6787 21.8422H21.6277L16.2715 18.7015L16.3225 12.5725Z" fill="#AC3639"/>
<path d="M21.6787 21.842C21.6808 23.8431 21.6765 25.8458 21.6765 27.848C21.6765 27.942 21.7297 28.0375 21.7297 28.0723C21.7297 32.1558 21.6787 36.2821 21.6787 40.3809V46.6112L16.2715 49.6506V24.8809L16.4081 24.8419L21.6277 21.842H21.6787Z" fill="#C74E4E"/>
<path d="M10.8644 34.2527C10.8633 38.3547 10.8655 42.4593 10.8644 46.5613L0.101562 40.3817C1.88146 39.3787 3.64276 38.3003 5.40671 37.2916C5.41946 37.2842 5.44498 37.299 5.45773 37.2916C7.13293 36.3335 8.83151 35.3084 10.5242 34.3958C10.6327 34.3377 10.7406 34.2733 10.8644 34.2522V34.2527Z" fill="#EA6868"/>
<path d="M16.2722 18.7019L21.6284 21.8427L16.4088 24.8425L16.2722 24.8816L16.067 24.8082C14.4413 23.8026 12.714 22.9512 11.0845 21.9535C11.0133 21.9097 10.9484 21.8744 10.916 21.7915L16.2722 18.7014V18.7019Z" fill="#CEDBE7"/>
<path d="M21.7297 28.0725L32.4421 34.2263L21.6787 40.3811C21.6787 36.2817 21.7297 32.1555 21.7297 28.0725Z" fill="#AC3639"/>
</svg>
