<svg width="55" height="63" viewBox="0 0 55 63" fill="none" xmlns="http://www.w3.org/2000/svg">
<path d="M27.233 0.111328L54.1073 15.6275C45.4517 20.5573 36.8559 25.6524 28.1588 30.5289C27.8101 30.7244 27.4636 30.9348 27.0986 31.0993L26.9786 31.065L0.0898438 15.6275L27.0089 0.111328H27.233ZM37.8933 18.695C39.5623 17.7386 41.2855 16.8467 42.94 15.8574C42.9932 15.8254 43.3457 15.6313 43.313 15.5835L27.1219 6.33709L26.8451 6.46127L10.9504 15.5817L10.956 15.6734C12.7114 16.6469 14.443 17.6622 16.1839 18.6607C16.2422 18.6941 16.3281 18.6834 16.3487 18.695C18.1456 19.7255 19.9556 20.8158 21.7684 21.8515C23.5056 22.8444 25.2437 23.8384 26.9762 24.8402L27.1214 24.8786C28.8918 23.9167 30.6453 22.8912 32.3997 21.8885C32.4408 21.8649 32.4614 21.8144 32.4735 21.8074C34.2765 20.7764 36.0931 19.7269 37.8933 18.6955V18.695Z" fill="#CEDBE7"/>
<path d="M54.1512 34.2562C52.386 35.2278 50.6432 36.2417 48.8948 37.243C48.8537 37.2666 48.8332 37.3171 48.8211 37.3241C41.6403 41.4365 34.4199 45.4923 27.2625 49.6491C27.2111 49.6797 27.1546 49.6783 27.0977 49.6834V43.5035L54.1064 27.9873H54.1512V34.2562Z" fill="#B0B5C2"/>
<path d="M0.0896369 40.4355L26.9784 55.873L27.0984 55.9073L27.0535 62.0872L0 46.6154V40.4355H0.0896369Z" fill="#898E9F"/>
<path d="M0.0896369 15.6279L26.9784 31.0654L27.0984 31.0997L27.1432 37.2796L27.0853 37.3162C20.1104 33.321 13.1421 29.3092 6.16674 25.3127C5.92397 25.1737 5.66066 25.0579 5.41976 24.9202C3.61302 23.8851 1.83102 22.8027 0 21.8083V15.6284H0.0896369V15.6279Z" fill="#898E9F"/>
<path d="M54.1521 46.616L27.2633 62.0511L27.1009 62.1118L27.0537 62.0877L27.0985 55.9078L54.1072 40.3916H54.1521V46.616Z" fill="#B0B5C2"/>
<path d="M0.0896369 28.0322L26.9784 43.4697L27.0984 43.504V49.6838C27.0956 49.6838 27.082 49.7223 27.0563 49.7047C19.8648 45.5451 12.6234 41.4508 5.41976 37.3241C3.61302 36.2889 1.83009 35.2079 0 34.2121V28.0322H0.0896369Z" fill="#898E9F"/>
<path d="M54.1512 21.8523C52.4738 22.78 50.8136 23.7391 49.1493 24.6899C49.0368 24.7544 48.9107 24.8688 48.8211 24.9198C48.8043 24.9295 48.7384 24.9184 48.6917 24.9453C41.5054 29.0511 34.3424 33.1973 27.1425 37.2796L27.0977 31.0997C27.4627 30.9352 27.8092 30.7248 28.1579 30.5293C36.855 25.6528 45.4508 20.5577 54.1064 15.6279H54.1512V21.8523Z" fill="#B0B5C2"/>
<path d="M16.3485 18.6948C16.3279 18.6833 16.2425 18.6939 16.1837 18.6606C14.4428 17.662 12.7112 16.6472 10.9558 15.6732L10.9502 15.5815L26.8449 6.4611L27.1217 6.33691L43.3129 15.5833C43.3455 15.6311 42.993 15.8252 42.9398 15.8572C41.2853 16.8469 39.5621 17.7385 37.8931 18.6948L27.083 12.5242L16.349 18.6948H16.3485Z" fill="#AC3639"/>
<path d="M37.8932 18.695C36.093 19.7265 34.2765 20.776 32.4735 21.807L27.1214 18.7409C25.3954 19.7033 23.6648 20.6643 21.9626 21.6666C21.8912 21.7088 21.7516 21.7463 21.7684 21.8515C19.9561 20.8159 18.1456 19.7251 16.3486 18.695L27.0827 12.5244L37.8928 18.695H37.8932Z" fill="#C74E4E"/>
<path d="M32.4731 21.8078C32.4609 21.8147 32.4409 21.8652 32.3993 21.8888C30.6448 22.8916 28.8913 23.917 27.121 24.8789L26.9758 24.8405C25.2433 23.8387 23.5052 22.8448 21.768 21.8518C21.7512 21.7471 21.8908 21.7091 21.9622 21.6669C23.6644 20.6646 25.395 19.7036 27.121 18.7412L32.4731 21.8078Z" fill="#AC3639"/>
<path d="M27.1434 37.2787C34.3433 33.1969 41.5063 29.0503 48.6926 24.9444C48.7393 24.9176 48.8052 24.9287 48.822 24.9189L54.1073 27.9864L27.0986 43.5026L26.9786 43.4683L0.0898438 28.0314L5.41997 24.9194C5.6604 25.057 5.92418 25.1729 6.16695 25.3119C13.1423 29.3084 20.1106 33.3202 27.0855 37.3153L27.1434 37.2787Z" fill="#C74E4E"/>
<path d="M27.0986 49.6826C27.1555 49.677 27.212 49.6788 27.2634 49.6483C34.4208 45.4914 41.6412 41.4351 48.822 37.3232L54.1073 40.3907L27.0986 55.9069L26.9786 55.8726L0.0898438 40.4352L5.41997 37.3232C12.6236 41.45 19.8651 45.5438 27.0565 49.7039C27.0822 49.7215 27.0962 49.6835 27.0986 49.683V49.6826Z" fill="#C74E4E"/>
</svg>
