<svg width="126" height="30" viewBox="0 0 126 30" fill="none" xmlns="http://www.w3.org/2000/svg">
<path d="M17.2962 28.0663C15.4121 28.3595 13.4948 28.4474 11.5115 28.6816L5.4622 12.9786V29.3555C3.5781 29.5313 1.85924 29.7656 0.0742188 30V0H5.09881L11.9742 17.0217V0H17.2962V28.0663ZM27.7087 10.9863C29.7583 10.9863 32.8986 10.8984 34.7827 10.8984V15.5858C32.4356 15.5858 29.6921 15.5858 27.7087 15.6737V22.6465C30.8161 22.4708 33.9233 22.2362 37.0634 22.1483V26.6597L22.4197 27.6854V0H37.0634V4.68751H27.7087V10.9863ZM56.7315 4.68762H51.2443V26.2501C49.4593 26.2501 47.6743 26.2501 45.9556 26.3085V4.68762H40.4685V0H56.7317L56.7315 4.68762ZM65.3259 10.6642H72.5652V15.3516H65.3259V25.9864H60.1358V0H74.9121V4.68751H65.3259V10.6642ZM83.5065 21.8848C86.5147 21.9432 89.5556 22.1486 92.4977 22.2948V26.9238C87.7708 26.66 83.0438 26.3966 78.2177 26.3085V0H83.5065V21.8848ZM96.9601 27.2461C98.646 27.3341 100.431 27.422 102.15 27.5975V0H96.9601V27.2461ZM125.322 0L118.612 14.2676L125.322 30C123.338 29.7656 121.355 29.4433 119.372 29.1503L115.571 20.4786L111.703 28.4474C109.786 28.1542 107.935 28.0663 106.018 27.8319L112.827 14.0917L106.679 0H112.364L115.835 7.88088L119.537 0H125.322V0Z" fill="#383A41"/>
</svg>
