<svg width="223" height="34" viewBox="0 0 223 34" fill="none" xmlns="http://www.w3.org/2000/svg">
<path fill-rule="evenodd" clip-rule="evenodd" d="M55.114 19.7865C53.6674 19.0997 53.0366 17.3359 53.7082 15.8589C54.3808 14.3819 56.1083 13.737 57.5549 14.4238C59.0015 15.1095 59.6331 16.8741 58.9604 18.3511C58.2889 19.8282 56.5606 20.4722 55.114 19.7865Z" fill="#383A41"/>
<path fill-rule="evenodd" clip-rule="evenodd" d="M16.1068 13.2777C16.1068 10.9371 17.4874 10.5172 19.7196 10.5172C23.0108 10.5172 23.3932 11.5972 23.3932 14.8076H17.8107V18.9766H23.3932C23.3932 22.2165 23.0108 23.6864 19.7196 23.6864C17.2812 23.6864 16.1068 23.5071 16.1068 20.8673V20.2062H10.0537V21.1668C10.0537 27.6169 13.5211 28.6114 19.3963 28.6114C25.3903 28.6114 29.4446 28.1864 29.4446 19.9669V14.1481C29.4446 6.94713 25.9481 5.5979 19.4854 5.5979C13.6385 5.5979 10.0537 8.59843 10.0537 13.2777H16.1068ZM38.0249 22.0672H43.2252C49.3655 22.0672 50.7461 20.0876 50.7461 13.757C50.7461 7.87703 48.6906 5.80758 43.2252 5.80758H32.1483V28.3068H38.0249V22.0672ZM38.0249 10.7276H42.0492C44.3414 10.7276 44.6946 11.5065 44.6946 13.8179C44.6946 16.7269 44.2834 17.1471 42.0492 17.1471H38.0249V10.7276ZM72.6752 11.0271H78.6104V5.80758H60.8651V11.0271H66.8V28.3068H72.6752V11.0271ZM86.4561 10.7276H96.475V5.80758H80.5793V28.3068H96.6804V23.3867H86.4561V19.0072H95.8576V14.8371H86.4561V10.7276ZM102.352 5.80758V20.567C102.352 22.7869 101.793 23.6269 100.177 23.6269C99.384 23.6269 98.9145 23.5972 98.3842 23.4173V28.2765C99.2961 28.4618 100.119 28.5519 101.381 28.5519C105.848 28.5519 107.935 25.397 107.935 20.4769V11.0271H114.309V28.3068H120.186V5.80758H102.352ZM129.352 10.7276H139.372V5.80758H123.476V28.3068H139.578V23.3867H129.352V19.0072H138.754V14.8371H129.352V10.7276ZM148.774 5.80758H142.897V28.3068H148.774V19.4866H150.537L156.678 28.3068H163.964L155.561 16.8476L163.318 5.80758H156.207L150.537 14.267H148.774V5.80758ZM173.64 28.6114C179.605 28.6114 183.835 27.1663 183.835 20.2368V13.8775C183.835 6.94716 179.605 5.5979 173.64 5.5979C167.676 5.5979 163.445 6.94716 163.445 13.8775V20.2368C163.445 27.1663 167.676 28.6114 173.64 28.6114ZM173.64 23.3867C170.584 23.3867 169.497 22.9379 169.497 19.5775V14.5071C169.497 11.1476 170.584 10.8174 173.64 10.8174C176.696 10.8174 177.783 11.1773 177.783 14.5071V19.5775C177.783 22.9379 176.696 23.3867 173.64 23.3867ZM186.538 5.80758V28.3068H192.415L191.827 11.0577L192.091 10.9983L197.645 28.3068H202.728L208.251 10.9983L208.516 11.0577L207.928 28.3068H213.805V5.80758H204.255L200.259 19.9371H200.054L195.853 5.80758H186.538Z" fill="#383A41"/>
</svg>
