<svg width="129" height="48" viewBox="0 0 129 48" fill="none" xmlns="http://www.w3.org/2000/svg">
<g style="mix-blend-mode:luminosity" clip-path="url(#clip0_1_464)">
<path d="M14.1123 13.1062V22.1939H4.6954V13.1062H0.224609V34.7995H4.6954V26.0069H14.1123V34.7995H18.5831V13.1062H14.1123Z" fill="#383A41"/>
<path d="M32.8913 27.7867C32.8913 28.6561 32.5017 29.4899 31.808 30.1046C31.1144 30.7194 30.1736 31.0647 29.1927 31.0647C28.2118 31.0647 27.271 30.7194 26.5774 30.1046C25.8837 29.4899 25.4941 28.6561 25.4941 27.7867V18.4951H21.2533V27.7867C21.2533 29.6511 22.0889 31.4392 23.5764 32.7575C25.0639 34.0759 27.0814 34.8165 29.185 34.8165C31.2887 34.8165 33.3061 34.0759 34.7936 32.7575C36.2811 31.4392 37.1168 29.6511 37.1168 27.7867V18.4951H32.8913V27.7867Z" fill="#383A41"/>
<path d="M64.3127 19.4527C64.3127 17.5482 65.7344 16.9444 67.2918 16.9444C68.5469 16.9444 70.2051 17.7908 71.2894 18.8178L74.067 15.9174C72.6804 14.2555 69.8678 13.1062 67.5656 13.1062C62.9656 13.1062 59.6382 15.4942 59.6382 19.4527C59.6382 26.797 69.767 24.4673 69.767 28.5773C69.767 29.845 68.3783 30.9652 66.788 30.9652C64.2799 30.9652 63.4672 29.878 62.315 28.7287L59.233 31.569C61.2044 33.7143 63.6359 34.8034 66.5492 34.8034C70.9192 34.8034 74.435 32.3863 74.435 28.6084C74.435 20.4545 64.3062 22.988 64.3062 19.4527" fill="#383A41"/>
<path d="M126.974 31.3339C124.468 31.3339 123.756 30.3729 123.756 28.9013V22.3878H127.651V19.0874H123.756V14.7329L119.456 16.4432V29.7108C119.456 33.1044 122.098 34.8148 125.721 34.8148C126.289 34.824 126.857 34.7837 127.416 34.6944L128.466 31.2717C127.993 31.3008 127.449 31.33 126.974 31.33" fill="#383A41"/>
<path d="M49.0341 18.6046C46.9334 18.6046 45.468 19.1443 44.0507 20.3771V13.2366H39.8034V26.4712C39.8034 31.4257 43.8448 34.8193 48.3857 34.8193C53.4238 34.8193 57.8552 31.3655 57.8552 26.7139C57.8552 22.1205 53.7765 18.6066 49.0341 18.6066V18.6046ZM49.0078 31.0316C48.0547 31.0316 47.123 30.7811 46.3305 30.3118C45.538 29.8425 44.9203 29.1754 44.5556 28.395C44.1908 27.6145 44.0954 26.7558 44.2813 25.9272C44.4673 25.0987 44.9263 24.3377 45.6002 23.7404C46.2742 23.143 47.1329 22.7363 48.0677 22.5715C49.0025 22.4067 49.9714 22.4912 50.852 22.8145C51.7326 23.1378 52.4852 23.6852 53.0147 24.3876C53.5443 25.09 53.8269 25.9158 53.8269 26.7605C53.8269 27.8933 53.3192 28.9796 52.4154 29.7806C51.5117 30.5816 50.2859 31.0316 49.0078 31.0316Z" fill="#383A41"/>
<path d="M95.1524 26.515C95.1524 21.8557 90.7298 18.4096 85.683 18.4096C81.1421 18.4096 77.1006 21.8032 77.1006 26.7577V40.0001H81.348V32.8499C82.763 34.0807 84.2307 34.6224 86.3292 34.6224C91.0716 34.6224 95.1502 31.1103 95.1502 26.515H95.1524ZM91.1307 26.4684C91.1307 27.3132 90.8481 28.139 90.3185 28.8413C89.789 29.5437 89.0364 30.0912 88.1558 30.4144C87.2752 30.7377 86.3063 30.8223 85.3715 30.6575C84.4367 30.4927 83.578 30.0859 82.904 29.4886C82.2301 28.8912 81.7711 28.1302 81.5852 27.3017C81.3992 26.4732 81.4946 25.6144 81.8594 24.834C82.2241 24.0535 82.8418 23.3865 83.6343 22.9171C84.4268 22.4478 85.3585 22.1973 86.3116 22.1973C87.5897 22.1973 88.8155 22.6473 89.7192 23.4483C90.623 24.2493 91.1307 25.3357 91.1307 26.4684Z" fill="#383A41"/>
<path d="M108.831 18.3496V14.6066C109.389 14.3756 109.862 14.0088 110.194 13.5489C110.526 13.089 110.704 12.555 110.706 12.009V11.9216C110.704 11.1587 110.361 10.4276 109.752 9.88807C109.144 9.34858 108.319 9.04458 107.458 9.04254H107.359C106.498 9.04458 105.674 9.34858 105.065 9.88807C104.456 10.4276 104.113 11.1587 104.111 11.9216V12.009C104.114 12.555 104.291 13.089 104.623 13.5489C104.955 14.0088 105.428 14.3756 105.986 14.6066V18.3496C104.381 18.5671 102.87 19.1565 101.605 20.0581L90.0085 12.0614C90.091 11.7976 90.1352 11.5256 90.1399 11.2519C90.1408 10.6095 89.9267 9.98128 89.5247 9.44673C89.1228 8.91217 88.551 8.49527 87.8817 8.24873C87.2124 8.00219 86.4756 7.93708 85.7646 8.06166C85.0535 8.18623 84.4001 8.49487 83.887 8.94857C83.3739 9.40226 83.0241 9.98063 82.8818 10.6105C82.7396 11.2404 82.8113 11.8936 83.0878 12.4873C83.3644 13.0811 83.8334 13.5889 84.4356 13.9464C85.0378 14.3039 85.746 14.4952 86.4709 14.496C87.1075 14.4939 87.7323 14.3432 88.2824 14.0591L99.6839 21.9257C98.6569 23.2989 98.1212 24.9146 98.1466 26.5619C98.172 28.2091 98.7573 29.8113 99.8263 31.1591L96.3565 34.2343C96.078 34.1557 95.7879 34.1138 95.4957 34.11C94.9 34.11 94.3176 34.2666 93.8223 34.5599C93.327 34.8532 92.941 35.2701 92.713 35.7579C92.485 36.2457 92.4254 36.7824 92.5416 37.3002C92.6578 37.818 92.9447 38.2937 93.3659 38.667C93.7871 39.0403 94.3238 39.2946 94.9081 39.3976C95.4923 39.5006 96.0979 39.4477 96.6483 39.2457C97.1986 39.0436 97.669 38.7015 98 38.2625C98.3309 37.8235 98.5076 37.3074 98.5076 36.7794C98.5036 36.5204 98.4563 36.2633 98.3674 36.0165L101.8 32.9743C102.92 33.7328 104.222 34.2544 105.604 34.4993C106.987 34.7441 108.414 34.7058 109.778 34.3871C111.141 34.0685 112.404 33.478 113.471 32.6607C114.537 31.8434 115.379 30.8209 115.932 29.6713C116.484 28.5217 116.733 27.2754 116.66 26.0275C116.586 24.7796 116.192 23.5631 115.507 22.4709C114.822 21.3786 113.864 20.4395 112.707 19.7253C111.551 19.0111 110.225 18.5405 108.831 18.3496ZM107.41 30.6621C106.47 30.6621 105.552 30.4152 104.771 29.9527C103.99 29.4902 103.382 28.8329 103.022 28.0638C102.663 27.2947 102.569 26.4484 102.752 25.632C102.935 24.8155 103.388 24.0655 104.052 23.4769C104.716 22.8883 105.562 22.4874 106.483 22.325C107.404 22.1626 108.359 22.2459 109.227 22.5645C110.095 22.8831 110.837 23.4225 111.358 24.1147C111.88 24.8069 112.159 25.6206 112.159 26.4531C112.159 27.5694 111.658 28.6399 110.768 29.4293C109.877 30.2186 108.669 30.6621 107.41 30.6621Z" fill="#383A41"/>
</g>
<defs>
<clipPath id="clip0_1_464">
<rect width="128.626" height="48" fill="white" transform="translate(0.224609)"/>
</clipPath>
</defs>
</svg>
