<svg width="51" height="50" viewBox="0 0 51 50" fill="none" xmlns="http://www.w3.org/2000/svg">
<path d="M1 49.5V12.9622L13.4622 0.5H50V38.0582L38.5582 49.5H1Z" fill="white" stroke="#CEDBE7"/>
<g clip-path="url(#clip0_1_322)">
<path d="M27.7314 29.9492L26.6914 29.3486C24.1816 27.9033 22.0967 25.8135 20.6514 23.3086L20.0508 22.2686L20.8955 21.4238L22.8828 19.4365L20.6172 13.7676L14.5625 14.8662V15.125C14.5625 26.3408 23.6592 35.4375 34.875 35.4375H35.1338L36.2324 29.3828L30.5635 27.1123L28.5762 29.0996L27.7314 29.9492ZM30.1875 25.2812L38 28.4062L36.4375 37H34.875C22.7949 37 13 27.2051 13 15.125V13.5625L21.5938 12L24.7188 19.8125L22.0039 22.5273C23.3125 24.7979 25.2021 26.6875 27.4727 27.9961L30.1875 25.2812Z" fill="#AC3639"/>
</g>
<defs>
<clipPath id="clip0_1_322">
<rect width="25" height="25" fill="white" transform="translate(13 12)"/>
</clipPath>
</defs>
</svg>
