<svg width="51" height="51" viewBox="0 0 51 51" fill="none" xmlns="http://www.w3.org/2000/svg">
<path d="M1 50V13.4622L13.4622 1H50V38.5582L38.5582 50H1Z" fill="white" stroke="#CEDBE7"/>
<g clip-path="url(#clip0_1_332)">
<path d="M33.4167 22.75C33.4167 18.2609 29.874 14.625 25.5 14.625C21.126 14.625 17.5833 18.2609 17.5833 22.75C17.5833 23.7758 18.0336 25.218 18.8945 26.9496C19.7307 28.6355 20.8688 30.4129 22.0315 32.0531C23.1893 33.6883 24.3521 35.1508 25.2229 36.2121C25.3169 36.3289 25.4109 36.4406 25.5 36.5473C25.5891 36.4406 25.6781 36.3289 25.7771 36.2121C26.6529 35.1559 27.8107 33.6883 28.9685 32.0531C30.1313 30.4129 31.2643 28.6355 32.1055 26.9496C32.9664 25.218 33.4167 23.7758 33.4167 22.75ZM35 22.75C35 27.2594 29.0279 34.8309 26.5539 37.7762C25.9057 38.548 25.5 39 25.5 39C25.5 39 25.0943 38.548 24.4461 37.7762C21.9721 34.8309 16 27.2594 16 22.75C16 17.3672 20.2552 13 25.5 13C30.7448 13 35 17.3672 35 22.75ZM23.125 22.75C23.125 23.3965 23.3752 24.0165 23.8206 24.4736C24.266 24.9307 24.8701 25.1875 25.5 25.1875C26.1299 25.1875 26.734 24.9307 27.1794 24.4736C27.6248 24.0165 27.875 23.3965 27.875 22.75C27.875 22.1035 27.6248 21.4835 27.1794 21.0264C26.734 20.5693 26.1299 20.3125 25.5 20.3125C24.8701 20.3125 24.266 20.5693 23.8206 21.0264C23.3752 21.4835 23.125 22.1035 23.125 22.75ZM25.5 26.8125C24.4502 26.8125 23.4434 26.3845 22.701 25.6226C21.9587 24.8608 21.5417 23.8274 21.5417 22.75C21.5417 21.6726 21.9587 20.6392 22.701 19.8774C23.4434 19.1155 24.4502 18.6875 25.5 18.6875C26.5498 18.6875 27.5566 19.1155 28.299 19.8774C29.0413 20.6392 29.4583 21.6726 29.4583 22.75C29.4583 23.8274 29.0413 24.8608 28.299 25.6226C27.5566 26.3845 26.5498 26.8125 25.5 26.8125Z" fill="#AC3639"/>
</g>
<defs>
<clipPath id="clip0_1_332">
<rect width="19" height="26" fill="white" transform="translate(16 13)"/>
</clipPath>
</defs>
</svg>
