<svg width="206" height="25" viewBox="0 0 206 25" fill="none" xmlns="http://www.w3.org/2000/svg">
<g clip-path="url(#clip0_520_2419)">
<path d="M64.9878 4.39014H62.5185V15.5439H56.6749V4.39014H54.2056V17.8211H63.5461H64.7731V20.0673H67.1197V15.5439H64.9878V4.39014Z" fill="#383A41"/>
<path d="M76.9969 9.56458C76.5828 9.05336 76.0613 8.65059 75.4325 8.37175C74.8036 8.0929 74.0981 7.93799 73.3006 7.93799C72.5644 7.93799 71.8895 8.06192 71.276 8.30978C70.6625 8.55764 70.1104 8.91394 69.6656 9.36319C69.2055 9.81244 68.8527 10.3546 68.6073 10.9743C68.3466 11.5939 68.2239 12.2756 68.2239 13.0191C68.2239 14.0261 68.4386 14.9091 68.8834 15.6681C69.3128 16.4272 69.9263 17.0159 70.7085 17.4496C71.4907 17.8679 72.3957 18.0848 73.4233 18.0848C73.868 18.0848 74.3435 18.0383 74.8343 17.9454C75.3251 17.8524 75.7852 17.713 76.23 17.5271C76.6748 17.3412 77.0429 17.1398 77.3343 16.892L76.4754 15.1724C76.046 15.4823 75.5858 15.7301 75.0797 15.885C74.5736 16.0399 74.0521 16.1174 73.5153 16.1174C72.9018 16.1174 72.365 16.009 71.9202 15.7921C71.4601 15.5752 71.1226 15.2809 70.8772 14.9091C70.6318 14.5373 70.5092 14.088 70.5245 13.5923H77.9478C78.0705 12.7868 78.0552 12.0432 77.8864 11.3461C77.7177 10.649 77.4263 10.0603 77.0122 9.53359L76.9969 9.56458ZM70.6472 11.8728C70.7239 11.2221 70.9846 10.7264 71.4601 10.3546C71.9355 9.98284 72.5184 9.79695 73.2392 9.79695C73.9601 9.79695 74.5276 9.98284 74.9263 10.3546C75.3251 10.7264 75.5398 11.2221 75.5552 11.8728H70.6319H70.6472Z" fill="#383A41"/>
<path d="M86.5061 11.8419H82.1349V8.23242H79.6963V17.8215H82.1349V13.8403H86.5061V17.8215H88.9448V8.23242H86.5061V11.8419Z" fill="#383A41"/>
<path d="M90.7854 10.2308H93.7762V17.8215H96.2148V10.2308H99.2056V8.23242H90.7854V10.2308Z" fill="#383A41"/>
<path d="M108.837 8.58862C108.117 8.15487 107.304 7.93799 106.383 7.93799C105.571 7.93799 104.865 8.07741 104.297 8.37175C103.715 8.65059 103.255 9.03787 102.886 9.50261V8.23232H100.724V21.1056H103.147V16.768C103.531 17.1863 103.991 17.5116 104.512 17.744C105.034 17.9764 105.647 18.1003 106.337 18.1003C107.028 18.1003 107.687 17.9764 108.27 17.713C108.853 17.4496 109.359 17.0933 109.788 16.6286C110.218 16.1639 110.54 15.6217 110.77 15.0175C111 14.3979 111.123 13.7472 111.123 13.0346C111.123 12.0432 110.923 11.1602 110.509 10.4011C110.095 9.64203 109.543 9.03787 108.822 8.60411L108.837 8.58862ZM108.362 14.5838C108.132 15.0175 107.794 15.3583 107.38 15.6062C106.966 15.854 106.491 15.9625 105.954 15.9625C105.417 15.9625 104.942 15.8386 104.512 15.6062C104.098 15.3738 103.761 15.033 103.531 14.5838C103.301 14.15 103.178 13.6233 103.178 13.0191C103.178 12.415 103.301 11.9038 103.546 11.4545C103.791 11.0208 104.113 10.6799 104.528 10.4321C104.942 10.1997 105.417 10.0758 105.954 10.0758C106.491 10.0758 106.966 10.1997 107.38 10.4321C107.794 10.6645 108.132 11.0053 108.362 11.4545C108.607 11.8883 108.73 12.415 108.73 13.0191C108.73 13.6233 108.607 14.1345 108.377 14.5838H108.362Z" fill="#383A41"/>
<path d="M118.209 13.8089V4.39014H115.755V17.8211H118.147L124.39 8.34042V17.8211H126.844V4.39014H124.42L118.209 13.8089Z" fill="#383A41"/>
<path d="M131.706 13.8089V4.39014H129.236V17.8211H131.644L137.887 8.34042V17.8211H140.341V4.39014H137.917L131.706 13.8089Z" fill="#383A41"/>
<path d="M154.282 15.389C153.669 15.5904 153.04 15.6833 152.396 15.6833C151.445 15.6833 150.632 15.4974 149.942 15.1411C149.252 14.7693 148.715 14.2581 148.347 13.5765C147.979 12.8949 147.779 12.0739 147.779 11.1134C147.779 10.4163 147.887 9.78115 148.086 9.20797C148.301 8.65028 148.592 8.17005 148.991 7.76728C149.39 7.3645 149.865 7.07017 150.417 6.85329C150.969 6.63641 151.598 6.52797 152.304 6.52797C152.948 6.52797 153.546 6.62092 154.098 6.82231C154.635 7.0082 155.111 7.30254 155.509 7.68982L156.782 5.64497C156.2 5.16474 155.555 4.77745 154.804 4.5141C154.068 4.25075 153.163 4.11133 152.12 4.11133C151.077 4.11133 150.187 4.28173 149.344 4.62254C148.5 4.96335 147.764 5.44358 147.135 6.07872C146.522 6.71387 146.031 7.45745 145.693 8.30947C145.356 9.16149 145.187 10.1065 145.187 11.1289C145.187 12.5386 145.479 13.7779 146.061 14.8158C146.644 15.8692 147.442 16.6748 148.485 17.248C149.528 17.8211 150.724 18.1 152.104 18.1C153.163 18.1 154.114 17.9606 154.942 17.6817C155.77 17.4029 156.506 17.0156 157.135 16.5199L155.985 14.413C155.448 14.8468 154.865 15.1566 154.267 15.358L154.282 15.389Z" fill="#383A41"/>
<path d="M159.282 17.8211H161.752V6.68285H167.779V17.8211H170.264V4.39014H159.282V17.8211Z" fill="#383A41"/>
<path d="M180.831 9.19268C180.141 8.77442 179.359 8.55754 178.469 8.55754C177.718 8.55754 177.058 8.69696 176.491 8.9913C175.923 9.28563 175.433 9.67291 175.034 10.1686C175.095 9.518 175.218 8.94482 175.402 8.46459C175.586 7.98436 175.893 7.59708 176.291 7.30275C176.69 6.99292 177.242 6.77604 177.933 6.63662L182.35 5.81558L181.966 3.73975L177.411 4.63824C176.568 4.80865 175.847 5.08749 175.248 5.47477C174.65 5.86205 174.175 6.37327 173.807 6.97743C173.439 7.59708 173.178 8.30968 172.994 9.14621C172.825 9.98274 172.733 10.9277 172.733 11.9966C172.733 12.9571 172.856 13.8091 173.101 14.5682C173.347 15.3272 173.699 15.9624 174.16 16.4891C174.62 17.0158 175.172 17.4186 175.816 17.6974C176.46 17.9763 177.181 18.1157 177.994 18.1157C178.745 18.1157 179.436 17.9917 180.034 17.7439C180.647 17.496 181.169 17.1397 181.614 16.6905C182.058 16.2412 182.396 15.7145 182.641 15.1104C182.871 14.5217 182.994 13.8865 182.994 13.2049C182.994 12.3529 182.795 11.5783 182.411 10.8812C182.012 10.1841 181.475 9.62644 180.785 9.20818L180.831 9.19268ZM180.279 14.6766C180.049 15.0794 179.742 15.4047 179.344 15.6216C178.945 15.8385 178.5 15.9624 178.009 15.9624C177.518 15.9624 177.043 15.8539 176.644 15.6216C176.245 15.4047 175.939 15.0794 175.709 14.6766C175.479 14.2738 175.371 13.7781 175.371 13.2204C175.371 12.6627 175.479 12.167 175.709 11.7642C175.939 11.3615 176.245 11.0361 176.644 10.8193C177.043 10.6024 177.488 10.4785 178.009 10.4785C178.531 10.4785 178.96 10.5869 179.359 10.8193C179.758 11.0361 180.064 11.3615 180.295 11.7642C180.525 12.167 180.632 12.6627 180.632 13.2204C180.632 13.7781 180.525 14.2738 180.295 14.6766H180.279Z" fill="#383A41"/>
<path d="M185.402 17.8211H187.887V6.68285H193.147V4.39014H185.402V17.8211Z" fill="#383A41"/>
<path d="M203.132 4.39014L200.341 10.2459L197.304 4.39014H194.298L198.929 12.9258C198.761 13.1737 198.607 13.4061 198.423 13.6075C197.933 14.1961 197.396 14.6454 196.782 15.0017C196.169 15.3425 195.479 15.6058 194.712 15.7762L195.647 18.0535C196.322 17.9295 196.951 17.7282 197.534 17.4648C198.117 17.2014 198.653 16.8451 199.16 16.3959C199.666 15.9467 200.156 15.389 200.632 14.7228C201.107 14.0567 201.568 13.2667 202.012 12.3372L205.985 4.39014H203.117H203.132Z" fill="#383A41"/>
<path d="M7.24226 12.0269V19.1684C7.24226 19.3078 7.16558 19.4472 7.04288 19.5247L3.03981 21.8639C2.77907 22.0188 2.44165 21.8174 2.44165 21.5076V14.3661C2.44165 14.2267 2.51834 14.0872 2.64104 14.0098L6.6441 11.6706C6.90484 11.5157 7.24226 11.7171 7.24226 12.0269Z" fill="#383A41"/>
<path d="M13.2852 5.31937V15.5901C13.2852 15.7295 13.2085 15.8689 13.0858 15.9464L9.08278 18.2856C8.82204 18.4405 8.48462 18.2391 8.48462 17.9293V7.65856C8.48462 7.51914 8.5613 7.37971 8.684 7.30226L12.6871 4.96307C12.9478 4.80816 13.2852 5.00955 13.2852 5.31937Z" fill="#383A41"/>
<path d="M24.1593 9.59516L19.3587 12.3991V6.79123L14.5581 3.9873V14.7228C14.5581 15.0171 14.7115 15.2805 14.9569 15.4199L18.9599 17.7591C19.2053 17.8985 19.5121 17.8985 19.7575 17.7591L24.1593 15.1875L28.9599 12.3836L24.1593 9.57967V9.59516Z" fill="#AC3639"/>
<path d="M23.5612 4.34341L19.3587 6.79104L14.5581 3.98711L19.1593 1.30712C19.282 1.22966 19.4354 1.22966 19.5581 1.30712L23.5612 3.6463C23.8219 3.80122 23.8219 4.1885 23.5612 4.34341Z" fill="#383A41"/>
<path d="M33.3773 9.3627L29.3742 7.02351C29.1288 6.88409 28.822 6.88409 28.5766 7.02351L24.1748 9.59507L28.9754 12.399V18.0068L24.773 20.4545C24.5122 20.6094 24.5122 20.9967 24.773 21.1516L28.9754 23.5992L33.776 20.7953V10.0598C33.776 9.76547 33.6227 9.50212 33.3773 9.3627Z" fill="#383A41"/>
<path d="M28.9754 17.9912V23.5991L24.7729 21.1514C24.5122 20.9965 24.5122 20.6092 24.7729 20.4543L28.9754 18.0067V17.9912Z" fill="#AC3639"/>
<path d="M39.6043 6.8373V17.108C39.6043 17.2475 39.5276 17.3869 39.4049 17.4643L35.4019 19.8035C35.1411 19.9584 34.8037 19.7725 34.8037 19.4472V9.161C34.8037 9.02158 34.8804 8.88216 35.0031 8.8047L39.0062 6.46551C39.2669 6.3106 39.6043 6.51199 39.6043 6.82181V6.8373Z" fill="#383A41"/>
<path d="M45.4478 6.83744V13.6381C45.4478 13.7775 45.3711 13.917 45.2484 13.9944L41.2454 16.3336C40.9846 16.4885 40.6472 16.2871 40.6472 15.9773V9.17663C40.6472 9.0372 40.7239 8.89778 40.8466 8.82033L44.8497 6.48114C45.1104 6.32623 45.4478 6.52761 45.4478 6.83744Z" fill="#383A41"/>
</g>
<defs>
<clipPath id="clip0_520_2419">
<rect width="240" height="24.1509" fill="white" transform="translate(-34 0.424316)"/>
</clipPath>
</defs>
</svg>
