<svg width="318" height="32" viewBox="0 0 318 32" fill="none" xmlns="http://www.w3.org/2000/svg">
<g clip-path="url(#clip0_1_685)">
<path d="M35.5637 0.821289H34.6289V30.5634H35.5637V0.821289Z" fill="#383A41"/>
<path d="M9.89708 8.02564C10.019 7.65617 9.9987 7.30723 9.83612 7.14302C9.79547 7.10197 9.73451 7.06091 9.65322 7.01986C9.73451 6.93776 9.79547 6.83513 9.79547 6.71197C9.79547 6.52724 9.67354 6.36303 9.51096 6.32198V6.13725H9.79547V5.91146H9.51096V5.54199H9.28742V5.91146H9.00291V6.13725H9.28742V6.32198C9.10452 6.38356 9.00291 6.52724 9.00291 6.71197C9.00291 6.83513 9.04356 6.93776 9.14517 7.01986C9.10452 7.01986 9.06388 7.06091 9.02324 7.10197C8.84034 7.24565 8.77937 7.59459 8.88098 7.96406C8.98259 8.37458 9.20613 8.72352 9.38903 8.74405C9.38903 8.74405 9.42968 8.74405 9.45 8.74405C9.61258 8.68247 9.83612 8.37458 9.95805 8.02564H9.89708Z" fill="#383A41"/>
<path d="M11.4823 3.07914C11.1571 3.07914 10.8523 3.18177 10.5881 3.38703C10.263 3.65387 10.0801 4.06439 10.0801 4.49543C10.0801 4.61859 10.0801 4.74174 10.1207 4.84437C10.1207 4.90595 10.1614 5.00858 10.202 5.09068C10.202 5.11121 10.202 5.13174 10.2223 5.15226C10.3646 5.48068 10.6491 5.78857 10.6694 5.82962C10.6694 5.82962 10.7304 5.78857 10.7914 5.74752C10.8117 5.74752 10.8523 5.70646 10.893 5.68594C10.9946 5.62436 11.1368 5.58331 11.2588 5.52173C11.5839 5.39857 12.0107 5.35752 12.092 5.35752C12.031 5.27542 11.6449 4.68016 11.5636 3.8386C11.5229 3.38703 11.5229 3.09966 11.5433 3.03809C11.5433 3.03809 11.5026 3.03809 11.462 3.03809L11.4823 3.07914Z" fill="#383A41"/>
<path d="M14.0421 1.56001C14.0421 1.56001 14.0421 1.56001 14.0624 1.56001C14.1437 1.56001 14.2047 1.49843 14.2047 1.41633C14.2047 1.33422 14.1437 1.27265 14.0624 1.27265C14.0015 1.17002 13.8999 1.10844 13.7983 1.10844C13.6966 1.10844 13.595 1.17002 13.5341 1.25212H13.1073V0.677394C13.1073 0.677394 13.2496 0.533712 13.2496 0.410556C13.2496 0.2874 13.1886 0.18477 13.087 0.143718C13.087 0.143718 13.087 0.123192 13.087 0.102666C13.087 0.0205623 13.026 -0.0410156 12.9447 -0.0410156C12.8634 -0.0410156 12.8025 0.0205623 12.8025 0.102666C12.8025 0.102666 12.8025 0.123192 12.8025 0.143718C12.7009 0.18477 12.6399 0.2874 12.6399 0.410556C12.6399 0.533712 12.7009 0.615816 12.8025 0.677394V1.25212H12.3757C12.3757 1.25212 12.2335 1.08791 12.1115 1.08791C11.9896 1.08791 11.888 1.14949 11.8473 1.25212C11.766 1.25212 11.7051 1.3137 11.7051 1.3958C11.7051 1.47791 11.766 1.53948 11.8473 1.53948C11.8473 1.53948 11.8473 1.53948 11.8677 1.53948C11.9286 1.64211 12.0302 1.68317 12.1318 1.68317C12.2335 1.68317 12.3351 1.62159 12.396 1.53948H12.8228V1.82685C12.5586 1.88843 12.3554 2.13474 12.3554 2.4221C12.3554 2.56578 12.4164 2.70947 12.4976 2.8121C12.396 2.85315 12.3147 2.8942 12.2335 2.9763C11.9896 3.22262 11.9489 3.71524 12.1318 4.26944C12.2538 4.63891 12.4773 4.98785 12.6805 5.19311C12.7618 5.27521 12.8634 5.33679 12.9447 5.33679H12.965C12.965 5.33679 13.1479 5.29574 13.2292 5.19311C13.4528 4.98785 13.656 4.63891 13.7779 4.26944C13.9608 3.73576 13.9405 3.22262 13.6763 2.9763C13.595 2.91473 13.5137 2.85315 13.4121 2.8121C13.5137 2.70947 13.5544 2.56578 13.5544 2.4221C13.5544 2.13474 13.3715 1.90895 13.1073 1.82685V1.53948H13.5341C13.5341 1.53948 13.6763 1.70369 13.7983 1.70369C13.8999 1.70369 14.0015 1.64211 14.0624 1.53948L14.0421 1.56001Z" fill="#383A41"/>
<path d="M8.3927 7.75885C8.37238 7.47149 8.37238 7.26623 8.3927 7.22518C8.25045 7.20465 8.08787 7.22518 7.94562 7.30728C7.84401 7.36886 7.76272 7.43044 7.68143 7.49201C7.5595 7.61517 7.45789 7.73833 7.43756 7.88201C7.3766 8.04622 7.3766 8.1899 7.39692 8.35411C7.39692 8.35411 7.45789 8.53884 7.49853 8.64147C7.5595 8.78515 7.66111 8.90831 7.72207 9.01094C8.18948 8.8262 8.65689 8.80568 8.71785 8.80568C8.67721 8.7441 8.41302 8.33358 8.37238 7.77938L8.3927 7.75885Z" fill="#383A41"/>
<path d="M16.5426 12.3566C16.5426 12.3566 16.502 12.3977 16.502 12.4182C16.502 12.4387 16.502 12.4798 16.5426 12.4798C16.5426 12.4798 16.5426 12.4798 16.5629 12.4798C16.8271 12.4798 17.0913 12.5414 17.3352 12.6235C17.5181 12.685 17.701 12.7466 17.8432 12.8287C17.9448 12.8903 18.0261 12.9724 18.1074 13.0545C18.1887 13.1161 18.2497 13.1777 18.2903 13.1982H18.3309C18.4529 13.3008 18.5748 13.3829 18.7171 13.4035C18.8796 13.424 19.0422 13.4035 19.2251 13.3829C19.2658 13.3829 19.3064 13.3624 19.347 13.3419C19.347 13.3419 19.469 13.2803 19.5096 13.2598C19.5096 13.2598 19.5299 13.2598 19.5503 13.2598C19.5706 13.2598 19.5909 13.2392 19.6112 13.2187C19.6112 13.2187 19.6316 13.1777 19.6316 13.1571C19.6316 13.1366 19.6112 13.0956 19.5706 13.0956C19.5706 13.0956 19.5299 13.0956 19.5096 13.0956C19.2454 13.0956 19.0422 13.0956 18.8593 13.0135C18.7577 12.9724 18.6561 12.9108 18.5748 12.8493C18.5748 12.8493 18.3106 12.6235 18.27 12.5824C18.1684 12.5003 17.8229 12.1924 17.4368 12.1514C17.3961 12.1514 17.3555 12.1514 17.3148 12.1514C17.071 12.1514 16.8881 12.2335 16.6849 12.3156C16.6442 12.3156 16.6036 12.3566 16.5629 12.3772L16.5426 12.3566Z" fill="#383A41"/>
<path d="M7.29601 12.8493C7.29601 12.8493 7.11311 12.9724 7.0115 13.0135C6.84892 13.0751 6.62538 13.1161 6.36119 13.0956C6.36119 13.0956 6.32055 13.0956 6.30022 13.0956C6.30022 13.0956 6.23926 13.1161 6.23926 13.1572C6.23926 13.1777 6.23926 13.1982 6.25958 13.2187C6.25958 13.2187 6.30022 13.2393 6.32055 13.2598C6.32055 13.2598 6.34087 13.2598 6.36119 13.2598C6.40183 13.2803 6.4628 13.3214 6.52377 13.3419C6.52377 13.3419 6.60506 13.3829 6.6457 13.3829C6.80828 13.424 6.99118 13.4445 7.15375 13.4035C7.29601 13.3829 7.41794 13.3008 7.53987 13.2187H7.58052C7.58052 13.2187 7.70245 13.1161 7.76341 13.0545C7.8447 12.993 7.92599 12.9108 8.0276 12.8287C8.16986 12.7261 8.35275 12.6645 8.53565 12.6235C8.77952 12.5619 9.04371 12.5003 9.30789 12.4798C9.30789 12.4798 9.30789 12.4798 9.32822 12.4798C9.34854 12.4798 9.36886 12.4387 9.36886 12.4182C9.36886 12.3977 9.36886 12.3772 9.32822 12.3566C9.28757 12.3566 9.24693 12.3156 9.20628 12.2951C9.00306 12.213 8.82016 12.1309 8.5763 12.1309C8.53565 12.1309 8.49501 12.1309 8.45437 12.1309C8.06825 12.1719 7.72277 12.4798 7.62116 12.5619C7.58052 12.603 7.33665 12.8082 7.31633 12.8287L7.29601 12.8493Z" fill="#383A41"/>
<path d="M9.04287 26.6222C9.04287 26.6222 9.10383 26.6222 9.14448 26.5812C9.18512 26.5812 9.24609 26.5401 9.26641 26.5401C9.14448 26.4785 8.75836 26.3143 8.69739 26.0064C8.65675 25.8627 8.69739 25.6985 8.85997 25.5343C8.75836 25.5343 8.67707 25.5343 8.59578 25.5754C8.51449 25.6164 8.4332 25.678 8.37224 25.7396C8.29095 25.8422 8.27063 25.9448 8.27063 26.0475C8.29095 26.2733 8.47385 26.4375 8.47385 26.4375H8.45353C8.41288 26.4375 8.35192 26.4375 8.31127 26.4375C8.27063 26.4375 8.22998 26.4375 8.20966 26.4375C7.88451 26.2117 7.62032 25.7806 8.12837 25.0007C8.12837 25.0007 8.10805 25.0007 8.08773 25.0007C8.00644 25.0007 7.92515 25.0007 7.84386 25.0417C7.80322 25.0417 7.76258 25.0828 7.72193 25.1033C7.43742 25.247 7.25452 25.5138 7.25452 25.8217C7.25452 25.9448 7.27485 26.0475 7.33581 26.1706C7.37646 26.2527 7.43742 26.3143 7.49839 26.3759C7.49839 26.3759 7.49839 26.3759 7.45774 26.3759C7.39678 26.3759 7.25452 26.3759 7.21388 26.3554C6.97001 26.068 6.64486 25.4933 7.21388 24.8159C7.21388 24.8159 7.19356 24.8159 7.17323 24.8159C7.17323 24.8159 7.17323 24.8159 7.15291 24.8159C7.07162 24.8159 7.01066 24.8159 6.94969 24.857C6.90905 24.857 6.84808 24.898 6.80744 24.9185C6.50261 25.1033 6.36035 25.4522 6.36035 25.7191C6.36035 25.8422 6.401 26.0475 6.44164 26.1706C6.78712 27.0327 8.39256 26.8275 8.9819 26.6838L9.04287 26.6222Z" fill="#383A41"/>
<path d="M9.53084 13.4035C9.53084 13.4035 9.69341 13.2804 9.81534 13.1161C10.0186 12.8698 10.0186 12.5004 9.81534 12.213C9.75438 12.1309 9.69341 12.0488 9.63245 11.9872C9.44955 11.782 8.90085 11.2893 8.41312 11.1457C7.8441 10.9814 7.53927 11.0225 7.35637 11.043C7.27508 11.043 7.21412 11.043 7.15315 11.043C6.99057 11.043 6.94993 10.9609 6.94993 10.9199C6.94993 10.8583 7.0109 10.7557 7.13283 10.6941C7.1938 10.653 7.25476 10.5915 7.27508 10.5504C7.27508 10.5299 7.27508 10.5094 7.27508 10.4888C7.27508 10.4683 7.23444 10.4478 7.1938 10.4272C7.1938 10.4272 7.17347 10.4272 7.15315 10.4272C6.86864 10.4272 6.66542 10.5299 6.52317 10.6941C6.2793 11.0225 6.29962 11.5151 6.34027 11.7409C6.34027 11.782 6.36059 11.823 6.38091 11.8641C6.44188 12.1104 6.52317 12.2951 6.58413 12.3772C6.74671 12.1514 6.99057 11.9462 7.23444 11.823C7.31573 11.782 7.41734 11.7409 7.49863 11.6999C7.70185 11.6383 7.88475 11.5972 8.08797 11.5972C8.08797 11.5972 8.08797 11.5972 8.10829 11.5972C8.49441 11.5972 8.86021 11.7204 9.18536 11.9667C9.32761 12.0693 9.46987 12.213 9.5918 12.3567C9.71373 12.5004 9.73406 12.7056 9.63245 12.8698C9.46987 13.1161 9.20568 13.2598 9.10407 13.3009C8.96182 13.3625 8.77892 13.4035 8.59602 13.4035C8.41312 13.4035 8.23022 13.3625 8.06765 13.2804C8.06765 13.2804 8.06765 13.3009 8.10829 13.3625C8.18958 13.4446 8.83988 13.8346 9.55116 13.3625L9.53084 13.4035Z" fill="#383A41"/>
<path d="M6.42215 10.1192C6.42215 10.1192 6.46279 10.1603 6.48311 10.1808C6.48311 10.1808 6.48311 10.1808 6.50343 10.2013C6.62537 10.0782 6.86923 10.0166 6.9302 10.0166C6.9302 9.97553 6.9302 9.70869 7.07245 9.50344C6.70665 9.42133 6.48311 9.29817 6.36118 9.09291C6.21892 8.8466 6.21892 8.49766 6.36118 7.92293C6.40182 7.8203 6.42215 7.71767 6.46279 7.63557C6.54408 7.40979 6.58472 7.28663 6.52376 6.97874C6.46279 6.81453 6.21892 6.60927 6.09699 6.50664C5.69055 6.2398 5.20282 6.09612 4.8167 6.1577C4.67445 6.17823 4.55251 6.21928 4.43058 6.30138C4.00382 6.52717 3.78027 6.97874 3.78027 7.51242C3.78027 7.57399 3.78027 7.63557 3.78027 7.69715C3.82092 7.96399 3.90221 8.18977 4.06478 8.37451C4.16639 8.49766 4.28833 8.62082 4.38994 8.72345C4.43058 8.7645 4.47122 8.80555 4.51187 8.8466C4.57283 8.90818 4.6338 8.96976 4.67445 9.03134C4.73541 9.09292 4.85734 9.25712 4.8167 9.50344C4.79638 9.72922 4.65412 9.91395 4.43058 10.0987C4.36961 10.1397 4.28833 10.2013 4.20704 10.2424C4.12575 10.2834 4.02414 10.3245 3.92253 10.3245C4.47122 11.6381 5.34507 12.295 5.46701 12.3771C5.44668 12.295 5.32475 11.8844 5.40604 11.166C5.42636 10.9197 5.48733 10.6939 5.52797 10.4682C5.56862 10.3039 5.58894 10.1808 5.58894 10.0782C5.60926 9.81132 5.56862 9.56501 5.40604 9.19555C5.20282 8.74397 5.14185 8.62082 5.04024 8.45661C4.85734 8.14872 4.47122 7.47136 4.47122 7.47136C4.47122 7.47136 4.59316 7.34821 4.77606 7.2661C4.91831 7.20452 5.06056 7.16347 5.20282 7.16347C5.58894 7.16347 5.75152 7.36873 5.85313 7.49189C5.85313 7.49189 5.87345 7.51241 5.89377 7.53294C5.79216 7.75873 5.73119 8.41556 5.8328 8.88766C5.93441 9.42133 6.23925 9.7908 6.44247 10.0576L6.42215 10.1192Z" fill="#383A41"/>
<path d="M18.1274 8.96992C18.1884 8.88782 18.29 8.74414 18.351 8.60045C18.3916 8.49782 18.4526 8.33362 18.4526 8.31309C18.4729 8.14888 18.4526 7.98467 18.4119 7.84099C18.3713 7.69731 18.29 7.57415 18.1681 7.451C18.0868 7.38942 18.0055 7.32784 17.9039 7.26626C17.7616 7.18416 17.5991 7.16364 17.4568 7.18416C17.4568 7.22521 17.4568 7.40995 17.4568 7.71784C17.3958 8.27204 17.152 8.66203 17.1113 8.74414C17.1113 8.74414 17.66 8.76466 18.1071 8.9494L18.1274 8.96992Z" fill="#383A41"/>
<path d="M18.6146 11.8435C18.8788 11.9667 19.1023 12.1719 19.2649 12.3977C19.3258 12.2951 19.4071 12.1309 19.4681 11.8846C19.4681 11.8435 19.4884 11.8025 19.5087 11.7614C19.5494 11.5356 19.59 11.0225 19.3258 10.7146C19.1836 10.5299 18.96 10.4478 18.6959 10.4478C18.6959 10.4478 18.6755 10.4478 18.6552 10.4478C18.6146 10.4478 18.5739 10.4888 18.5739 10.5093C18.5739 10.5093 18.5739 10.5504 18.5739 10.5709C18.5739 10.612 18.6349 10.6735 18.7162 10.7146C18.8381 10.7762 18.8991 10.8788 18.8991 10.9404C18.8991 10.9814 18.8381 11.043 18.6959 11.0635C18.6349 11.0635 18.5739 11.0635 18.4926 11.0635C18.4317 11.0635 18.3301 11.0635 18.2284 11.0635C18.0455 11.0635 17.8017 11.0841 17.4359 11.1867C16.9482 11.3304 16.3791 11.823 16.2166 12.0283C16.1556 12.0898 16.0946 12.1719 16.0337 12.254C15.8508 12.5209 15.8508 12.8903 16.0337 13.1572C16.1556 13.3214 16.3182 13.424 16.3182 13.4445C17.0294 13.9372 17.6797 13.5267 17.761 13.4445C17.822 13.383 17.822 13.3624 17.8017 13.3624C17.6391 13.4445 17.4562 13.4856 17.2733 13.4856C17.0904 13.4856 16.9075 13.4445 16.7653 13.383C16.6636 13.3419 16.3995 13.1982 16.2369 12.9519C16.1353 12.7877 16.1556 12.5825 16.2775 12.4388C16.3995 12.2951 16.5417 12.1514 16.684 12.0488C17.0091 11.8025 17.3749 11.6793 17.761 11.6793C17.761 11.6793 17.761 11.6793 17.7814 11.6793C17.9846 11.6793 18.1675 11.7204 18.3707 11.7819C18.4723 11.8025 18.5536 11.8435 18.6349 11.9051L18.6146 11.8435Z" fill="#383A41"/>
<path d="M17.0095 7.98457C17.1111 7.6151 17.0502 7.26616 16.8673 7.12247C16.8266 7.10195 16.786 7.0609 16.7453 7.04037C16.8266 6.95827 16.8876 6.85564 16.8876 6.73248C16.8876 6.54775 16.7657 6.38354 16.6031 6.34249V6.15775H16.8876V5.93197H16.6031V5.5625H16.3795V5.93197H16.095V6.15775H16.3795V6.34249C16.1966 6.40406 16.095 6.54775 16.095 6.73248C16.095 6.85564 16.1357 6.95827 16.2373 7.04037C16.1763 7.0609 16.1154 7.10195 16.0544 7.16353C15.8918 7.32773 15.8715 7.67668 15.9934 8.04614C16.1154 8.39509 16.3389 8.70297 16.5015 8.76455C16.5218 8.76455 16.5421 8.76455 16.5624 8.76455C16.725 8.76455 16.9486 8.39509 17.0705 7.98457H17.0095Z" fill="#383A41"/>
<path d="M16.1152 7.08154C16.1152 7.08154 16.0952 7.08154 16.0752 7.10207C16.0752 7.10207 16.0952 7.10207 16.1152 7.08154Z" fill="#383A41"/>
<path d="M14.5714 7.88201C14.5104 8.04622 14.5104 8.1899 14.5307 8.35411C14.5307 8.35411 14.5917 8.53884 14.6323 8.64147C14.7339 8.84673 14.9168 9.07251 14.9372 9.09304C14.9372 9.09304 14.9372 9.09304 14.9575 9.11357C14.9778 9.11357 15.0997 9.01094 15.3436 8.90831C15.5468 8.8262 15.811 8.78515 15.872 8.78515C15.8313 8.72357 15.5671 8.31305 15.5265 7.75885C15.5062 7.47149 15.5062 7.28675 15.5265 7.22518C15.3842 7.20465 15.242 7.22518 15.0794 7.30728C14.9778 7.36886 14.8965 7.43044 14.8152 7.49201C14.6933 7.61517 14.5917 7.73833 14.5714 7.88201Z" fill="#383A41"/>
<path d="M14.6318 5.56271C14.7741 5.60376 14.896 5.66534 14.9976 5.72692C15.0383 5.72692 15.0789 5.76797 15.0993 5.78849C15.1602 5.82955 15.2212 5.85007 15.2212 5.8706C15.2618 5.82955 15.526 5.52166 15.6683 5.19324C15.6683 5.19324 15.6683 5.15219 15.6886 5.13166C15.7292 5.04956 15.7496 4.94693 15.7699 4.88535C15.8105 4.7622 15.8105 4.63904 15.8105 4.53641C15.8105 4.10536 15.6276 3.71537 15.3025 3.42801C15.0383 3.22275 14.7335 3.12012 14.4083 3.12012C14.388 3.12012 14.3677 3.12012 14.327 3.12012C14.327 3.12012 14.327 3.44853 14.3067 3.92063C14.2254 4.7622 13.8393 5.35745 13.7783 5.43955C13.8596 5.43955 14.2864 5.50113 14.6115 5.60376L14.6318 5.56271Z" fill="#383A41"/>
<path d="M21.4192 6.30175C21.2973 6.24017 21.1754 6.17859 21.0331 6.15807C20.647 6.09649 20.1389 6.21965 19.7528 6.50701C19.6106 6.60964 19.387 6.8149 19.326 6.97911C19.2651 7.26647 19.326 7.41015 19.387 7.63594C19.4073 7.71804 19.448 7.80015 19.4886 7.9233C19.6309 8.4775 19.6512 8.84697 19.4886 9.09328C19.3667 9.29854 19.1431 9.4217 18.7773 9.5038C18.8993 9.70906 18.9196 9.9759 18.9196 10.017C18.9806 10.017 19.2244 10.0785 19.3464 10.2017C19.3464 10.2017 19.3464 10.2017 19.3667 10.1812C19.3667 10.1606 19.4073 10.1401 19.4277 10.1196C19.6309 9.87327 19.9357 9.48328 20.0373 8.9496C20.1186 8.4775 20.078 7.82067 19.9763 7.59489C19.9763 7.59489 19.9763 7.57436 20.017 7.55384C20.1186 7.43068 20.2812 7.22542 20.6673 7.22542C20.8096 7.22542 20.9518 7.26647 21.0941 7.32805C21.277 7.41015 21.3989 7.53331 21.3989 7.53331C21.3989 7.53331 21.0331 8.21067 20.8299 8.51856C20.7283 8.68276 20.6673 8.80592 20.4641 9.25749C20.3015 9.60643 20.2609 9.87327 20.2812 10.1401C20.2812 10.2427 20.3218 10.3659 20.3421 10.5301C20.3828 10.7354 20.4438 10.9817 20.4641 11.228C20.5454 11.9464 20.4438 12.3364 20.4031 12.439C20.525 12.3364 21.3989 11.6796 21.9476 10.3864C21.846 10.3864 21.7647 10.3454 21.6631 10.3043C21.5818 10.2633 21.5005 10.2017 21.4395 10.1606C21.1957 9.9759 21.0737 9.77064 21.0534 9.56538C21.0331 9.31907 21.155 9.15486 21.1957 9.09328C21.2363 9.03171 21.2973 8.99065 21.3582 8.90855C21.3989 8.8675 21.4395 8.82645 21.4802 8.78539C21.5818 8.68276 21.6834 8.55961 21.8053 8.43645C21.9679 8.25172 22.0695 8.02593 22.0898 7.77962C22.0898 7.77962 22.0898 7.63594 22.0898 7.57436C22.0898 7.04069 21.846 6.58911 21.4395 6.36333L21.4192 6.30175Z" fill="#383A41"/>
<path d="M14.8559 6.83529V6.38372C14.8559 6.38372 14.7746 6.24004 14.6324 6.15793C14.3275 6.01425 13.7788 5.93215 13.1692 5.91162H12.8034C12.1734 5.91162 11.584 6.01425 11.2792 6.15793C11.137 6.21951 11.0557 6.30161 11.0557 6.38372V6.83529C11.0557 6.93792 11.3402 7.06108 11.5434 7.12265C11.584 7.12265 11.645 7.16371 11.6653 7.16371C11.6653 7.16371 11.6856 7.16371 11.706 7.16371C11.7466 7.04055 11.7873 6.79424 11.7873 6.77371C11.7873 6.77371 11.7466 6.75319 11.7263 6.73266C11.706 6.67108 11.7466 6.63003 11.8279 6.58898C11.9092 6.54793 12.0311 6.5274 12.1531 6.50687C12.214 6.73266 12.2343 7.0816 12.214 7.4716C12.1937 8.08737 12.0718 8.94947 11.6653 9.54472C11.8279 9.70893 11.9905 9.89366 12.1327 10.1194C12.5392 9.33946 12.6001 8.47737 12.6408 7.59475C12.6408 7.32791 12.6408 7.04055 12.6408 6.77371C12.6408 6.65056 12.6408 6.5274 12.6408 6.42477C12.6408 6.42477 12.6814 6.42477 12.7018 6.42477C12.7627 6.42477 12.844 6.42477 12.9253 6.42477C13.0066 6.42477 13.0879 6.42477 13.1488 6.42477C13.1692 6.42477 13.1895 6.42477 13.2098 6.42477C13.2098 6.5274 13.2098 6.65056 13.2098 6.77371C13.2098 7.04055 13.2098 7.32791 13.2098 7.59475C13.2504 8.49789 13.3114 9.35999 13.7179 10.1605C13.8601 9.95524 14.0024 9.7705 14.1649 9.6063C13.7585 9.03157 13.6366 8.14895 13.6162 7.51265C13.6162 7.10213 13.6162 6.75319 13.6772 6.54793C13.7991 6.54793 13.9211 6.58898 14.0024 6.63003C14.0837 6.67108 14.1243 6.71213 14.104 6.77371C14.104 6.77371 14.0633 6.81476 14.043 6.81476C14.043 6.85582 14.104 7.10213 14.1243 7.20476H14.1446C14.1853 7.20476 14.2259 7.16371 14.2666 7.16371C14.4698 7.0816 14.7543 6.97897 14.7543 6.87634L14.8559 6.83529Z" fill="#383A41"/>
<path d="M10.4864 8.9287C10.7302 9.03133 10.8522 9.11344 10.8725 9.13396L10.8928 9.11344C10.9131 9.07239 11.096 8.86713 11.1977 8.66187C11.2383 8.55924 11.2993 8.39503 11.2993 8.3745C11.3196 8.21029 11.2993 8.04609 11.2586 7.90241C11.218 7.75872 11.1367 7.63557 11.0148 7.51241C10.9335 7.45083 10.8522 7.38926 10.7506 7.32768C10.6083 7.2661 10.4457 7.22505 10.3035 7.24557C10.3035 7.24557 10.3035 7.49189 10.3035 7.77925C10.2425 8.33345 9.99865 8.72344 9.95801 8.80555C10.019 8.80555 10.2832 8.8466 10.4864 8.9287Z" fill="#383A41"/>
<path d="M15.2014 22.25L15.0791 22.3526L15.1403 22.4347L15.283 22.3321L15.2422 22.2705L15.2014 22.25Z" fill="#383A41"/>
<path d="M14.6518 21.655C14.7128 21.2855 14.7737 20.9982 14.7737 20.9982C14.7737 20.9571 14.7737 20.9161 14.794 20.875C14.8144 20.7108 14.855 20.5056 14.8753 20.3619C14.8753 20.3208 14.8753 20.3003 14.8347 20.3003C14.8144 20.3003 14.794 20.3003 14.7737 20.3619C14.7331 20.485 14.6518 20.834 14.6315 20.9777C14.6315 21.0803 14.3266 22.5171 14.225 23.0713C14.225 23.1124 14.2047 23.1329 14.1844 23.1739C14.1844 23.1739 14.1641 23.215 14.1641 23.2355C14.1641 23.3176 14.2047 23.3997 14.2657 23.3997C14.3063 23.3997 14.3266 23.3997 14.347 23.3792C14.3876 23.3587 14.4079 23.3176 14.4079 23.2766C14.4079 23.2766 14.4079 23.2355 14.4079 23.215C14.4079 23.1739 14.4079 23.1329 14.4079 23.0918C14.4689 22.7634 14.5908 22.1476 14.6721 21.655H14.6518Z" fill="#383A41"/>
<path d="M15.4859 20.8955C15.4859 20.8955 15.5468 20.7107 15.5265 20.6286C15.5265 20.6081 15.5265 20.5876 15.4859 20.567C15.4046 20.4644 15.3436 20.4439 15.303 20.4234C15.303 20.4234 15.181 20.4028 15.0998 20.4849V20.4028C15.0591 20.4644 15.0185 20.5876 14.9981 20.5876C14.9981 20.6491 14.9575 20.7518 14.9372 20.8134C15.0591 20.6081 15.1404 20.5876 15.2623 20.5465H15.303H15.2827C15.2014 20.6081 15.0998 20.7518 15.0388 20.9365L15.303 20.7518L15.242 20.7107C15.242 20.7107 15.303 20.6081 15.3843 20.6491C15.4046 20.6491 15.4249 20.6902 15.4249 20.7312C15.4249 20.7518 15.4249 20.8134 15.3639 20.8955L14.8356 21.347C14.8356 21.347 14.7949 21.4086 14.7949 21.5112C14.7949 21.5112 14.7949 21.5318 14.8152 21.5523C14.8152 21.5523 14.8559 21.5523 14.8762 21.5318L15.4249 21.0391C15.4249 21.0391 15.4452 21.0391 15.4656 21.0391C15.4656 21.0391 15.5062 21.0391 15.5062 21.0597C15.5468 21.1212 15.5062 21.2239 15.4452 21.347L15.4046 21.2444C15.4046 21.2649 15.3639 21.306 15.3436 21.3265C15.303 21.3881 15.2623 21.4702 15.2014 21.5318C15.2014 21.5318 15.3436 21.5318 15.4452 21.4497C15.4656 21.4291 15.5062 21.4086 15.5265 21.3881H15.5468C15.4656 21.5933 15.303 21.737 15.2623 21.7781C15.303 21.7781 15.4046 21.7575 15.4656 21.7165C15.5265 21.6754 15.6078 21.6344 15.6688 21.5523L15.5672 21.5112C15.5672 21.5112 15.5672 21.4702 15.5875 21.4702C15.6281 21.4086 15.7094 21.3265 15.7297 21.2033C15.7297 21.2033 15.7297 21.2033 15.7297 21.1828C15.7297 21.1418 15.7297 21.1212 15.7297 21.1007C15.7297 21.0391 15.7094 20.9981 15.6688 20.957C15.6078 20.8955 15.5468 20.8749 15.4859 20.8749V20.8955Z" fill="#383A41"/>
<path d="M14.8152 22.6608H14.8356L14.9579 22.5582L14.9171 22.4556L14.7744 22.5582V22.5787L14.8152 22.6403V22.6608Z" fill="#383A41"/>
<path d="M14.7332 21.9014C14.7332 21.9014 14.7129 21.9014 14.7129 21.9424V21.9835C14.7129 22.0245 14.7129 22.0451 14.7535 22.1477L14.9364 22.4351L15.0584 22.3324L14.7942 21.9014C14.7942 21.9014 14.7739 21.8809 14.7535 21.8809L14.7332 21.9014Z" fill="#383A41"/>
<path d="M15.384 19.5816L15.0995 19.7663H15.0588C15.0792 19.7663 15.1198 19.6637 15.1198 19.6432C15.1198 19.6432 15.1198 19.6226 15.1198 19.6021C15.1198 19.6021 15.1198 19.6021 15.0792 19.5816C15.0385 19.5816 15.0182 19.5816 15.0182 19.5816H14.9979C14.9979 19.5405 14.9775 19.52 14.9369 19.52C14.9166 19.52 14.8759 19.52 14.8759 19.5611C14.8759 19.5611 14.8759 19.5748 14.8759 19.6021V19.6432C14.8759 19.6432 14.8759 19.6432 14.8353 19.6226C14.8353 19.6226 14.815 19.6226 14.7946 19.6226C14.7946 19.6226 14.7946 19.6226 14.7946 19.6637C14.7946 19.6637 14.7946 19.7663 14.7946 19.8074C14.7946 19.8074 14.7743 19.8074 14.754 19.8074L14.5508 19.5405C14.5508 19.5405 14.4695 19.6637 14.5508 19.869C14.5508 19.869 14.5508 19.91 14.5711 19.91C14.6321 19.9921 14.7337 20.0947 14.7743 20.1358C14.754 20.1563 14.7134 20.2179 14.693 20.2384C14.693 20.2384 14.693 20.2384 14.693 20.259C14.693 20.2795 14.754 20.3 14.8353 20.3205C14.9166 20.3205 14.9572 20.3205 14.9775 20.3205C14.9775 20.3205 14.9775 20.3205 14.9775 20.3C14.9775 20.3 14.9369 20.2179 14.9369 20.1974C14.9979 20.1769 15.1401 20.1153 15.2214 20.0537C15.2214 20.0537 15.2621 20.0332 15.2621 20.0126C15.384 19.8484 15.384 19.7458 15.3637 19.7048L15.384 19.5816Z" fill="#383A41"/>
<path d="M25.8701 16.7083C25.8701 16.7083 25.7888 16.5646 25.7278 16.5236C25.6669 16.4825 25.5856 16.4825 25.5043 16.503H25.484C25.1385 16.6057 24.793 16.7083 24.4475 16.7904C24.2443 16.8315 24.0818 16.8725 23.9192 16.9136C23.7363 16.9546 23.5737 16.9751 23.3908 17.0162C23.0047 17.0573 22.6389 17.0983 22.2934 17.1394C22.0495 17.1599 21.8057 17.1804 21.5821 17.1804H21.5212H21.6025C21.6228 17.1804 21.6634 17.1804 21.6837 17.1599C21.7854 17.1394 21.887 17.0983 21.9886 17.0778C22.1715 17.0162 22.3747 16.9546 22.5779 16.8725C22.9437 16.7288 23.3095 16.5852 23.716 16.4004C24.0614 16.2567 24.4679 16.072 24.8337 15.8257C25.1182 15.641 25.484 15.3741 25.8091 15.0457C25.9107 14.9431 25.9311 14.7994 25.8498 14.6968C25.8295 14.6352 25.7685 14.6147 25.7278 14.5736C25.6466 14.5326 25.5449 14.5326 25.4433 14.5736C25.1385 14.7583 24.793 14.9636 24.4272 15.1278C24.0818 15.292 23.7566 15.4562 23.3908 15.5794C23.0047 15.7231 22.6186 15.8462 22.2731 15.9283C22.0699 15.9899 21.887 16.031 21.7244 16.072H21.6025C21.7041 16.031 21.7854 15.9899 21.8666 15.9488C22.0495 15.8667 22.2324 15.7641 22.456 15.641C22.8015 15.4357 23.1673 15.2099 23.5534 14.9431C23.8379 14.7583 24.2443 14.471 24.5898 14.122C24.8337 13.8757 25.1588 13.5268 25.4433 13.1163C25.5246 13.0136 25.5043 12.8494 25.423 12.7468C25.4027 12.7263 25.362 12.6852 25.3214 12.6852C25.2198 12.6442 25.0979 12.6442 24.9962 12.7263C24.6508 13.0547 24.3459 13.3215 24.0818 13.5268C23.7566 13.7731 23.4518 14.0194 23.1063 14.2247C23.0656 14.2452 23.025 14.2657 22.9844 14.2862C22.964 14.2862 22.9234 14.3068 22.9031 14.3273C22.5576 14.5326 22.2731 14.6762 22.0292 14.7994C21.9886 14.8199 21.9276 14.8404 21.887 14.861H21.8666C21.765 14.9225 21.6431 14.9636 21.5415 15.0047H21.4805L21.5415 14.9841C21.5415 14.9841 21.5618 14.9841 21.5821 14.9636C21.6837 14.8815 21.8057 14.7994 21.9479 14.6762C21.9479 14.6762 22.0699 14.5736 22.1308 14.512C22.4357 14.2452 22.7608 13.9578 23.1063 13.5884C23.4924 13.1984 23.7769 12.8494 24.0005 12.521C24.2037 12.2131 24.4679 11.7821 24.6711 11.2895C24.7321 11.1663 24.6711 11.0226 24.5695 10.9405C24.5085 10.8995 24.4272 10.8789 24.3459 10.8995C24.2646 10.8995 24.2037 10.961 24.163 11.0226C23.8785 11.4331 23.6347 11.7615 23.3908 12.0489C23.3095 12.1515 23.2282 12.2542 23.1469 12.3363C22.9844 12.521 22.7811 12.7673 22.5373 12.9726C22.4357 13.0547 22.3544 13.1368 22.2528 13.2189L22.2121 13.2599C21.9886 13.4652 21.7854 13.6089 21.6025 13.7526H21.5618L21.6025 13.7115C21.6228 13.6705 21.6634 13.6499 21.6837 13.6089C21.8463 13.4036 21.9886 13.1573 22.1512 12.8905C22.2528 12.7263 22.3544 12.5415 22.456 12.3773C22.6389 12.0694 22.8015 11.7821 22.9234 11.4742C22.9844 11.3305 23.0453 11.1868 23.086 11.0637C23.2689 10.53 23.3908 10.0784 23.4518 9.64737C23.4518 9.50369 23.3908 9.38053 23.2689 9.33948C23.1266 9.27791 22.9437 9.36001 22.9031 9.52422C22.7811 9.89368 22.6389 10.2426 22.456 10.6121C22.456 10.6326 22.4357 10.6531 22.4153 10.6942C22.4153 10.7352 22.395 10.7558 22.3747 10.7968C22.2121 11.1252 22.0089 11.5358 21.7854 11.9052C21.7854 11.9052 21.7854 11.9052 21.7854 11.9258C21.7854 11.9258 21.7854 11.9463 21.765 11.9668C21.6025 12.1926 21.4399 12.4389 21.2367 12.6852C20.6676 13.3215 19.7328 13.9373 19.2451 14.1836C19.1232 14.2452 19.0012 14.3273 18.8793 14.3889C18.7574 14.4505 18.6354 14.5326 18.5135 14.5941C18.3306 14.6762 18.1883 14.8199 18.1071 14.9841C18.1071 15.0252 18.0664 15.0662 18.0461 15.1278C18.0258 15.2099 18.0054 15.292 18.0054 15.3946C18.0054 15.7231 18.1883 16.031 18.4322 16.1746C18.5135 16.2157 18.6151 16.2567 18.7167 16.2567C18.7167 16.2567 18.7167 16.2567 18.737 16.2567C18.8183 16.2567 18.859 16.2157 18.8793 16.2157C18.8793 16.1746 18.8183 16.0104 18.9199 15.9283C18.9199 15.9283 18.9606 15.9078 18.9809 15.8873C19.0419 15.8667 19.0825 15.8462 19.1435 15.8462C19.2044 15.8462 19.2451 15.8462 19.3061 15.8873C19.4483 15.9488 19.5499 16.0925 19.5499 16.2567C19.5499 16.462 19.4077 16.6262 19.2044 16.6673C19.1232 16.7083 18.9606 16.7083 18.8387 16.7083C18.6354 16.7083 18.4119 16.6878 18.1883 16.6467C17.9038 16.5852 17.6396 16.503 17.3551 16.3799C17.1722 16.2978 16.8877 16.1131 16.7861 16.031C16.7252 15.9899 16.4813 15.8257 16.461 15.7846C15.8513 15.2099 15.4855 14.4299 15.4652 13.6089V13.5678C15.4652 13.5473 15.4652 13.5268 15.4652 13.5063C15.4652 13.3831 15.4652 13.2599 15.4855 13.1368C15.5058 12.9315 15.5465 12.7263 15.6278 12.521C15.7497 12.1721 15.9326 11.8231 16.1561 11.5563C16.1765 11.5358 16.2781 11.4126 16.4203 11.2895C16.4203 11.2895 16.4203 11.2894 16.4406 11.2689C16.6235 11.0842 16.7861 10.9405 16.9081 10.8584C16.9081 10.8584 16.8877 10.8584 16.8674 10.8174L16.8268 10.7763C16.6032 10.7558 16.4813 10.6737 16.4 10.5095C16.4 10.4684 16.4 10.3453 16.4 10.3247C16.4203 10.2221 16.4813 10.1195 16.5423 10.0784C16.5626 10.0579 16.5829 10.0168 16.6235 9.99631C16.7048 9.93474 16.7861 9.89368 16.9081 9.87316C16.9284 9.87316 16.9487 9.87316 16.9893 9.87316C17.2738 9.85263 17.4974 9.97579 17.599 10.2221C17.599 10.2221 17.4567 10.2632 17.4364 10.2632C17.3958 10.1605 17.3145 10.1195 17.2129 10.1195C17.2129 10.1195 17.2129 10.1195 17.1926 10.1195C17.1519 10.1195 17.1316 10.1195 17.091 10.14C17.0706 10.14 17.0503 10.1605 17.03 10.181C16.969 10.2426 16.9487 10.3453 16.969 10.4479C17.0097 10.5505 17.091 10.6737 17.2332 10.6942C17.2738 10.6942 17.3145 10.6942 17.3348 10.6942C17.4364 10.6531 18.0664 10.5095 18.4525 10.4479C18.5338 10.4479 18.5948 10.4479 18.6354 10.4274C18.6354 10.4274 18.6761 10.14 18.6151 9.91421C18.5541 9.75 18.4322 9.50369 18.168 9.40106C17.7209 9.21633 17.3348 9.1958 17.0097 9.1958C16.7048 9.1958 16.4203 9.21633 16.1358 9.29843C15.0181 9.54474 14.3271 10.2016 13.7175 11.6179C13.3517 12.3157 13.1891 13.0136 13.1078 13.342C13.1078 13.4036 13.0875 13.4652 13.0672 13.4857H13.0062C13.0062 13.4447 13.0062 13.4036 12.9656 13.342C12.8843 13.0136 12.7217 12.3157 12.3762 11.6179C11.7462 10.2016 11.0756 9.54474 9.93758 9.29843C9.65307 9.23685 9.36856 9.1958 9.06373 9.1958C8.73857 9.1958 8.35246 9.21633 7.90537 9.40106C7.62086 9.52422 7.49893 9.75 7.45828 9.91421C7.377 10.1605 7.39732 10.3658 7.43796 10.4274C7.47861 10.4274 7.53957 10.4274 7.62086 10.4479C8.00698 10.5095 8.63696 10.6531 8.73858 10.6942C8.73858 10.6942 8.81986 10.6942 8.84019 10.6942C8.98244 10.6942 9.08405 10.53 9.10437 10.3863C9.10437 10.2632 9.08405 10.181 8.98244 10.14C8.9418 10.14 8.92147 10.1195 8.88083 10.1195C8.88083 10.1195 8.88083 10.1195 8.86051 10.1195C8.7589 10.1195 8.69793 10.181 8.65729 10.2632C8.576 10.2632 8.49471 10.2221 8.49471 10.2221C8.59632 9.97579 8.81986 9.83211 9.10437 9.87316C9.12469 9.87316 9.16534 9.87316 9.18566 9.87316C9.20598 9.87316 9.22631 9.87316 9.26695 9.89368H9.30759C9.34824 9.89368 9.4092 9.93474 9.42953 9.95526C9.42953 9.95526 9.44985 9.97579 9.47017 9.99631C9.47017 9.99631 9.51081 10.0168 9.53114 10.0374C9.57178 10.0784 9.65307 10.181 9.67339 10.2837C9.67339 10.2837 9.67339 10.4274 9.67339 10.4684C9.61243 10.6326 9.47017 10.7147 9.24663 10.7352C9.24663 10.7352 9.22631 10.7763 9.20598 10.7763C9.20598 10.7763 9.18566 10.7968 9.16534 10.8174C9.32792 10.92 9.53114 11.1047 9.65307 11.2484C9.775 11.3716 9.87661 11.4947 9.91726 11.5152C10.1408 11.8026 10.3237 12.131 10.4456 12.5005C10.5066 12.7057 10.5676 12.911 10.5879 13.1163C10.5879 13.2394 10.6082 13.3831 10.6082 13.4857C10.6082 13.5063 10.6082 13.5268 10.6082 13.5473V13.5884C10.6082 13.6499 10.6082 13.732 10.6082 13.7936C10.5472 14.1015 10.3847 14.7173 10.0798 15.2099C10.0798 15.2099 10.0595 15.251 10.0392 15.2715C9.91726 15.4767 9.79532 15.6204 9.65307 15.7436C9.63275 15.7846 9.38888 15.9694 9.32792 15.9899C9.22631 16.072 8.96212 16.2362 8.7589 16.3388C8.49471 16.462 8.2102 16.5646 7.92569 16.6057C7.70215 16.6467 7.47861 16.6673 7.27538 16.6673C7.15345 16.6673 6.99088 16.6673 6.90959 16.6262C6.70637 16.6057 6.56411 16.4209 6.56411 16.2157C6.56411 16.0515 6.66572 15.9078 6.80798 15.8462C6.84862 15.8257 6.90959 15.8052 6.97055 15.8052C7.03152 15.8052 7.09249 15.8052 7.13313 15.8462C7.15345 15.8462 7.17377 15.8462 7.1941 15.8873C7.29571 15.9694 7.25506 16.1336 7.23474 16.1746C7.23474 16.1746 7.29571 16.2157 7.377 16.2157C7.377 16.2157 7.377 16.2157 7.39732 16.2157C7.49893 16.2157 7.60054 16.1952 7.68183 16.1336C7.94601 15.9899 8.10859 15.682 8.10859 15.3536C8.10859 15.2715 8.10859 15.1894 8.06795 15.0868C8.06795 15.0252 8.0273 14.9841 8.00698 14.9431C7.92569 14.7789 7.78344 14.6557 7.60054 14.5531C7.47861 14.4915 7.35667 14.4094 7.23474 14.3478C7.11281 14.2862 6.99088 14.2041 6.86894 14.1426C6.38121 13.8962 5.4464 13.2805 4.87738 12.6442C4.69448 12.3979 4.51158 12.1515 4.349 11.9258C4.349 11.9258 4.349 11.9052 4.32868 11.8847C4.32868 11.8847 4.32868 11.8847 4.32868 11.8642C4.08482 11.4947 3.90192 11.0842 3.73934 10.7558C3.73934 10.7147 3.71902 10.6942 3.6987 10.6531C3.6987 10.6326 3.67838 10.6121 3.65805 10.571C3.49548 10.2016 3.3329 9.85263 3.21097 9.50369C3.15 9.33948 2.98742 9.25738 2.84517 9.31896C2.72324 9.36001 2.64195 9.50369 2.66227 9.62685C2.72324 10.0784 2.84517 10.5095 3.02807 11.0431C3.06871 11.1663 3.12968 11.31 3.19065 11.4537C3.31258 11.741 3.47515 12.0489 3.65805 12.3568C3.75966 12.521 3.86127 12.6852 3.96288 12.87C4.12546 13.1368 4.28804 13.3626 4.43029 13.5884C4.45061 13.6294 4.47094 13.6499 4.51158 13.691L4.55223 13.7526H4.51158C4.32868 13.5884 4.12546 13.4242 3.90192 13.2394L3.86127 13.1984C3.86127 13.1984 3.67838 13.0342 3.57677 12.9521C3.3329 12.7468 3.12968 12.5005 2.9671 12.3157C2.88581 12.2336 2.80453 12.131 2.72324 12.0284C2.47937 11.741 2.21519 11.4126 1.951 11.0226C1.951 11.0226 1.84939 10.8995 1.7681 10.8995C1.68681 10.8995 1.62584 10.8995 1.54456 10.9405C1.44295 11.0226 1.4023 11.1663 1.44295 11.2895C1.64617 11.7821 1.91035 12.1926 2.11357 12.521C2.33712 12.8494 2.62163 13.1984 3.00775 13.5884C3.37354 13.9578 3.67838 14.2452 3.98321 14.512C4.04417 14.5531 4.10514 14.6147 4.16611 14.6557C4.30836 14.7789 4.40997 14.861 4.5319 14.9431C4.5319 14.9431 4.55223 14.9431 4.57255 14.9636L4.65384 15.0047H4.59287C4.49126 14.9431 4.36933 14.8815 4.26772 14.8404H4.24739C4.24739 14.8404 4.14578 14.7789 4.10514 14.7583C3.84095 14.6352 3.55644 14.4915 3.23129 14.2862C3.21097 14.2862 3.17032 14.2657 3.15 14.2452C3.10936 14.2247 3.06871 14.2041 3.02807 14.1836C2.68259 13.9784 2.35744 13.732 2.05261 13.4857C1.78842 13.2805 1.48359 13.0342 1.13811 12.7057C1.13811 12.7057 0.934894 12.6031 0.812961 12.6442C0.772317 12.6442 0.751995 12.6852 0.711351 12.7057C0.630063 12.8084 0.60974 12.9521 0.691029 13.0752C0.975538 13.4857 1.30069 13.8347 1.54456 14.081C1.89003 14.4299 2.29647 14.7173 2.58098 14.902C2.9671 15.1689 3.3329 15.3946 3.67838 15.5999C3.8816 15.7231 4.08482 15.8257 4.26772 15.9078C4.349 15.9488 4.45061 15.9899 4.5319 16.031H4.40997C4.24739 15.9899 4.0645 15.9488 3.86127 15.8873C3.5158 15.7846 3.15 15.6615 2.74356 15.5383C2.37776 15.4152 2.05261 15.251 1.70713 15.0868C1.36166 14.902 0.99586 14.7173 0.691029 14.5326C0.691029 14.5326 0.50813 14.471 0.40652 14.5326C0.345553 14.5531 0.304909 14.5941 0.284587 14.6557C0.223621 14.7789 0.243943 14.9225 0.325231 15.0047C0.670707 15.3331 1.0365 15.5999 1.30069 15.7846C1.66649 16.031 2.07293 16.2157 2.41841 16.3594C2.82485 16.5441 3.19065 16.6878 3.55644 16.8315C3.75966 16.9136 3.96288 16.9751 4.14578 17.0367C4.24739 17.0778 4.349 17.0983 4.45061 17.1188C4.47094 17.1188 4.51158 17.1188 4.5319 17.1394H4.61319H4.55223C4.32868 17.1394 4.08482 17.1188 3.84095 17.0983C3.47515 17.0573 3.10936 17.0162 2.74356 16.9751C2.56066 16.9546 2.37776 16.9136 2.21519 16.8725C2.05261 16.8315 1.89003 16.7904 1.68681 16.7494C1.34134 16.6673 0.99586 16.5646 0.650385 16.462H0.630063C0.630063 16.462 0.467486 16.4415 0.40652 16.462C0.345553 16.503 0.284587 16.5646 0.264265 16.6467C0.223621 16.7699 0.264265 16.9136 0.386198 16.9751C0.772317 17.2215 1.15844 17.3857 1.46327 17.4883C1.82907 17.632 2.23551 17.7141 2.60131 17.7962C2.7842 17.8372 2.9671 17.8783 3.15 17.8988C3.17032 17.8988 3.19065 17.8988 3.21097 17.8988C3.39387 17.9399 3.55644 17.9604 3.73934 18.0014C4.02385 18.0425 4.38965 18.1041 4.77577 18.1451C4.59287 18.1657 4.349 18.1862 4.12546 18.2272C3.75966 18.2683 3.39387 18.2888 3.06871 18.3093C2.98742 18.3093 2.92646 18.3093 2.84517 18.3093H2.80453H2.56066H2.05261C1.7681 18.3093 1.48359 18.2888 1.19908 18.2683C1.13811 18.2683 1.07715 18.2683 1.01618 18.2683C0.955216 18.2683 0.914572 18.2683 0.873928 18.3093C0.792639 18.3504 0.731673 18.453 0.731673 18.5556C0.731673 18.6788 0.812961 18.802 0.934894 18.843C1.23973 18.9456 1.56488 19.0277 2.03229 19.1098C2.21519 19.1304 2.39808 19.1509 2.60131 19.1714C2.68259 19.1714 2.7842 19.1714 2.88581 19.1714H3.15C3.5158 19.1714 3.8816 19.1714 4.24739 19.1714H4.28804C4.49126 19.1714 4.57255 19.1714 4.79609 19.1714L4.83673 19.2946C4.40997 19.4383 4.12546 19.5204 3.71902 19.623C3.43451 19.7051 3.15 19.7667 2.86549 19.8283H2.76388C2.56066 19.8898 2.37776 19.9309 2.17454 19.9719C2.05261 19.9925 1.93068 20.013 1.78842 20.054C1.78842 20.054 1.74778 20.054 1.72746 20.0746C1.60552 20.1361 1.52423 20.2593 1.56488 20.403C1.5852 20.5261 1.68681 20.6288 1.82907 20.6288C2.21519 20.6698 2.58098 20.6288 2.88581 20.6288C3.17032 20.6288 3.45483 20.5467 3.73934 20.5056C3.80031 20.5056 3.86127 20.4851 3.92224 20.4646C4.12546 20.4235 4.40997 20.3619 4.67416 20.3004C4.83673 20.2593 4.97899 20.2388 5.10092 20.1977L5.12124 20.3004C5.12124 20.3004 4.87738 20.444 4.75545 20.5056C4.67416 20.5467 4.59287 20.5877 4.55223 20.6288C4.40997 20.7109 4.26772 20.793 4.12546 20.8546C4.08482 20.8751 4.02385 20.8956 3.98321 20.9161C3.90192 20.9572 3.80031 20.9982 3.6987 21.0598C3.59709 21.1214 3.47515 21.183 3.37354 21.224C3.21097 21.3061 3.02807 21.4088 2.86549 21.4909C2.72324 21.573 2.66227 21.7577 2.74356 21.9014C2.80453 22.0245 2.92646 22.0656 3.04839 22.0451C3.37354 21.9835 3.6987 21.8809 4.00353 21.7782C4.24739 21.6961 4.49126 21.5935 4.7148 21.4909C4.77577 21.4703 4.85706 21.4293 4.91802 21.4088C4.95867 21.4088 5.03996 21.3677 5.12124 21.3267C5.22285 21.2856 5.34479 21.224 5.38543 21.2035L5.4464 21.4498L5.22285 21.614L4.87738 21.9219C4.65384 22.1272 4.45061 22.3324 4.24739 22.5787C4.18643 22.6403 4.16611 22.7224 4.18643 22.8045C4.18643 22.8866 4.22707 22.9482 4.28804 23.0098C4.36933 23.0919 4.51158 23.1124 4.61319 23.0508C4.87738 22.9072 5.14157 22.7429 5.38543 22.5582L5.64962 22.394C5.64962 22.394 5.79187 23.2766 5.83252 23.6461C5.89348 24.1387 5.91381 24.6519 5.93413 25.1034C5.95445 25.6782 5.97477 26.1092 6.03574 26.1913C6.11703 26.2939 6.23896 26.2939 6.38121 26.2939C6.40154 26.2939 6.42186 26.2939 6.44218 26.2939C6.44218 26.2939 6.48282 26.2939 6.50315 26.2939C6.50315 26.2734 6.50315 26.2529 6.50315 26.2118C6.50315 26.2118 6.50315 26.1913 6.50315 26.1708C6.36089 25.514 6.58443 25.0624 6.66572 24.9392V24.8982C6.62508 24.1182 6.52347 22.9893 6.38121 22.1477C6.11703 20.6698 5.66994 18.2683 5.58865 17.7962C5.58865 17.7551 5.58865 17.7141 5.6293 17.6936C5.64962 17.673 5.69026 17.6525 5.73091 17.673C6.17799 17.7962 6.92991 17.8578 7.33635 17.8783C7.49893 17.8783 8.3931 17.9399 9.32792 17.632C8.96212 18.5146 8.7589 19.4998 8.7589 20.4851C8.7589 22.4351 9.49049 24.2619 10.7301 25.3908C10.5879 25.4113 10.4863 25.4318 10.466 25.4524C10.2018 25.555 9.99854 25.6782 9.85629 25.7603C9.83597 25.7603 9.81565 25.7808 9.79532 25.8013C9.75468 25.8218 9.75468 25.8629 9.75468 25.9245C9.79532 26.0682 9.85629 26.2529 9.93758 26.3555C9.93758 26.376 9.97822 26.3966 9.99854 26.3966C11.0553 26.4581 11.9088 26.5197 12.5794 26.9508C12.5794 26.9508 12.5794 26.9508 12.5998 26.9713C12.5998 26.9713 12.5998 26.9713 12.6201 26.9713C12.9249 27.2176 13.0672 27.7308 12.803 28.1002C12.7217 28.1823 12.6404 28.2644 12.5388 28.3671C12.2137 28.6339 11.8885 28.8597 11.5633 29.0239C11.2382 29.1881 10.8724 29.2907 10.4863 29.3523C10.3847 29.3523 10.2831 29.3934 10.1611 29.4139C9.87661 29.4549 9.5921 29.5165 9.24663 29.5986C9.24663 29.5986 9.22631 29.5986 9.20598 29.5986C9.16534 29.6192 9.14502 29.6807 9.16534 29.7218C9.16534 29.7218 9.16534 29.7628 9.18566 29.7628C9.49049 30.0912 9.93758 30.276 10.4456 30.276C10.4863 30.276 10.5269 30.276 10.5676 30.276C10.9334 30.2555 11.2992 30.1528 11.665 29.9681C11.7666 29.9065 11.8885 29.8449 11.9901 29.7834C12.4169 29.5165 12.7827 29.1676 13.0469 28.7776V28.7365V28.7981C12.9859 29.0444 12.7827 29.5986 12.6201 29.7834C12.6201 29.8039 12.5794 29.8244 12.5591 29.8449C12.4169 30.0091 12.2746 30.1734 12.112 30.317C11.9698 30.4197 11.8275 30.5223 11.6853 30.6044C11.6243 30.6249 11.5837 30.6454 11.5227 30.666C11.2992 30.7686 11.035 30.8302 10.7505 30.8918C10.7505 30.8918 10.7301 30.8918 10.7098 30.8918C10.6692 30.9123 10.6489 30.9533 10.6692 30.9944C10.6692 31.0149 10.6692 31.0354 10.7098 31.056C10.974 31.2407 11.2992 31.3433 11.665 31.3228C11.8479 31.3228 12.0104 31.2612 12.173 31.1996C12.3356 31.1381 12.4982 31.0354 12.6201 30.9328C12.6607 30.9123 12.6811 30.8712 12.7217 30.8507C12.7217 30.8507 12.7217 30.8302 12.742 30.8097C12.742 30.8302 12.7623 30.8712 12.7827 30.8918C12.8436 31.0149 12.9046 31.1586 12.9656 31.2818C12.9859 31.3433 13.0062 31.3844 13.0265 31.446C13.0672 31.5691 13.1281 31.7128 13.2094 31.836C13.2094 31.877 13.2704 31.8975 13.2907 31.8975C13.2907 31.8975 13.372 31.877 13.372 31.836C13.4533 31.6923 13.5143 31.5486 13.5752 31.3844C13.5752 31.3433 13.5956 31.3023 13.6159 31.2818C13.6565 31.1586 13.7378 31.0149 13.7988 30.8918C13.7988 30.8712 13.8191 30.8302 13.8394 30.8097C13.8394 30.8097 13.8394 30.8097 13.8597 30.8302C13.8801 30.8712 13.9207 30.8918 13.9614 30.9123C14.1036 31.0354 14.2459 31.1175 14.4084 31.1791C14.571 31.2407 14.7539 31.2818 14.9165 31.3023C14.9571 31.3023 14.9775 31.3023 15.0181 31.3023C15.3229 31.3023 15.6278 31.2202 15.8716 31.0354C15.8919 31.0354 15.9123 30.9944 15.9123 30.9739C15.9123 30.9328 15.9123 30.8918 15.8716 30.8712C15.8716 30.8712 15.8513 30.8712 15.831 30.8712C15.5465 30.8097 15.2823 30.7481 15.0587 30.6454C14.9978 30.6249 14.9571 30.6044 14.8962 30.5839C14.7539 30.5018 14.6117 30.4197 14.4694 30.2965C14.3068 30.1734 14.1646 30.0091 14.0223 29.8244C14.0223 29.8039 13.9817 29.7834 13.9614 29.7628C13.7988 29.5781 13.5956 29.0239 13.5346 28.7776V28.716V28.7571C13.7988 29.1676 14.1646 29.496 14.5913 29.7628C14.6929 29.8244 14.8149 29.886 14.9165 29.9476C15.2823 30.1118 15.6481 30.2144 16.0139 30.2555C16.0545 30.2555 16.0952 30.2555 16.1358 30.2555C16.6439 30.2555 17.091 30.0707 17.3958 29.7423L17.4161 29.7013C17.4161 29.6602 17.4161 29.6191 17.3755 29.5781C17.3755 29.5781 17.3551 29.5781 17.3348 29.5781C16.9893 29.496 16.7048 29.4549 16.4203 29.3934C16.3187 29.3934 16.2171 29.3523 16.0952 29.3318C15.7091 29.2702 15.3433 29.1676 15.0181 29.0034C14.6726 28.8392 14.3475 28.6134 14.0426 28.3465C13.941 28.2439 13.8597 28.1618 13.7785 28.0797C13.5143 27.7102 13.6565 27.1971 13.9614 26.9508C13.9614 26.9508 13.9614 26.9508 13.9817 26.9508C13.9817 26.9508 13.9817 26.9508 14.002 26.9302C14.6726 26.4992 15.5465 26.4171 16.5829 26.3555C16.6032 26.3555 16.6235 26.335 16.6439 26.3145C16.7252 26.2118 16.8064 26.0271 16.8268 25.8834C16.8268 25.8218 16.8268 25.7808 16.7861 25.7603C16.7861 25.7603 16.7455 25.7397 16.7252 25.7192C16.5829 25.6371 16.3594 25.514 16.0952 25.4113C16.0748 25.4113 15.9732 25.3908 15.831 25.3703C17.0706 24.2619 17.8022 22.4145 17.8022 20.4646C17.8022 19.4793 17.599 18.4941 17.2332 17.6115C18.168 17.8988 19.0622 17.8578 19.2248 17.8578C19.6312 17.8372 20.3628 17.7757 20.8302 17.6525C20.8709 17.6525 20.9115 17.6525 20.9318 17.673C20.9521 17.6936 20.9725 17.7346 20.9725 17.7757C20.8099 18.6377 20.4035 20.7725 20.1799 22.1272C20.0377 22.9687 19.936 24.0977 19.8954 24.8776V24.9187C19.9767 25.0419 20.2002 25.4934 20.058 26.1503C20.058 26.1503 20.058 26.1708 20.058 26.1913C20.058 26.2118 20.058 26.2324 20.058 26.2734C20.0783 26.2734 20.1189 26.2734 20.1393 26.2734H20.1799C20.3222 26.2734 20.4441 26.2734 20.5254 26.1708C20.5864 26.0887 20.6067 25.6371 20.627 25.0829C20.627 24.6313 20.6676 24.1182 20.7286 23.6256C20.7692 23.3177 20.8709 22.5993 20.9115 22.394L21.1757 22.5377C21.4196 22.7224 21.6837 22.8866 21.9479 23.0303C22.0495 23.0919 22.1918 23.0714 22.2731 22.9893C22.3341 22.9277 22.3747 22.8661 22.3747 22.784C22.3747 22.7019 22.3747 22.6198 22.3137 22.5582C22.1105 22.3119 21.887 22.0861 21.6837 21.9014L21.3383 21.5935C21.3383 21.5935 21.1554 21.4703 21.1147 21.4293L21.1757 21.1624C21.1757 21.1624 21.3383 21.2445 21.4602 21.2856C21.5415 21.3267 21.6228 21.3472 21.6634 21.3677C21.7244 21.3882 21.8057 21.4293 21.8666 21.4498C22.0902 21.5524 22.334 21.6551 22.5779 21.7372C22.8827 21.8398 23.1876 21.9219 23.5331 22.004C23.655 22.0245 23.7769 21.963 23.8379 21.8603C23.8785 21.7987 23.8785 21.7166 23.8582 21.6345C23.8379 21.5524 23.7769 21.4909 23.716 21.4703C23.5534 21.3677 23.3705 21.2856 23.2079 21.2035C23.1063 21.1419 22.9844 21.1009 22.8827 21.0393C22.7811 20.9982 22.6998 20.9367 22.5982 20.8956C22.5576 20.8751 22.4966 20.8546 22.456 20.834C22.3341 20.7725 22.1918 20.6903 22.0292 20.6082C21.9683 20.5877 21.9073 20.5467 21.826 20.4851C21.6837 20.403 21.5415 20.3209 21.4602 20.2798V20.1977H21.5008C21.6228 20.2183 21.765 20.2593 21.9276 20.3004C22.1918 20.3619 22.456 20.4235 22.6795 20.4646C22.7405 20.4646 22.8015 20.4851 22.8624 20.5056C23.1469 20.5672 23.4314 20.6082 23.716 20.6288C24.0208 20.6288 24.3866 20.6698 24.7727 20.6288C24.8946 20.6288 24.9962 20.5261 25.0369 20.403C25.0572 20.2593 24.9962 20.1361 24.8743 20.0746C24.854 20.0746 24.8337 20.0746 24.8133 20.0746C24.6914 20.054 24.5695 20.013 24.4272 19.9925C24.224 19.9514 24.0208 19.9104 23.8379 19.8693H23.7363C23.4518 19.7872 23.1673 19.7256 22.8827 19.6435C22.4763 19.5204 22.1918 19.4383 21.765 19.3151L21.8057 19.192C22.0495 19.192 22.1105 19.192 22.3137 19.192H22.3544C22.7202 19.192 23.086 19.192 23.4518 19.192H23.716C23.716 19.192 23.8989 19.192 24.0005 19.192C24.1834 19.192 24.3866 19.1714 24.5695 19.1304C25.0166 19.0483 25.3417 18.9867 25.6669 18.8635C25.7888 18.8225 25.8701 18.6993 25.8701 18.5762C25.8701 18.4735 25.8091 18.3914 25.7278 18.3299C25.6872 18.3093 25.6262 18.2888 25.5856 18.2888C25.5856 18.2888 25.4637 18.2888 25.4027 18.2888C25.1182 18.2888 24.8337 18.3299 24.5492 18.3299H24.0411H23.7972H23.7566C23.7566 18.3299 23.6143 18.3299 23.5331 18.3299C23.2079 18.3093 22.8421 18.2888 22.4763 18.2478C22.2324 18.2272 22.0089 18.2067 21.826 18.1657C22.2121 18.1246 22.5576 18.063 22.8624 18.022C23.0453 18.0014 23.2079 17.9604 23.3908 17.9193C23.4111 17.9193 23.4314 17.9193 23.4518 17.9193C23.6347 17.8783 23.8176 17.8372 24.0005 17.8167C24.3866 17.7346 24.7727 17.6525 25.1385 17.5088C25.4433 17.3857 25.8294 17.2215 26.2156 16.9957C26.3172 16.9341 26.3781 16.7904 26.3375 16.6673L25.8701 16.7083ZM12.9452 25.8834C12.3153 25.8834 11.665 25.6576 11.1163 25.2471C10.5676 24.8571 10.1002 24.2824 9.75468 23.605C10.0798 23.0508 10.7505 21.8398 10.7708 21.8193C10.8318 22.0656 11.2179 23.7077 11.2179 23.7282C11.2179 23.7282 10.9334 23.8513 10.913 23.9745C10.913 24.0156 10.913 24.0361 10.974 24.0771C11.2179 24.2208 11.7259 24.1182 11.7259 24.1182C11.7259 24.1182 11.8682 24.2413 11.9901 24.344C12.1527 24.4671 12.3559 24.5698 12.5591 24.6313C12.6404 24.6519 12.6811 24.6724 12.7014 24.6724C12.7014 24.6724 12.6607 24.8982 12.7217 25.0213C12.742 25.0624 12.7827 25.1034 12.864 25.1034C12.8843 25.1034 12.9046 25.1034 12.9452 25.1034C13.0469 25.0624 13.1281 24.9803 13.1485 24.9598C13.2298 24.8776 13.2704 24.8161 13.311 24.7545C13.3314 24.7134 13.3517 24.6929 13.372 24.6519C13.372 24.6519 13.372 24.6519 13.372 24.6313C13.5752 24.5698 13.7785 24.5082 13.9614 24.2619C13.433 24.0566 13.0672 23.564 12.9249 22.8866C12.864 22.6198 12.8436 22.3119 12.8233 22.0245C12.8233 21.6961 12.8436 21.3472 12.9046 21.0188C12.9046 21.0188 12.9046 21.0188 12.9046 20.9982C13.1281 19.7872 13.8597 18.8841 14.0833 18.802C14.0833 18.7609 14.063 18.7404 14.0426 18.6788C14.002 18.4941 13.941 18.2067 13.5346 18.0425C13.5143 18.0425 13.4533 18.022 13.4127 18.0014C13.2704 17.9604 13.0672 17.9193 13.0469 17.7962C13.2094 17.673 13.3314 17.4678 13.3517 17.2215C13.3923 16.893 13.2501 16.5852 13.0265 16.4825C13.0672 16.3594 13.1891 16.2157 13.2094 16.1952L12.9656 15.9283H12.9249L12.6404 16.1131C12.6404 16.1541 12.7217 16.3594 12.7217 16.4825C12.4778 16.5646 12.3356 16.7494 12.2949 17.0367C12.2949 17.1804 12.3559 17.4267 12.5388 17.5909C12.6607 17.7141 12.6404 17.7962 12.5998 17.8372C12.5388 17.8988 12.4575 17.9193 12.3762 17.9399C12.2543 17.9809 12.1527 18.022 12.0714 18.1246C11.9901 18.2478 11.8885 18.5351 11.8885 18.5351C11.8885 18.5762 11.8275 18.6788 11.7666 18.802C11.6243 19.1304 11.4008 19.664 11.2585 19.8898C11.2179 19.9719 11.035 20.2593 11.035 20.2593C11.035 20.2593 10.9537 20.3209 10.8724 20.3825C10.7708 20.4646 10.7098 20.5261 10.6692 20.5672C10.5269 20.7314 10.5879 21.0598 10.6692 21.2035L9.57178 23.2356C9.57178 23.2356 9.51081 23.0919 9.51081 23.0714C9.18566 22.2914 9.02308 21.4088 9.02308 20.5261C9.02308 17.7141 10.6489 15.3946 12.7217 15.2304H13.1891C13.4127 15.2304 13.6362 15.292 13.8597 15.3741C13.9614 15.4152 14.0833 15.4562 14.1849 15.4973C14.9571 15.8462 15.6278 16.503 16.1155 17.4062C16.6032 18.3299 16.8674 19.3972 16.8674 20.5467C16.8674 23.4819 15.0994 25.8629 12.9452 25.8629V25.8834ZM12.5388 20.1156C12.5388 20.1156 11.7666 20.403 11.4211 20.5467L12.173 19.2125C12.173 19.2125 12.234 19.4177 12.4982 19.5409C12.4982 19.5819 12.5185 19.9104 12.5388 20.0951V20.1156Z" fill="#383A41"/>
<path d="M11.3396 27.5666C11.3396 27.5666 11.4818 27.5255 11.5631 27.4845C11.6241 27.4434 11.7257 27.4024 11.7663 27.2997C11.7663 27.2587 11.7663 27.2176 11.7257 27.1971C11.7257 27.1971 11.4412 27.1355 11.3192 27.115L10.9534 27.0124C10.6689 26.9303 10.4454 26.8892 10.2015 26.8482C10.0999 26.8482 9.97798 26.8276 9.85604 26.8276C9.67315 26.8276 9.46992 26.8482 9.2667 26.9303C9.22606 26.9303 9.18542 26.9713 9.14477 26.9918C8.83994 27.1561 8.65704 27.4229 8.63672 27.6897C8.63672 27.7513 8.67736 27.7924 8.71801 27.7924C8.71801 27.7924 8.75865 27.7924 8.77897 27.7924H8.81962C8.81962 27.7924 8.92123 27.7103 8.96187 27.6897C9.10413 27.6282 9.24638 27.5871 9.40896 27.5871C9.59186 27.5871 9.79508 27.5871 10.0593 27.6487C10.3438 27.6897 10.6283 27.7103 10.8925 27.6897C11.0347 27.6897 11.177 27.6487 11.3192 27.6076L11.3396 27.5666Z" fill="#383A41"/>
<path d="M15.1199 18.6786C14.9573 18.6581 14.7947 18.6786 14.6321 18.7402C14.6321 18.7402 14.6321 18.7402 14.6118 18.7402C14.4899 18.8018 14.3679 18.8839 14.246 18.9865C13.7583 19.4175 13.3722 20.1975 13.2096 21.1007C13.0673 21.9422 13.1283 22.7838 13.4128 23.338C13.5957 23.7075 13.8599 23.9332 14.1647 23.9743C14.2054 23.9743 14.246 23.9743 14.2866 23.9743C14.5508 23.9743 14.815 23.8511 15.0792 23.6048C15.5466 23.1738 15.9124 22.3938 16.075 21.5522C16.2376 20.6696 16.1563 19.8281 15.8514 19.2738C15.6685 18.9249 15.4247 18.7402 15.1199 18.6786ZM15.1605 22.7633C15.1605 22.7633 15.0792 22.7222 15.0792 22.6812C15.0792 22.6401 15.1199 22.5991 15.1605 22.5991C15.2011 22.5991 15.2418 22.6401 15.2418 22.6812C15.2418 22.7222 15.2011 22.7633 15.1605 22.7633ZM15.7498 21.0391V21.1007C15.7498 21.1212 15.7498 21.1622 15.7498 21.1828C15.7498 21.2443 15.7498 21.3059 15.7498 21.3264C15.7295 21.5112 15.6482 21.9012 15.4247 22.4348C15.4247 22.4964 15.384 22.558 15.3434 22.6196C15.3434 22.5785 15.3434 22.558 15.3231 22.5375C15.3028 22.4964 15.2621 22.4759 15.2215 22.4554C15.2215 22.4554 15.1808 22.4554 15.1605 22.4554L15.1402 22.4143L15.0182 22.517L15.0589 22.558C15.0589 22.558 15.0386 22.7017 15.0589 22.7633C15.0792 22.8043 15.1199 22.8248 15.1605 22.8454C15.1605 22.8454 15.1808 22.8454 15.2011 22.8454H15.2215C14.9776 23.2354 14.6321 23.5022 14.3476 23.5022H14.307C14.1037 23.4817 14.0021 23.379 13.9208 23.2764C13.7583 23.0917 13.7176 22.9685 13.6973 22.8864C13.6973 22.8864 13.6973 22.8659 13.6973 22.8454C13.677 22.7633 13.6567 22.7017 13.6567 22.6196C13.677 22.6401 13.7176 22.6606 13.738 22.6606C13.7786 22.6606 13.7989 22.6606 13.8396 22.6401C13.8396 22.6401 13.8396 22.6401 13.8599 22.6401C13.9005 22.5991 13.9412 22.517 13.9208 22.4554L14.3273 22.0654C14.3273 22.0654 14.3883 22.0038 14.3883 21.9628V21.8806V21.8396C14.3883 21.8396 14.3476 21.8396 14.3273 21.8396L13.8192 22.3322C13.8192 22.3322 13.7989 22.3322 13.7786 22.3322C13.7583 22.3322 13.738 22.3322 13.7176 22.3322C13.6973 22.3322 13.677 22.3322 13.6567 22.3733C13.6567 22.3733 13.6567 22.3938 13.6363 22.4143C13.5957 21.9217 13.6363 21.5522 13.6973 21.1622C13.6973 21.1212 13.7176 21.0186 13.738 20.957C13.738 20.957 13.738 20.8133 13.7786 20.7722C13.9615 20.1565 14.2054 19.8075 14.2054 19.8075C14.3679 19.5612 14.5508 19.397 14.7337 19.2944C14.8963 19.2123 15.0792 19.2123 15.2621 19.2944C15.3637 19.3354 15.445 19.397 15.506 19.4996C15.506 19.4996 15.506 19.5202 15.5263 19.5407C15.5263 19.5407 15.5466 19.6023 15.5669 19.6228C15.6279 19.7459 15.6685 19.8896 15.7092 20.0538C15.7092 20.0538 15.7092 20.0949 15.7092 20.1154C15.7702 20.5875 15.7702 20.6696 15.7702 21.1212L15.7498 21.0391ZM13.616 22.517C13.616 22.517 13.6567 22.4348 13.6973 22.4348C13.738 22.4348 13.7786 22.4759 13.7786 22.517C13.7786 22.558 13.738 22.5991 13.6973 22.5991C13.6567 22.5991 13.616 22.558 13.616 22.517Z" fill="#383A41"/>
<path d="M13.7381 27.7306V27.8127C13.7381 27.8332 13.7381 27.8537 13.7584 27.8948C13.7584 27.8948 13.8194 28.0179 13.86 28.059C13.9413 28.1616 14.0226 28.2437 14.1242 28.3053C14.2055 28.3669 14.3071 28.4285 14.429 28.49C14.5103 28.5311 14.6119 28.5721 14.7339 28.6337C14.9574 28.7158 15.1606 28.7774 15.3435 28.839C15.5468 28.9006 15.75 28.9416 15.9735 28.9621C16.1361 28.9827 16.319 29.0032 16.4816 29.0237C16.7254 29.0442 16.949 29.0648 17.1319 29.1058C17.1929 29.1058 17.579 29.27 17.7619 29.5574C17.7619 29.5574 17.8025 29.5984 17.8228 29.5984C17.8635 29.619 17.9244 29.5984 17.9651 29.5779C18.0667 29.4753 18.1073 29.3727 18.148 29.2084C18.1683 29.1058 18.1683 28.9416 18.087 28.7364C18.0261 28.5927 17.9041 28.449 17.7415 28.3464C17.7009 28.3258 17.6806 28.3053 17.6399 28.2848C17.5383 28.2437 17.4367 28.2027 17.3351 28.1821C17.0912 28.1206 16.8677 28.1206 16.6645 28.1H16.0548C15.8719 28.1 15.6687 28.1 15.4655 28.059C15.2826 28.059 15.059 28.0179 14.8761 27.9974C14.6729 27.9769 14.49 27.9358 14.3274 27.8948C14.2461 27.8743 14.1649 27.8332 14.0836 27.7922C14.0023 27.7511 13.9413 27.6895 13.8803 27.6279C13.8803 27.6279 13.86 27.6074 13.8397 27.6074C13.8397 27.6074 13.7991 27.6074 13.7787 27.6074C13.7584 27.6074 13.7381 27.6279 13.7178 27.6485C13.7178 27.669 13.7178 27.6895 13.7178 27.7306H13.7381Z" fill="#383A41"/>
<path d="M11.7866 27.8126C11.7866 27.8126 11.6241 27.8742 11.5428 27.9153C11.3802 27.9563 11.177 27.9974 10.9941 28.0179C10.8112 28.0384 10.608 28.059 10.4047 28.0795C10.2015 28.0795 9.9983 28.1 9.8154 28.1205H9.20574C9.00252 28.1616 8.77898 28.1616 8.53511 28.2232C8.4335 28.2437 8.33189 28.2847 8.23028 28.3258C8.18964 28.3258 8.14899 28.3668 8.12867 28.3874C7.96609 28.49 7.84416 28.6337 7.78319 28.7774C7.70191 28.9621 7.70191 29.1263 7.72223 29.2495C7.76287 29.3931 7.82384 29.5163 7.90513 29.6189C7.94577 29.66 8.00674 29.66 8.04738 29.6395C8.04738 29.6395 8.08803 29.5984 8.10835 29.5984C8.29125 29.311 8.67737 29.1468 8.73833 29.1468C8.92123 29.1058 9.14477 29.0853 9.38864 29.0647C9.55122 29.0647 9.73411 29.0237 9.89669 29.0032C10.1406 28.9621 10.3438 28.921 10.5267 28.88C10.7299 28.8184 10.9128 28.7568 11.1363 28.6747C11.2583 28.6337 11.3599 28.5926 11.4412 28.5311C11.5631 28.4695 11.6444 28.4079 11.746 28.3463C11.8476 28.2847 11.9289 28.1821 12.0102 28.1C12.0508 28.059 12.0712 27.9974 12.1118 27.9358C12.1118 27.9358 12.1321 27.8742 12.1321 27.8537V27.7716C12.1321 27.7716 12.1524 27.71 12.1321 27.6895C12.1321 27.669 12.0915 27.6484 12.0712 27.6484C12.0712 27.6484 12.0712 27.6484 12.0508 27.6484C12.0508 27.6484 12.0305 27.6484 12.0102 27.6484C12.0102 27.6484 11.9695 27.6484 11.9695 27.669C11.9086 27.7305 11.8476 27.7921 11.7663 27.8332L11.7866 27.8126Z" fill="#383A41"/>
<path d="M15.8516 27.5871C16.1157 27.546 16.319 27.5255 16.5019 27.5255C16.6644 27.5255 16.827 27.5666 16.949 27.6282C17.0099 27.6487 17.0506 27.6897 17.0912 27.7103H17.1115C17.1115 27.7103 17.1522 27.7308 17.1725 27.7308C17.2335 27.7308 17.2741 27.6897 17.2538 27.6282C17.2538 27.3408 17.0506 27.074 16.7457 26.9303C16.7051 26.9097 16.6644 26.8892 16.6238 26.8687C16.2783 26.725 15.9328 26.7455 15.689 26.7866C15.4451 26.8276 15.2216 26.8687 14.9371 26.9508L14.5713 27.0534C14.4493 27.0945 14.1648 27.1355 14.1648 27.1355C14.1242 27.1355 14.1039 27.1971 14.1242 27.2382C14.1648 27.3408 14.2664 27.3818 14.3274 27.4229C14.3274 27.4229 14.4697 27.4845 14.5509 27.505C14.7135 27.546 14.8558 27.5666 14.9777 27.5871C15.2419 27.6076 15.5264 27.5871 15.8109 27.546L15.8516 27.5871Z" fill="#383A41"/>
<path d="M19.0625 24.898C19.0625 24.898 18.9812 24.857 18.9202 24.8365C18.8593 24.8159 18.778 24.7954 18.717 24.7954C18.717 24.7954 18.717 24.7954 18.6967 24.7954C18.6967 24.7954 18.6967 24.7954 18.656 24.7954C19.2251 25.4728 18.8999 26.0475 18.656 26.3349C18.656 26.3349 18.4935 26.3554 18.4122 26.3554C18.4122 26.3554 18.3919 26.3554 18.3715 26.3554C18.4325 26.2938 18.4935 26.2117 18.5341 26.1501C18.5951 26.0475 18.6154 25.9243 18.6154 25.8012C18.6154 25.5138 18.4325 25.2265 18.148 25.0828C18.1074 25.0828 18.0667 25.0417 18.0261 25.0212C17.9448 24.9801 17.8635 24.9801 17.7822 24.9801C17.7822 24.9801 17.7619 24.9801 17.7416 24.9801C18.2496 25.7601 17.9854 26.1912 17.6603 26.417C17.6399 26.417 17.5993 26.417 17.5587 26.417C17.4977 26.417 17.4367 26.417 17.4164 26.417H17.3961C17.3961 26.417 17.579 26.2528 17.5993 26.027C17.5993 25.9038 17.5993 25.8012 17.4977 25.7191C17.4367 25.637 17.3554 25.5754 17.2741 25.5549C17.1929 25.5138 17.0912 25.5138 17.01 25.5138C17.1522 25.6986 17.2132 25.8628 17.1725 26.0064C17.1116 26.2938 16.7254 26.4785 16.6035 26.5401C16.6442 26.5401 16.6848 26.5606 16.7458 26.5812C16.8067 26.5812 16.8474 26.6222 16.8474 26.6222C17.4367 26.7659 19.0422 26.9712 19.3876 26.1091C19.4283 26.0064 19.4689 25.8012 19.4689 25.6575C19.4689 25.3907 19.3267 25.0417 19.0218 24.857L19.0625 24.898Z" fill="#383A41"/>
<path d="M14.0218 15.8257L13.5544 16.0309L13.4121 16.4415C13.4121 16.4415 13.4324 16.4825 13.4528 16.503C13.4934 16.5646 13.5544 16.6467 13.5747 16.7699C13.6153 16.7288 13.8592 16.4825 14.0014 16.2978V15.8462L14.0218 15.8257Z" fill="#383A41"/>
<path d="M14.5707 20.6698L14.4894 20.7314C14.4894 20.7314 14.4284 20.6288 14.4081 20.6083C14.3268 20.5056 14.2252 20.4646 14.1439 20.4851C14.1033 20.4851 14.083 20.5056 14.0626 20.5262C14.022 20.5467 13.9814 20.5672 13.9001 20.5467C13.9001 20.6083 13.8594 20.6493 13.8188 20.6904C13.8188 20.6904 13.7985 20.7109 13.7781 20.7314C13.7781 20.7314 13.7781 20.752 13.7781 20.7725C13.7781 20.793 13.7781 20.8135 13.7578 20.8546V20.9162V20.9572C13.7578 20.9572 13.7578 21.0393 13.7781 21.0598C13.7781 21.0804 13.8594 21.2035 13.8594 21.2035L13.7578 21.2446L14.1033 21.3472C14.1033 21.3472 14.0626 21.1214 14.0626 21.0804L13.9814 21.1419C13.9814 21.1419 13.9407 21.0804 13.9204 21.0393C13.8797 20.9777 13.8594 20.9367 13.8797 20.8751C13.8797 20.8341 13.961 20.8341 13.9814 20.8341L14.4081 21.4909C14.4081 21.4909 14.4284 21.5114 14.4488 21.5114C14.4488 21.5114 14.4488 21.5114 14.4691 21.5114C14.5097 21.4293 14.5097 21.3472 14.4894 21.3267L14.1236 20.7519C14.1236 20.7519 14.1846 20.6904 14.2252 20.6698C14.2862 20.6698 14.3065 20.6698 14.3675 20.7314C14.3878 20.752 14.4284 20.793 14.4488 20.8135L14.3472 20.8546C14.4691 20.9367 14.5301 20.9777 14.5707 21.0188L14.6317 20.6904L14.5707 20.6698Z" fill="#383A41"/>
<path d="M17.0503 25.5137V25.4932L17.0303 25.4727L17.0503 25.4932L17.0703 25.5137H17.0503Z" fill="#383A41"/>
<path d="M131.159 5.25488H127.887V20.0336H120.144V5.25488H116.872V23.0509H129.248H130.874V26.0272H133.983V20.0336H131.159V5.25488Z" fill="#383A41"/>
<path d="M147.071 12.1103C146.522 11.4329 145.831 10.8993 144.998 10.5298C144.164 10.1603 143.23 9.95508 142.173 9.95508C141.197 9.95508 140.303 10.1193 139.49 10.4477C138.677 10.7761 137.946 11.2482 137.357 11.8435C136.747 12.4387 136.279 13.1571 135.954 13.9782C135.609 14.7992 135.446 15.7024 135.446 16.6876C135.446 18.0218 135.731 19.1918 136.32 20.1975C136.889 21.2033 137.702 21.9833 138.738 22.558C139.775 23.1122 140.974 23.3996 142.335 23.3996C142.925 23.3996 143.555 23.338 144.205 23.2149C144.855 23.0917 145.465 22.907 146.054 22.6607C146.644 22.4143 147.131 22.1475 147.518 21.8191L146.38 19.5407C145.811 19.9512 145.201 20.2796 144.53 20.4849C143.86 20.6902 143.169 20.7928 142.457 20.7928C141.645 20.7928 140.933 20.6491 140.344 20.3617C139.734 20.0744 139.287 19.6844 138.962 19.1918C138.637 18.6991 138.474 18.1039 138.495 17.4471H148.33C148.493 16.3797 148.473 15.3945 148.249 14.4708C148.026 13.5471 147.64 12.7671 147.091 12.0693L147.071 12.1103ZM138.657 15.1687C138.759 14.3066 139.104 13.6498 139.734 13.1571C140.364 12.6645 141.136 12.4182 142.092 12.4182C143.047 12.4182 143.799 12.6645 144.327 13.1571C144.855 13.6498 145.14 14.3066 145.16 15.1687H138.637H138.657Z" fill="#383A41"/>
<path d="M159.67 15.1278H153.879V10.3452H150.647V23.0508H153.879V17.7756H159.67V23.0508H162.902V10.3452H159.67V15.1278Z" fill="#383A41"/>
<path d="M165.34 12.9931H169.303V23.0508H172.534V12.9931H176.497V10.3452H165.34V12.9931Z" fill="#383A41"/>
<path d="M189.259 10.8172C188.304 10.2424 187.227 9.95508 186.008 9.95508C184.931 9.95508 183.996 10.1398 183.244 10.5298C182.472 10.8993 181.862 11.4124 181.374 12.0282V10.3451H178.509V27.4022H181.72V21.6549C182.228 22.2091 182.837 22.6401 183.528 22.948C184.219 23.2559 185.032 23.4201 185.947 23.4201C186.861 23.4201 187.735 23.2559 188.507 22.907C189.28 22.558 189.95 22.0859 190.519 21.4702C191.088 20.8544 191.515 20.136 191.82 19.3355C192.125 18.5144 192.287 17.6523 192.287 16.7081C192.287 15.3945 192.023 14.2245 191.474 13.2187C190.926 12.2129 190.194 11.4124 189.239 10.8377L189.259 10.8172ZM188.629 18.7607C188.324 19.3355 187.877 19.787 187.329 20.1154C186.78 20.4439 186.15 20.5875 185.439 20.5875C184.727 20.5875 184.097 20.4233 183.528 20.1154C182.98 19.8075 182.533 19.356 182.228 18.7607C181.923 18.186 181.76 17.4881 181.76 16.6876C181.76 15.8871 181.923 15.2097 182.248 14.6145C182.573 14.0397 183 13.5882 183.549 13.2598C184.097 12.9519 184.727 12.7877 185.439 12.7877C186.15 12.7877 186.78 12.9519 187.329 13.2598C187.877 13.5677 188.324 14.0192 188.629 14.6145C188.954 15.1892 189.117 15.8871 189.117 16.6876C189.117 17.4881 188.954 18.1655 188.65 18.7607H188.629Z" fill="#383A41"/>
<path d="M201.676 17.7347V5.25488H198.425V23.0509H201.595L209.866 10.489V23.0509H213.118V5.25488H209.907L201.676 17.7347Z" fill="#383A41"/>
<path d="M219.56 17.7347V5.25488H216.288V23.0509H219.479L227.75 10.489V23.0509H231.001V5.25488H227.79L219.56 17.7347Z" fill="#383A41"/>
<path d="M249.474 19.8282C248.661 20.095 247.828 20.2182 246.974 20.2182C245.714 20.2182 244.637 19.9718 243.723 19.4998C242.808 19.0071 242.097 18.3298 241.609 17.4266C241.121 16.5235 240.857 15.4356 240.857 14.163C240.857 13.2393 241 12.3978 241.264 11.6383C241.548 10.8994 241.934 10.2631 242.463 9.72938C242.991 9.19571 243.621 8.80572 244.353 8.51835C245.084 8.23099 245.917 8.08731 246.852 8.08731C247.706 8.08731 248.498 8.21046 249.23 8.4773C249.941 8.72361 250.571 9.11361 251.1 9.62675L252.786 6.91733C252.014 6.28102 251.161 5.76787 250.165 5.41893C249.189 5.06999 247.99 4.88525 246.608 4.88525C245.227 4.88525 244.048 5.11104 242.93 5.56261C241.812 6.01418 240.837 6.65049 240.004 7.49205C239.191 8.33362 238.541 9.31887 238.093 10.4478C237.646 11.5767 237.423 12.8288 237.423 14.1835C237.423 16.0514 237.809 17.6935 238.581 19.0687C239.353 20.4645 240.41 21.5318 241.792 22.2913C243.174 23.0507 244.759 23.4202 246.588 23.4202C247.99 23.4202 249.25 23.2355 250.348 22.866C251.445 22.4965 252.421 21.9834 253.254 21.3266L251.73 18.535C251.018 19.1098 250.246 19.5203 249.454 19.7871L249.474 19.8282Z" fill="#383A41"/>
<path d="M256.099 23.0509H259.37V8.29273H267.357V23.0509H270.649V5.25488H256.099V23.0509Z" fill="#383A41"/>
<path d="M284.651 11.6177C283.736 11.0635 282.7 10.7762 281.521 10.7762C280.526 10.7762 279.652 10.9609 278.9 11.3509C278.148 11.7409 277.498 12.254 276.969 12.9109C277.05 12.0488 277.213 11.2893 277.457 10.653C277.701 10.0167 278.107 9.50355 278.636 9.11355C279.164 8.70303 279.896 8.41567 280.81 8.23094L286.663 7.14306L286.155 4.39258L280.119 5.58308C279.001 5.80887 278.046 6.17834 277.254 6.69149C276.461 7.20464 275.831 7.88199 275.343 8.68251C274.856 9.50355 274.51 10.4477 274.266 11.5561C274.043 12.6645 273.921 13.9166 273.921 15.3329C273.921 16.6055 274.083 17.7345 274.409 18.7402C274.734 19.746 275.201 20.5876 275.811 21.2855C276.421 21.9833 277.152 22.517 278.006 22.8865C278.859 23.256 279.814 23.4407 280.891 23.4407C281.887 23.4407 282.802 23.2765 283.594 22.9481C284.407 22.6196 285.098 22.1475 285.687 21.5523C286.277 20.957 286.724 20.2592 287.049 19.4586C287.354 18.6787 287.516 17.8371 287.516 16.9339C287.516 15.805 287.252 14.7787 286.744 13.8551C286.216 12.9314 285.504 12.1924 284.59 11.6382L284.651 11.6177ZM283.919 18.8839C283.615 19.4176 283.208 19.8486 282.68 20.136C282.151 20.4234 281.562 20.5876 280.912 20.5876C280.261 20.5876 279.631 20.4439 279.103 20.136C278.575 19.8486 278.168 19.4176 277.863 18.8839C277.559 18.3502 277.416 17.6934 277.416 16.9545C277.416 16.2155 277.559 15.5587 277.863 15.025C278.168 14.4914 278.575 14.0603 279.103 13.7729C279.631 13.4856 280.221 13.3214 280.912 13.3214C281.603 13.3214 282.172 13.4651 282.7 13.7729C283.228 14.0603 283.635 14.4914 283.94 15.025C284.245 15.5587 284.387 16.2155 284.387 16.9545C284.387 17.6934 284.245 18.3502 283.94 18.8839H283.919Z" fill="#383A41"/>
<path d="M290.707 23.0509H293.999V8.29273H300.97V5.25488H290.707V23.0509Z" fill="#383A41"/>
<path d="M314.2 5.25488L310.501 13.0137L306.477 5.25488H302.494L308.631 16.5647C308.408 16.8931 308.205 17.201 307.961 17.4678C307.31 18.2478 306.599 18.8431 305.786 19.3152C304.973 19.7667 304.059 20.1157 303.043 20.3415L304.282 23.3588C305.177 23.1946 306.01 22.9278 306.782 22.5788C307.554 22.2299 308.266 21.7578 308.936 21.1625C309.607 20.5673 310.257 19.8283 310.887 18.9457C311.517 18.0631 312.127 17.0163 312.716 15.7847L317.98 5.25488H314.179H314.2Z" fill="#383A41"/>
<path d="M54.646 15.3739V24.8364C54.646 25.0211 54.5444 25.2059 54.3818 25.3085L49.0777 28.4079C48.7322 28.6132 48.2852 28.3463 48.2852 27.9358V18.4733C48.2852 18.2886 48.3868 18.1039 48.5493 18.0012L53.8534 14.9018C54.1989 14.6966 54.646 14.9634 54.646 15.3739Z" fill="#383A41"/>
<path d="M62.6528 6.48622V20.0949C62.6528 20.2797 62.5512 20.4644 62.3886 20.567L57.0846 23.6665C56.7391 23.8717 56.292 23.6049 56.292 23.1944V9.58564C56.292 9.40091 56.3936 9.21617 56.5562 9.11354L61.8602 6.01412C62.2057 5.80886 62.6528 6.0757 62.6528 6.48622Z" fill="#383A41"/>
<path d="M77.0615 12.1511L70.7007 15.8663V8.43591L64.3398 4.7207V18.9452C64.3398 19.3352 64.5431 19.6841 64.8682 19.8689L70.1723 22.9683C70.4974 23.153 70.9039 23.153 71.229 22.9683L77.0615 19.561L83.4223 15.8458L77.0615 12.1306V12.1511Z" fill="#BF3D3D"/>
<path d="M76.2689 5.19284L70.7007 8.43594L64.3398 4.72074L70.4365 1.16975C70.599 1.06712 70.8023 1.06712 70.9648 1.16975L76.2689 4.26917C76.6144 4.47443 76.6144 4.98758 76.2689 5.19284Z" fill="#383A41"/>
<path d="M89.2753 11.8434L83.9712 8.74402C83.6461 8.55929 83.2396 8.55929 82.9145 8.74402L77.082 12.1513L83.4428 15.8665V23.2969L77.8746 26.54C77.5291 26.7453 77.5291 27.2585 77.8746 27.4637L83.4428 30.7068L89.8037 26.9916V12.7671C89.8037 12.3771 89.6004 12.0282 89.2753 11.8434Z" fill="#383A41"/>
<path d="M83.4426 23.2764V30.7068L77.8743 27.4637C77.5289 27.2584 77.5289 26.7453 77.8743 26.54L83.4426 23.2969V23.2764Z" fill="#BF3D3D"/>
<path d="M97.5259 8.49746V22.1062C97.5259 22.2909 97.4242 22.4757 97.2617 22.5783L91.9576 25.6777C91.6121 25.883 91.165 25.6367 91.165 25.2056V11.5764C91.165 11.3916 91.2667 11.2069 91.4292 11.1043L96.7333 8.00484C97.0788 7.79958 97.5259 8.06642 97.5259 8.47694V8.49746Z" fill="#383A41"/>
<path d="M105.268 8.49745V17.5084C105.268 17.6931 105.166 17.8778 105.004 17.9804L99.6998 21.0799C99.3543 21.2851 98.9072 21.0183 98.9072 20.6078V11.5969C98.9072 11.4121 99.0088 11.2274 99.1714 11.1248L104.475 8.02535C104.821 7.82009 105.268 8.08693 105.268 8.49745Z" fill="#383A41"/>
</g>
<defs>
<clipPath id="clip0_1_685">
<rect width="318" height="32" fill="white"/>
</clipPath>
</defs>
</svg>
