<svg width="486" height="95" viewBox="0 0 486 95" fill="none" xmlns="http://www.w3.org/2000/svg">
<path d="M107.266 28.3014C105.901 28.3014 104.844 28.8131 104.095 29.8398C103.346 30.8632 102.973 32.2932 102.973 34.123C102.973 37.9352 104.403 39.8395 107.266 39.8395C108.462 39.8395 109.915 39.5413 111.623 38.9382V41.9777C110.22 42.5606 108.655 42.8554 106.924 42.8554C104.44 42.8554 102.54 42.0997 101.222 40.5952C99.9071 39.0839 99.2498 36.922 99.2498 34.0993C99.2498 32.3237 99.5717 30.7649 100.219 29.4264C100.869 28.0913 101.794 27.0646 103.011 26.353C104.22 25.638 105.636 25.2822 107.269 25.2822C108.902 25.2822 110.593 25.6854 112.27 26.4851L111.101 29.4298C110.461 29.1249 109.821 28.8605 109.17 28.6335C108.526 28.4065 107.889 28.2947 107.266 28.2947V28.3014Z" fill="#383A41"/>
<path d="M123.278 42.6216L122.587 40.846H122.492C121.892 41.6016 121.276 42.1235 120.642 42.4183C120.005 42.7097 119.179 42.8554 118.159 42.8554C116.902 42.8554 115.916 42.4962 115.194 41.7812C114.472 41.0628 114.113 40.0429 114.113 38.7179C114.113 37.393 114.598 36.3086 115.567 35.6479C116.539 34.9905 117.999 34.6245 119.958 34.5567L122.224 34.4856V33.9129C122.224 32.588 121.547 31.9272 120.192 31.9272C119.145 31.9272 117.918 32.2423 116.509 32.8726L115.33 30.4633C116.831 29.6738 118.501 29.2841 120.33 29.2841C122.16 29.2841 123.424 29.6636 124.359 30.4295C125.294 31.1953 125.762 32.3542 125.762 33.9129V42.6216H123.275H123.278ZM122.228 36.5662L120.849 36.6136C119.812 36.6441 119.04 36.8305 118.535 37.1761C118.027 37.5184 117.772 38.0402 117.772 38.7416C117.772 39.7481 118.352 40.2496 119.504 40.2496C120.33 40.2496 120.991 40.0124 121.486 39.538C121.98 39.0636 122.228 38.4333 122.228 37.6437V36.5662Z" fill="#383A41"/>
<path d="M133.002 29.5518V34.5771H137.982V29.5518H141.543V42.6216H137.982V37.2337H133.002V42.6216H129.434V29.5518H133.002Z" fill="#383A41"/>
<path d="M153.856 29.5518H157.782L152.602 35.8173L158.236 42.6216H154.191L148.851 35.9935V42.6216H145.284V29.5518H148.851V35.8986L153.856 29.5518Z" fill="#383A41"/>
<path d="M170.918 29.5518V32.2288H166.639V42.6216H163.071V32.2288H158.785V29.5518H170.918Z" fill="#383A41"/>
<path d="M171.714 37.6641V34.7431H177.989V37.6641H171.714Z" fill="#383A41"/>
<path d="M190.765 42.6216V28.5488H184.477V42.6216H180.855V25.533H194.377V42.6216H190.765Z" fill="#383A41"/>
<path d="M204.321 42.8554C202.217 42.8554 200.571 42.2759 199.388 41.1137C198.202 39.9514 197.613 38.3079 197.613 36.1799C197.613 34.0518 198.158 32.2966 199.253 31.1004C200.347 29.9042 201.861 29.3044 203.793 29.3044C205.724 29.3044 207.079 29.8297 208.109 30.8835C209.139 31.9374 209.651 33.3911 209.651 35.2446V36.9762H201.221C201.262 37.9894 201.563 38.7823 202.122 39.3482C202.685 39.9175 203.467 40.2021 204.484 40.2021C205.27 40.2021 206.012 40.1208 206.713 39.9581C207.414 39.7955 208.15 39.5312 208.912 39.1754V41.9337C208.289 42.2454 207.621 42.4759 206.916 42.6317C206.205 42.7808 205.341 42.8588 204.321 42.8588V42.8554ZM203.816 31.8459C203.064 31.8459 202.471 32.0865 202.041 32.5643C201.614 33.0454 201.367 33.7232 201.306 34.6042H206.307C206.286 33.7232 206.059 33.0454 205.615 32.5643C205.172 32.0865 204.572 31.8459 203.816 31.8459Z" fill="#383A41"/>
<path d="M223.359 29.5518V32.2288H219.08V42.6216H215.519V32.2288H211.226V29.5518H223.359Z" fill="#383A41"/>
<path d="M231.47 42.8554C229.366 42.8554 227.726 42.2759 226.537 41.1137C225.354 39.9514 224.761 38.3079 224.761 36.1799C224.761 34.0518 225.307 32.2966 226.408 31.1004C227.502 29.9042 229.014 29.3044 230.948 29.3044C232.883 29.3044 234.231 29.8297 235.258 30.8835C236.288 31.9374 236.799 33.3911 236.799 35.2446V36.9762H228.373C228.41 37.9894 228.709 38.7823 229.271 39.3482C229.833 39.9175 230.623 40.2021 231.633 40.2021C232.422 40.2021 233.167 40.1208 233.869 39.9581C234.57 39.7955 235.298 39.5312 236.068 39.1754V41.9337C235.441 42.2454 234.777 42.4759 234.065 42.6317C233.36 42.7808 232.493 42.8588 231.47 42.8588V42.8554ZM230.972 31.8459C230.213 31.8459 229.62 32.0865 229.197 32.5643C228.766 33.0454 228.522 33.7232 228.458 34.6042H233.459C233.445 33.7232 233.215 33.0454 232.771 32.5643C232.327 32.0865 231.724 31.8459 230.972 31.8459Z" fill="#383A41"/>
<path d="M246.876 42.8554C245.341 42.8554 244.135 42.2997 243.267 41.1848H243.081C243.203 42.2759 243.267 42.9062 243.267 43.079V48.3754H239.7V29.5552H242.6L243.105 31.2495H243.267C244.101 29.9551 245.334 29.3078 246.97 29.3078C248.512 29.3078 249.725 29.9042 250.592 31.097C251.466 32.2898 251.9 33.9434 251.9 36.0647C251.9 37.4608 251.7 38.6705 251.287 39.7006C250.88 40.7307 250.298 41.5135 249.539 42.0489C248.786 42.5877 247.899 42.8554 246.872 42.8554H246.876ZM245.825 32.161C244.948 32.161 244.301 32.4321 243.897 32.9743C243.491 33.5131 243.281 34.411 243.267 35.6546V36.0409C243.267 37.4438 243.474 38.4502 243.894 39.0568C244.311 39.6633 244.968 39.9683 245.873 39.9683C247.472 39.9683 248.271 38.6502 248.271 36.0172C248.271 34.733 248.075 33.7672 247.682 33.1234C247.286 32.4829 246.669 32.161 245.825 32.161Z" fill="#383A41"/>
<path d="M254.051 34.7906C254.051 31.7917 254.621 29.5145 255.766 27.9558C256.908 26.4038 258.686 25.4177 261.109 25.0043C262.288 24.801 264.046 24.5435 266.384 24.2317L266.791 27.3425C265.781 27.4577 263.982 27.7084 261.404 28.0913C260.421 28.2472 259.689 28.481 259.205 28.7928C258.72 29.1045 258.358 29.5484 258.124 30.1245C257.887 30.7005 257.734 31.4698 257.684 32.4287H257.856C258.273 31.7917 258.815 31.3003 259.493 30.9547C260.17 30.6124 260.899 30.4396 261.681 30.4396C263.294 30.4396 264.548 30.9344 265.446 31.9204C266.34 32.9065 266.787 34.3162 266.787 36.1562C266.787 38.2774 266.222 39.9209 265.09 41.0933C263.955 42.2658 262.386 42.852 260.397 42.852C258.409 42.852 256.843 42.137 255.725 40.707C254.607 39.277 254.048 37.3015 254.048 34.7838L254.051 34.7906ZM260.611 39.9683C262.298 39.9683 263.145 38.8026 263.145 36.4747C263.145 34.1467 262.383 33.0726 260.855 33.0726C260.435 33.0726 260.018 33.1708 259.601 33.364C259.181 33.5571 258.802 33.8147 258.456 34.1298C258.104 34.4483 257.853 34.7635 257.69 35.082C257.69 36.6644 257.941 37.8742 258.449 38.7111C258.957 39.5515 259.679 39.9683 260.614 39.9683H260.611Z" fill="#383A41"/>
<path d="M267.868 29.5518H271.771L274.241 36.905C274.451 37.5421 274.597 38.3011 274.671 39.172H274.743C274.831 38.3689 274.997 37.6132 275.247 36.905L277.663 29.5518H281.488L275.959 44.2921C275.454 45.6544 274.729 46.6777 273.794 47.3554C272.855 48.0331 271.754 48.372 270.504 48.372C269.887 48.372 269.284 48.3076 268.691 48.1721V45.3426C269.122 45.4443 269.589 45.4951 270.094 45.4951C270.724 45.4951 271.277 45.3019 271.751 44.919C272.222 44.5293 272.591 43.9499 272.855 43.1705L273.065 42.5267L267.875 29.5518H267.868Z" fill="#383A41"/>
<path d="M290.531 42.8554C288.993 42.8554 287.79 42.2997 286.916 41.1848H286.73C286.855 42.2759 286.916 42.9062 286.916 43.079V48.3754H283.355V29.5552H286.255L286.757 31.2495H286.919C287.756 29.9551 288.99 29.3078 290.626 29.3078C292.168 29.3078 293.374 29.9042 294.248 31.097C295.119 32.2898 295.556 33.9434 295.556 36.0647C295.556 37.4608 295.349 38.6705 294.942 39.7006C294.532 40.7307 293.946 41.5135 293.194 42.0489C292.435 42.5877 291.547 42.8554 290.531 42.8554ZM289.481 32.161C288.596 32.161 287.956 32.4321 287.55 32.9743C287.146 33.5131 286.936 34.411 286.919 35.6546V36.0409C286.919 37.4438 287.129 38.4502 287.546 39.0568C287.963 39.6633 288.62 39.9683 289.528 39.9683C291.124 39.9683 291.92 38.6502 291.92 36.0172C291.92 34.733 291.724 33.7672 291.331 33.1234C290.938 32.4829 290.321 32.161 289.481 32.161Z" fill="#383A41"/>
<path d="M307.526 29.5518V32.2288H302.064V42.6216H298.503V29.5518H307.526Z" fill="#383A41"/>
<path d="M315.017 42.8554C310.951 42.8554 308.915 40.6223 308.915 36.1562C308.915 33.9366 309.47 32.239 310.575 31.0631C311.683 29.8907 313.268 29.3044 315.335 29.3044C316.846 29.3044 318.202 29.6026 319.401 30.1923L318.351 32.9506C317.788 32.7235 317.266 32.5405 316.785 32.3948C316.297 32.2525 315.816 32.1814 315.335 32.1814C313.479 32.1814 312.554 33.4961 312.554 36.1324C312.554 38.7688 313.479 39.9683 315.335 39.9683C316.016 39.9683 316.653 39.8768 317.239 39.6938C317.826 39.5109 318.408 39.2262 318.991 38.8365V41.8862C318.415 42.2522 317.832 42.5064 317.246 42.6453C316.657 42.7842 315.915 42.8554 315.017 42.8554Z" fill="#383A41"/>
<path d="M330.585 29.5518H334.512L329.335 35.8173L334.969 42.6216H330.924L325.581 35.9935V42.6216H322.02V29.5518H325.581V35.8986L330.585 29.5518Z" fill="#383A41"/>
<path d="M340.285 29.5518V34.7194C340.285 35.265 340.197 36.5967 340.017 38.7179L346.048 29.5518H350.334V42.6216H346.889V37.4065C346.889 36.4781 346.963 35.1701 347.122 33.4792L341.115 42.6216H336.836V29.5518H340.285Z" fill="#383A41"/>
<path d="M357.527 29.5518V34.7194C357.527 35.265 357.439 36.5967 357.256 38.7179L363.287 29.5518H367.58V42.6216H364.13V37.4065C364.13 36.4781 364.208 35.1701 364.364 33.4792L358.357 42.6216H354.078V29.5518H357.527ZM366.526 23.9302C366.377 25.3872 365.828 26.4513 364.876 27.1154C363.927 27.783 362.558 28.1151 360.763 28.1151C358.967 28.1151 357.551 27.7931 356.667 27.1561C355.782 26.519 355.288 25.4415 355.176 23.9302H358.367C358.418 24.7333 358.621 25.2958 358.97 25.6177C359.316 25.943 359.939 26.1022 360.831 26.1022C361.62 26.1022 362.206 25.926 362.592 25.5702C362.975 25.2178 363.209 24.6689 363.297 23.9302H366.526Z" fill="#383A41"/>
<path d="M108.75 58.2802V60.9572H103.295V71.35H99.7275V58.2802H108.75Z" fill="#383A41"/>
<path d="M122.811 64.7931C122.811 66.9211 122.248 68.5849 121.127 69.7844C120.005 70.984 118.443 71.5838 116.438 71.5838C115.184 71.5838 114.076 71.3093 113.117 70.757C112.158 70.2114 111.423 69.4185 110.912 68.3917C110.4 67.365 110.139 66.162 110.139 64.7931C110.139 62.6583 110.695 60.9978 111.809 59.8118C112.927 58.6258 114.493 58.0362 116.509 58.0362C117.766 58.0362 118.87 58.3107 119.829 58.8529C120.788 59.3984 121.526 60.1812 122.041 61.2012C122.556 62.2211 122.814 63.4173 122.814 64.7897L122.811 64.7931ZM113.775 64.7931C113.775 66.0875 113.991 67.0668 114.415 67.7276C114.835 68.3883 115.526 68.7204 116.485 68.7204C117.444 68.7204 118.121 68.3917 118.538 67.7343C118.955 67.0736 119.165 66.0943 119.165 64.7931C119.165 63.4918 118.955 62.5295 118.535 61.8823C118.115 61.235 117.424 60.9131 116.465 60.9131C115.506 60.9131 114.828 61.235 114.408 61.8755C113.988 62.5193 113.778 63.4918 113.778 64.7931H113.775Z" fill="#383A41"/>
<path d="M131.064 71.5838C126.995 71.5838 124.962 69.3507 124.962 64.8846C124.962 62.665 125.514 60.9674 126.622 59.7915C127.727 58.6191 129.316 58.0328 131.376 58.0328C132.89 58.0328 134.245 58.331 135.441 58.9206L134.391 61.6789C133.829 61.4519 133.31 61.2689 132.826 61.1232C132.345 60.9809 131.864 60.9097 131.376 60.9097C129.526 60.9097 128.594 62.2245 128.594 64.8608C128.594 67.4971 129.526 68.6967 131.376 68.6967C132.063 68.6967 132.7 68.6052 133.283 68.4222C133.866 68.2392 134.452 67.9546 135.035 67.5649V70.6146C134.455 70.9806 133.876 71.2347 133.287 71.3737C132.697 71.5126 131.955 71.5838 131.061 71.5838H131.064Z" fill="#383A41"/>
<path d="M136.193 58.2802H140.097L142.566 65.6334C142.777 66.2705 142.922 67.0295 142.997 67.9004H143.068C143.156 67.0973 143.322 66.3416 143.573 65.6334L145.988 58.2802H149.814L144.284 73.0205C143.779 74.3827 143.054 75.4061 142.119 76.0838C141.181 76.7615 140.08 77.1004 138.829 77.1004C138.213 77.1004 137.61 77.036 137.017 76.9005V74.071C137.447 74.1727 137.915 74.2235 138.419 74.2235C139.05 74.2235 139.602 74.0303 140.073 73.6474C140.544 73.2577 140.913 72.6783 141.177 71.8989L141.387 71.2551L136.197 58.2802H136.193Z" fill="#383A41"/>
<path d="M161.662 76.0364V71.35H152.873V76.0364H149.671V68.7408H150.769C151.518 67.5785 152.145 66.1146 152.649 64.3458C153.158 62.5769 153.51 60.5539 153.717 58.2802H162.949V68.7408H164.867V76.0364H161.662ZM159.382 68.7441V60.9572H156.708C156.512 62.4075 156.244 63.7799 155.909 65.0845C155.567 66.3857 155.099 67.6056 154.496 68.7441H159.382Z" fill="#383A41"/>
<path d="M175.394 71.35L174.706 69.5743H174.611C174.008 70.33 173.391 70.8518 172.761 71.1466C172.124 71.4381 171.297 71.5838 170.274 71.5838C169.021 71.5838 168.035 71.2246 167.316 70.5096C166.591 69.7912 166.232 68.7712 166.232 67.4463C166.232 66.1214 166.717 65.037 167.689 64.3763C168.658 63.7189 170.122 63.3529 172.073 63.2851L174.34 63.214V62.6413C174.34 61.3164 173.662 60.6556 172.307 60.6556C171.264 60.6556 170.034 60.9707 168.628 61.601L167.445 59.1917C168.95 58.4022 170.62 58.0125 172.446 58.0125C174.272 58.0125 175.546 58.392 176.481 59.1578C177.416 59.9237 177.884 61.0826 177.884 62.6413V71.35H175.394ZM174.34 65.2946L172.961 65.342C171.928 65.3725 171.155 65.5589 170.647 65.9045C170.142 66.2468 169.888 66.7686 169.888 67.47C169.888 68.4764 170.464 68.978 171.619 68.978C172.443 68.978 173.107 68.7408 173.601 68.2663C174.093 67.792 174.34 67.1617 174.34 66.3721V65.2946Z" fill="#383A41"/>
<path d="M188.733 71.5838C187.194 71.5838 185.992 71.028 185.117 69.9132H184.931C185.057 71.0043 185.117 71.6346 185.117 71.8074V77.1038H181.557V58.2836H184.457L184.958 59.9779H185.121C185.958 58.6834 187.191 58.0362 188.827 58.0362C190.369 58.0362 191.575 58.6326 192.449 59.8254C193.32 61.0182 193.757 62.6718 193.757 64.7931C193.757 66.1892 193.55 67.3989 193.144 68.429C192.734 69.4591 192.148 70.2419 191.396 70.7773C190.637 71.3161 189.749 71.5838 188.733 71.5838ZM187.679 60.8894C186.795 60.8894 186.154 61.1605 185.748 61.7027C185.344 62.2415 185.134 63.1394 185.117 64.383V64.7693C185.117 66.1722 185.328 67.1786 185.744 67.7852C186.161 68.3917 186.818 68.6967 187.726 68.6967C189.322 68.6967 190.118 67.3785 190.118 64.7456C190.118 63.4613 189.922 62.4956 189.529 61.8518C189.136 61.2113 188.519 60.8894 187.679 60.8894Z" fill="#383A41"/>
<path d="M202.007 71.5838C197.941 71.5838 195.905 69.3507 195.905 64.8846C195.905 62.665 196.457 60.9674 197.565 59.7915C198.67 58.6191 200.259 58.0328 202.319 58.0328C203.833 58.0328 205.189 58.331 206.385 58.9206L205.334 61.6789C204.772 61.4519 204.253 61.2689 203.769 61.1232C203.288 60.9809 202.807 60.9097 202.319 60.9097C200.469 60.9097 199.537 62.2245 199.537 64.8608C199.537 67.4971 200.469 68.6967 202.319 68.6967C203.007 68.6967 203.64 68.6052 204.226 68.4222C204.809 68.2392 205.395 67.9546 205.978 67.5649V70.6146C205.399 70.9806 204.819 71.2347 204.23 71.3737C203.64 71.5126 202.898 71.5838 202.004 71.5838H202.007Z" fill="#383A41"/>
<path d="M219.822 58.2802V60.9572H215.542V71.35H211.975V60.9572H207.689V58.2802H219.822Z" fill="#383A41"/>
<path d="M234.313 61.7061C234.313 62.4075 234.092 63.0073 233.652 63.502C233.208 63.9967 232.564 64.3119 231.704 64.4542V64.5491C232.635 64.6575 233.367 64.976 233.909 65.5013C234.448 66.0299 234.719 66.6771 234.719 67.4497C234.719 68.7204 234.224 69.6862 233.222 70.3571C232.225 71.0213 230.799 71.3567 228.942 71.3567H222.248V58.287H228.942C230.738 58.287 232.08 58.5784 232.971 59.1578C233.858 59.7373 234.309 60.5878 234.309 61.7094L234.313 61.7061ZM230.701 61.9873C230.701 61.191 230.071 60.7945 228.807 60.7945H225.815V63.3766H228.4C229.152 63.3766 229.728 63.2682 230.115 63.0479C230.508 62.8311 230.701 62.4753 230.701 61.9839V61.9873ZM231.026 67.2599C231.026 66.7449 230.83 66.3755 230.433 66.1451C230.037 65.9147 229.437 65.7995 228.644 65.7995H225.815V68.8865H228.712C229.471 68.8865 230.044 68.7441 230.437 68.4595C230.83 68.1749 231.026 67.775 231.026 67.2599Z" fill="#383A41"/>
<path d="M243.464 71.5838C241.36 71.5838 239.72 71.0043 238.531 69.842C237.348 68.6798 236.755 67.0363 236.755 64.9083C236.755 62.7802 237.301 61.025 238.402 59.8288C239.496 58.6326 241.007 58.0328 242.942 58.0328C244.877 58.0328 246.225 58.5581 247.252 59.6119C248.282 60.6658 248.793 62.1195 248.793 63.973V65.7046H240.367C240.404 66.7178 240.702 67.5107 241.265 68.0766C241.827 68.6459 242.617 68.9305 243.626 68.9305C244.416 68.9305 245.161 68.8492 245.863 68.6865C246.564 68.5239 247.292 68.2596 248.058 67.9038V70.6621C247.431 70.9738 246.767 71.2042 246.056 71.3601C245.351 71.5092 244.484 71.5872 243.46 71.5872L243.464 71.5838ZM242.962 60.5709C242.203 60.5709 241.61 60.8115 241.187 61.2893C240.757 61.7704 240.513 62.4482 240.448 63.3292H245.453C245.439 62.4482 245.209 61.7704 244.765 61.2893C244.321 60.8115 243.718 60.5709 242.966 60.5709H242.962Z" fill="#383A41"/>
<path d="M255.258 58.2802V63.3055H260.238V58.2802H263.799V71.35H260.238V65.9621H255.258V71.35H251.69V58.2802H255.258Z" fill="#383A41"/>
<path d="M271.107 58.2802V63.3055H276.088V58.2802H279.648V71.35H276.088V65.9621H271.107V71.35H267.539V58.2802H271.107Z" fill="#383A41"/>
<path d="M288.671 63.3326C290.667 63.3326 292.144 63.6545 293.103 64.2915C294.061 64.9286 294.539 65.8977 294.539 67.1922C294.539 68.5713 294.061 69.6082 293.103 70.3097C292.144 71.0077 290.711 71.3533 288.8 71.3533H283.386V58.2836H286.953V63.3326H288.671ZM290.975 67.2362C290.975 66.7279 290.768 66.3654 290.368 66.1383C289.962 65.9113 289.359 65.7995 288.556 65.7995H286.957V68.8865H288.603C290.189 68.8865 290.978 68.3375 290.978 67.2396L290.975 67.2362ZM299.997 71.35H296.43V58.2802H299.997V71.35Z" fill="#383A41"/>
<path d="M307.184 58.2802V63.4478C307.184 63.9934 307.095 65.3251 306.916 67.4463L312.947 58.2802H317.233V71.35H313.787V66.1349C313.787 65.2065 313.861 63.8985 314.021 62.2076L308.014 71.35H303.734V58.2802H307.184ZM316.186 52.6586C316.04 54.1156 315.488 55.1797 314.539 55.8438C313.584 56.5114 312.215 56.8434 310.426 56.8434C308.637 56.8434 307.214 56.5215 306.33 55.8845C305.442 55.2474 304.947 54.1699 304.839 52.6586H308.027C308.085 53.4616 308.285 54.0241 308.63 54.3461C308.976 54.6714 309.599 54.8306 310.497 54.8306C311.283 54.8306 311.873 54.6544 312.255 54.2986C312.645 53.9462 312.876 53.3973 312.96 52.6586H316.186Z" fill="#383A41"/>
<path d="M325.323 58.2802H329.226L331.696 65.6334C331.906 66.2705 332.052 67.0295 332.127 67.9004H332.198C332.286 67.0973 332.452 66.3416 332.703 65.6334L335.118 58.2802H338.943L333.414 73.0205C332.909 74.3827 332.184 75.4061 331.249 76.0838C330.311 76.7615 329.209 77.1004 327.959 77.1004C327.343 77.1004 326.74 77.036 326.147 76.9005V74.071C326.577 74.1727 327.044 74.2235 327.549 74.2235C328.179 74.2235 328.732 74.0303 329.203 73.6474C329.674 73.2577 330.043 72.6783 330.307 71.8989L330.517 71.2551L325.327 58.2802H325.323Z" fill="#383A41"/>
<path d="M344.375 58.2802V63.3055H349.355V58.2802H352.923V71.35H349.355V65.9621H344.375V71.35H340.814V58.2802H344.375Z" fill="#383A41"/>
<path d="M360.109 58.2802V63.4478C360.109 63.9934 360.021 65.3251 359.841 67.4463L365.872 58.2802H370.158V71.35H366.712V66.1349C366.712 65.2065 366.787 63.8985 366.946 62.2076L360.939 71.35H356.66V58.2802H360.109Z" fill="#383A41"/>
<path d="M385.96 61.7061C385.96 62.4075 385.74 63.0073 385.303 63.502C384.862 63.9967 384.212 64.3119 383.358 64.4542V64.5491C384.283 64.6575 385.018 64.976 385.56 65.5013C386.102 66.0299 386.373 66.6771 386.373 67.4497C386.373 68.7204 385.872 69.6862 384.876 70.3571C383.876 71.0213 382.45 71.3567 380.597 71.3567H373.898V58.287H380.597C382.389 58.287 383.731 58.5784 384.622 59.1578C385.516 59.7373 385.96 60.5878 385.96 61.7094V61.7061ZM382.352 61.9873C382.352 61.191 381.721 60.7945 380.458 60.7945H377.466V63.3766H380.048C380.807 63.3766 381.376 63.2682 381.769 63.0479C382.159 62.8311 382.352 62.4753 382.352 61.9839V61.9873ZM382.68 67.2599C382.68 66.7449 382.48 66.3755 382.081 66.1451C381.684 65.9147 381.088 65.7995 380.295 65.7995H377.466V68.8865H380.366C381.118 68.8865 381.694 68.7441 382.091 68.4595C382.484 68.1749 382.68 67.775 382.68 67.2599Z" fill="#383A41"/>
<path d="M395.115 71.5838C393.011 71.5838 391.364 71.0043 390.182 69.842C388.996 68.6798 388.406 67.0363 388.406 64.9083C388.406 62.7802 388.952 61.025 390.046 59.8288C391.14 58.6326 392.655 58.0328 394.586 58.0328C396.517 58.0328 397.872 58.5581 398.902 59.6119C399.932 60.6658 400.444 62.1195 400.444 63.973V65.7046H392.014C392.055 66.7178 392.357 67.5107 392.916 68.0766C393.475 68.6425 394.261 68.9305 395.277 68.9305C396.063 68.9305 396.805 68.8492 397.507 68.6865C398.208 68.5239 398.943 68.2596 399.702 67.9038V70.6621C399.082 70.9738 398.411 71.2042 397.706 71.3601C396.995 71.5092 396.131 71.5872 395.111 71.5872L395.115 71.5838ZM394.61 60.5709C393.858 60.5709 393.265 60.8115 392.834 61.2893C392.408 61.7704 392.16 62.4482 392.099 63.3292H397.1C397.08 62.4482 396.853 61.7704 396.409 61.2893C395.965 60.8115 395.365 60.5709 394.61 60.5709Z" fill="#383A41"/>
<path d="M410.52 71.5838C408.982 71.5838 407.779 71.028 406.905 69.9132H406.719C406.844 71.0043 406.905 71.6346 406.905 71.8074V77.1038H403.344V58.2836H406.241L406.742 59.9779H406.905C407.742 58.6834 408.975 58.0362 410.612 58.0362C412.153 58.0362 413.359 58.6326 414.234 59.8254C415.104 61.0182 415.541 62.6718 415.541 64.7931C415.541 66.1892 415.335 67.3989 414.928 68.429C414.518 69.4591 413.932 70.2419 413.18 70.7773C412.421 71.3161 411.533 71.5838 410.513 71.5838H410.52ZM409.466 60.8894C408.582 60.8894 407.942 61.1605 407.535 61.7027C407.132 62.2415 406.922 63.1394 406.905 64.383V64.7693C406.905 66.1722 407.115 67.1786 407.532 67.7852C407.949 68.3917 408.606 68.6967 409.514 68.6967C411.11 68.6967 411.906 67.3785 411.906 64.7456C411.906 63.4613 411.709 62.4956 411.316 61.8518C410.923 61.2113 410.307 60.8894 409.466 60.8894Z" fill="#383A41"/>
<path d="M423.798 71.5838C419.732 71.5838 417.696 69.3507 417.696 64.8846C417.696 62.665 418.248 60.9674 419.356 59.7915C420.461 58.6191 422.05 58.0328 424.11 58.0328C425.624 58.0328 426.98 58.331 428.179 58.9206L427.125 61.6789C426.563 61.4519 426.044 61.2689 425.56 61.1232C425.079 60.9809 424.598 60.9097 424.11 60.9097C422.26 60.9097 421.328 62.2245 421.328 64.8608C421.328 67.4971 422.26 68.6967 424.11 68.6967C424.798 68.6967 425.435 68.6052 426.017 68.4222C426.603 68.2392 427.186 67.9546 427.769 67.5649V70.6146C427.19 70.9806 426.61 71.2347 426.021 71.3737C425.431 71.5126 424.689 71.5838 423.795 71.5838H423.798Z" fill="#383A41"/>
<path d="M434.247 58.2802V63.4478C434.247 63.9934 434.159 65.3251 433.976 67.4463L440.007 58.2802H444.299V71.35H440.85V66.1349C440.85 65.2065 440.928 63.8985 441.084 62.2076L435.077 71.35H430.798V58.2802H434.247Z" fill="#383A41"/>
<path d="M458.844 58.2802V60.9572H454.565V71.35H451.004V60.9572H446.712V58.2802H458.844Z" fill="#383A41"/>
<path d="M466.959 71.5838C464.855 71.5838 463.215 71.0043 462.026 69.842C460.843 68.6798 460.251 67.0363 460.251 64.9083C460.251 62.7802 460.796 61.025 461.897 59.8288C462.992 58.6326 464.503 58.0328 466.437 58.0328C468.372 58.0328 469.72 58.5581 470.747 59.6119C471.777 60.6658 472.288 62.1195 472.288 63.973V65.7046H463.862C463.9 66.7178 464.198 67.5107 464.76 68.0766C465.323 68.6459 466.112 68.9305 467.122 68.9305C467.911 68.9305 468.656 68.8492 469.358 68.6865C470.059 68.5239 470.788 68.2596 471.557 67.9038V70.6621C470.93 70.9738 470.266 71.2042 469.554 71.3601C468.85 71.5092 467.982 71.5872 466.959 71.5872V71.5838ZM466.458 60.5709C465.699 60.5709 465.106 60.8115 464.682 61.2893C464.252 61.7704 464.008 62.4482 463.944 63.3292H468.944C468.931 62.4482 468.7 61.7704 468.257 61.2893C467.813 60.8115 467.21 60.5709 466.458 60.5709Z" fill="#383A41"/>
<path d="M486 58.2802V60.9572H481.721V71.35H478.153V60.9572H473.867V58.2802H486Z" fill="#383A41"/>
<path d="M30.5461 15.1808C30.5732 15.2486 30.6004 15.313 30.6275 15.3672C31.1153 16.4041 32.0098 17.4071 32.0098 17.4071C32.0098 17.4071 32.02 17.4004 32.0267 17.397C32.0267 17.397 32.1555 17.3021 32.4164 17.1564C32.5045 17.1056 32.6061 17.0513 32.7247 16.9903C33.0059 16.848 33.3752 16.6854 33.8292 16.5261C34.9066 16.1466 36.3364 16.0246 36.3364 16.0246C36.3364 16.0246 35.0015 14.1677 34.7508 11.4873C34.6085 9.9692 34.6661 9.1695 34.683 9.12545C34.5915 9.11867 34.5034 9.11189 34.412 9.11189C33.3989 9.11189 32.4706 9.4677 31.7388 10.0539C31.7218 10.0675 31.7015 10.081 31.6845 10.098C30.7427 10.8807 30.143 12.06 30.143 13.3815C30.143 13.7509 30.1938 14.1033 30.2819 14.4455C30.3496 14.6624 30.4479 14.9403 30.5428 15.1775L30.5461 15.1808Z" fill="#383A41"/>
<path d="M56.2346 28.1862C56.6717 28.8809 56.6514 29.745 56.6514 29.745C56.6581 29.745 57.5323 29.8974 57.9659 30.3312C57.9659 30.3312 58.0337 30.2634 58.0439 30.2533C58.6368 29.5247 59.7244 28.3319 60.0395 26.6004C60.2969 25.1907 60.1309 23.2118 59.8328 22.5815C59.8226 22.5578 59.8125 22.5239 59.8023 22.5036C60.0835 22.1749 60.5511 21.4158 61.8453 21.4158C62.3196 21.4158 62.7431 21.5446 63.0853 21.7072C63.6512 21.9817 64.0001 22.3409 64.0001 22.3409C64.0001 22.3409 62.8854 24.3232 62.3027 25.2686C62.0045 25.7532 61.7877 26.1293 61.188 27.4509C60.69 28.5522 60.5544 29.2841 60.6391 30.0737C60.7103 30.7378 61.0627 32.0051 61.2151 33.2759C61.5065 35.719 61.0254 36.9084 61.0254 36.9084C61.0254 36.9084 61.0389 36.9016 61.0559 36.8881C61.0525 36.8983 61.0457 36.9186 61.0457 36.9186C61.0457 36.9186 63.9391 35.0074 65.7687 30.7378C65.7619 30.7378 65.7552 30.7344 65.7484 30.731C65.7484 30.731 65.7484 30.731 65.7484 30.7277C65.4096 30.6667 65.1385 30.5718 64.8946 30.4498C64.654 30.3278 64.4406 30.1787 64.2136 30.0059C62.5941 28.7691 62.96 27.4509 63.4851 26.8308C63.6342 26.6546 63.7901 26.4851 63.9527 26.3123C64.3593 25.8786 64.7997 25.4381 65.2605 24.8993C65.8432 24.2182 66.0567 23.5371 66.1312 22.9373C66.1583 22.7306 66.1854 22.5239 66.1854 22.3104C66.1854 20.5145 65.3147 19.2912 64.2068 18.6812C63.8375 18.4745 63.4445 18.3356 63.0447 18.2678C61.8046 18.0544 60.2834 18.5186 59.1755 19.2776C58.752 19.5657 58.054 20.2061 57.8609 20.6873C57.617 21.897 57.9795 22.2054 58.3454 23.4558C58.3522 23.4795 58.3691 23.4998 58.3759 23.5269C59.1382 26.3089 58.7452 27.6542 56.238 28.1828L56.2346 28.1862Z" fill="#383A41"/>
<path d="M43.8105 25.699C44.1358 26.3937 44.7355 27.0646 44.7355 27.0646C44.7355 27.0646 44.7388 27.0612 44.7422 27.0612C44.7456 27.0646 44.8303 27.1493 44.8303 27.1493C44.8303 27.1493 45.159 26.8613 46.0195 26.5292C46.731 26.2513 47.639 26.1565 47.639 26.1565C47.639 26.1565 46.748 24.9128 46.5786 23.1203C46.4803 22.08 46.5244 21.5446 46.5345 21.5344C46.5278 21.5344 46.521 21.5344 46.5142 21.5344V21.5277C46.0602 21.4497 45.5893 21.5412 45.159 21.7445C44.8608 21.9106 44.5965 22.0935 44.3763 22.2901C43.9901 22.6323 43.7326 23.0186 43.6343 23.4286C43.4751 23.8658 43.4209 24.3503 43.5157 24.8519C43.5225 24.8959 43.6784 25.411 43.8139 25.7024L43.8105 25.699Z" fill="#383A41"/>
<path d="M47.7712 23.8624C48.1574 24.9366 48.7978 25.8413 49.2891 26.0311C49.3636 26.0616 49.4381 26.0819 49.5059 26.0819C50.0175 26.0209 50.6917 24.9908 51.0204 23.7302C51.3253 22.551 51.1186 21.5649 50.6036 21.1481C50.485 21.06 50.3563 20.9855 50.2208 20.9245C50.2004 20.9143 50.1733 20.9109 50.153 20.9008C50.4105 20.6737 50.5833 20.345 50.5833 19.9757C50.5833 19.403 50.2072 18.9388 49.6888 18.7897V18.2882H50.546V17.5969H49.6888V16.5058H48.9943V17.5969H48.1371V18.2882H48.9943V18.7897C48.4793 18.9388 48.1066 19.403 48.1066 19.9757C48.1066 20.3417 48.2658 20.6636 48.5233 20.894C48.3167 20.9855 48.1269 21.1041 47.9643 21.2532C47.4832 21.714 47.3646 22.7137 47.7746 23.8658L47.7712 23.8624Z" fill="#383A41"/>
<path d="M51.2609 26.0582C51.2609 26.0582 52.7822 26.0684 54.3034 26.6647C54.3305 26.6749 54.3509 26.6885 54.3746 26.702C54.5779 26.4411 54.8726 26.0345 55.0725 25.6143C55.208 25.3263 55.3639 24.8078 55.3707 24.7637C55.4655 24.2622 55.4079 23.7777 55.2521 23.3405C55.1538 22.9305 54.8929 22.5442 54.5101 22.202C54.2899 22.0054 54.0256 21.8225 53.7274 21.6564C53.7241 21.6564 53.7207 21.6564 53.7173 21.653C53.7173 21.653 53.7139 21.653 53.7105 21.6496C53.2768 21.4463 52.8093 21.3548 52.3553 21.4328C52.3654 21.4396 52.4095 21.9783 52.3112 23.0186C52.1418 24.8112 51.2508 26.0548 51.2508 26.0548C51.2508 26.0548 51.2643 26.0548 51.2745 26.0548V26.0616L51.2609 26.0582Z" fill="#383A41"/>
<path d="M41.344 16.028C41.344 16.028 42.7738 16.1466 43.8512 16.5295C44.3052 16.6888 44.6711 16.8514 44.9557 16.9937C45.0743 17.0547 45.1759 17.1089 45.264 17.1598C45.5249 17.3055 45.6536 17.4038 45.6536 17.4038L45.6706 17.4139C45.6706 17.4139 46.565 16.4109 47.0529 15.374C47.08 15.3164 47.1071 15.252 47.1342 15.1876C47.2325 14.9504 47.3273 14.6726 47.3951 14.4557C47.4832 14.1134 47.534 13.761 47.534 13.3917C47.534 12.0701 46.9343 10.8909 45.9924 10.1081C45.9755 10.0946 45.9552 10.081 45.9382 10.0641C45.2064 9.47447 44.2781 9.12206 43.265 9.12206C43.1735 9.12206 43.0855 9.12884 42.994 9.13561C43.0109 9.17967 43.0685 9.97937 42.9262 11.4975C42.6755 14.1778 41.3406 16.0348 41.3406 16.0348L41.344 16.028Z" fill="#383A41"/>
<path d="M42.2893 20.1519C42.2893 20.1519 42.4553 20.9889 42.5569 21.3616C42.5637 21.3616 42.6586 21.365 42.6586 21.3718C43.2955 21.1176 44.5423 20.7415 44.5423 20.3247V18.9896C44.5423 18.749 44.2984 18.522 43.8681 18.3221C42.9872 17.912 41.3372 17.6274 39.4602 17.5901H38.3726C36.438 17.6071 34.6999 17.8985 33.7919 18.3221C33.3583 18.522 33.1075 18.749 33.1075 18.9896V20.3247C33.1075 20.7415 34.3679 21.1142 35.0049 21.3718C35.0049 21.3684 35.1065 21.3616 35.1133 21.3616C35.2149 20.9855 35.3843 20.1519 35.3843 20.1519C35.3843 20.1519 35.2488 20.0977 35.2217 20.0401C35.1438 19.874 35.2861 19.7758 35.5199 19.6436C35.7536 19.5148 36.1433 19.4369 36.4719 19.4267C36.6718 20.1587 36.7023 21.3074 36.6583 22.2969C36.5702 24.2758 36.1975 26.7596 35.0252 28.4505C35.4724 28.8843 35.9637 29.4434 36.4651 30.1651C37.6815 27.8338 37.8712 25.2822 37.9728 22.6527C38.0169 21.4938 37.9728 20.1417 37.9728 19.2133C38.088 19.2133 38.4607 19.1658 38.8368 19.1658C39.2129 19.1658 39.5822 19.2099 39.694 19.2133C39.694 20.1383 39.6499 21.4938 39.694 22.6527C39.799 25.3263 39.9887 27.9253 41.2627 30.2905C41.7234 29.6162 42.1775 29.0706 42.5976 28.6403C42.6281 28.5996 42.6552 28.559 42.6857 28.5183C41.4761 26.8274 41.0967 24.2995 41.0086 22.2969C40.9645 21.3108 40.995 20.1621 41.1949 19.4267C41.5235 19.4403 41.9098 19.5148 42.147 19.6436C42.3841 19.7758 42.523 19.8706 42.4451 20.0401C42.418 20.0943 42.2825 20.1519 42.2825 20.1519H42.2893Z" fill="#383A41"/>
<path d="M58.6808 38.8331C58.6808 38.8331 58.6707 38.8264 58.6639 38.823C58.6469 38.823 58.6266 38.8162 58.6097 38.8162H58.5792C58.508 38.8264 58.4437 38.8331 58.3793 38.8399C57.6847 38.884 57.0071 38.8298 56.4481 38.6129C56.133 38.5078 55.8586 38.3282 55.5943 38.1419C55.5333 38.091 54.8252 37.4642 54.6964 37.3456C54.1848 36.8644 53.2158 36.1629 52.2164 36.0647C51.0881 35.9528 50.3665 36.3663 49.5601 36.6848C49.4856 36.7153 49.428 36.7898 49.4212 36.8745C49.4144 36.9694 49.472 37.0507 49.5533 37.088C49.5804 37.105 49.6109 37.1151 49.6448 37.1185C50.4444 37.1761 51.2101 37.3117 51.9318 37.5251C52.4671 37.6878 53.0024 37.8606 53.4225 38.1588C53.9782 38.5519 54.4559 39.0534 54.7744 39.2567C55.1877 39.5176 55.5536 39.7718 56.028 39.8667C56.526 39.9514 57.0444 39.9175 57.5323 39.7887C57.5526 39.7819 57.5763 39.7752 57.5966 39.7684C57.7254 39.7379 57.8507 39.6871 57.9727 39.6396C58.1421 39.5718 58.3047 39.4973 58.4572 39.4058C58.464 39.4024 58.4708 39.399 58.4775 39.3956C58.5758 39.338 58.6808 39.2906 58.7723 39.2194C58.7723 39.2194 58.7791 39.2194 58.7825 39.2127C58.8401 39.1686 58.8739 39.0975 58.8672 39.0195C58.8604 38.9179 58.7825 38.8433 58.6876 38.8264L58.6808 38.8331Z" fill="#383A41"/>
<path d="M55.5807 31.3783C55.6315 31.5375 55.801 31.707 55.9941 31.8188C56.5972 32.1678 56.8106 32.6829 55.9094 32.7879C55.2521 32.8658 54.5643 32.4287 52.135 33.0963C50.7087 33.4893 49.0282 34.9261 48.4454 35.5903C48.2659 35.797 48.0795 36.0342 47.9067 36.2849C47.3443 37.0982 47.3477 38.1961 47.9575 38.9755C48.3201 39.4397 48.7266 39.7413 48.8452 39.8226C50.9797 41.2695 52.9821 40.07 53.2023 39.8531C53.3785 39.6769 53.3886 39.6091 53.3548 39.5651C53.3514 39.5583 53.3446 39.5617 53.3412 39.5583C53.3412 39.5583 53.3412 39.5583 53.3378 39.5583C53.3344 39.5515 52.6602 39.9175 51.7115 39.9175C51.1762 39.9175 50.624 39.8226 50.17 39.6193C49.8345 39.4668 49.062 39.0534 48.608 38.3248C48.3133 37.8504 48.3743 37.2405 48.73 36.8135C49.0892 36.3832 49.5228 35.98 49.9294 35.6784C50.8442 35.004 51.8979 34.5974 53.1176 34.5805C53.1481 34.5805 53.1752 34.5771 53.2057 34.5771C53.8189 34.5771 54.4085 34.6855 54.9607 34.8651C55.2385 34.9566 55.5096 35.0684 55.7671 35.2006C56.5497 35.6004 57.2273 36.1765 57.7457 36.8813C57.7457 36.8813 57.7457 36.8745 57.7491 36.8745C57.7525 36.8813 57.7593 36.8847 57.7627 36.8915C57.9626 36.5526 58.1862 36.0443 58.3759 35.3293C58.4098 35.204 58.4437 35.0752 58.4742 34.9363C58.7452 33.7401 58.6673 30.9648 56.0246 30.9648C55.9771 30.9648 55.9263 30.9852 55.8789 30.9987C55.5977 31.0733 55.5299 31.2258 55.5807 31.385V31.3783Z" fill="#383A41"/>
<path d="M12.1895 24.9061C12.6537 25.4449 13.0907 25.882 13.4973 26.3191C13.6565 26.4919 13.8124 26.6614 13.9648 26.8376C14.4934 27.4577 14.8559 28.7724 13.2364 30.0127C13.0094 30.1855 12.796 30.3346 12.5554 30.4566C12.3148 30.5786 12.0438 30.67 11.7016 30.7344V30.7378C11.6948 30.7378 11.688 30.7412 11.6813 30.7446C13.5108 35.0142 16.4043 36.9254 16.4043 36.9254C16.4043 36.9254 16.3975 36.905 16.3941 36.8949C16.411 36.905 16.4246 36.9152 16.4246 36.9152C16.4246 36.9152 15.9435 35.7224 16.2349 33.2826C16.3873 32.0085 16.7397 30.7412 16.8108 30.0804C16.8989 29.2909 16.7634 28.559 16.262 27.4577C15.6623 26.1361 15.4454 25.76 15.1473 25.2754C14.5645 24.33 13.4499 22.3477 13.4499 22.3477C13.4499 22.3477 13.7988 21.9885 14.3646 21.714C14.7068 21.5514 15.1303 21.4226 15.6047 21.4226C16.8955 21.4226 17.3631 22.1817 17.6477 22.5103C17.6375 22.5307 17.6274 22.5646 17.6172 22.5883C17.3191 23.2186 17.153 25.1975 17.4105 26.6071C17.7256 28.3387 18.8132 29.5315 19.4061 30.26C19.4163 30.2736 19.484 30.338 19.484 30.338C19.9177 29.9042 20.7918 29.7551 20.7986 29.7517C20.7986 29.7517 20.7783 28.8843 21.2154 28.193C18.7048 27.6644 18.3151 26.3191 19.0775 23.5371C19.0842 23.51 19.1012 23.493 19.108 23.4659C19.4739 22.2155 19.8364 21.9072 19.5925 20.6975C19.3959 20.2163 18.7014 19.5758 18.2779 19.2878C17.1666 18.5322 15.6487 18.0645 14.4087 18.278C14.0089 18.3458 13.6159 18.4847 13.2466 18.6914C12.1387 19.3047 11.2679 20.5246 11.2679 22.3206C11.2679 22.5341 11.2984 22.7442 11.3221 22.9475C11.3967 23.5473 11.6101 24.2284 12.1929 24.9095L12.1895 24.9061Z" fill="#383A41"/>
<path d="M29.8109 26.1565C29.8109 26.1565 30.7189 26.2547 31.4304 26.5292C32.291 26.8647 32.6197 27.1493 32.6197 27.1493C32.6197 27.1493 32.7044 27.0646 32.7077 27.0612L32.7145 27.0646C32.7145 27.0646 33.3108 26.3937 33.6395 25.699C33.775 25.411 33.9308 24.8925 33.9376 24.8485C34.0325 24.347 33.9749 23.8624 33.819 23.4253C33.7208 23.0152 33.4599 22.6289 33.077 22.2867C32.8568 22.0902 32.5926 21.9072 32.2944 21.7411C31.8607 21.5378 31.3932 21.4463 30.9392 21.5243V21.531C30.9392 21.531 30.9256 21.531 30.9222 21.531C30.9324 21.5378 30.9764 22.0766 30.8782 23.1169C30.7088 24.9095 29.8177 26.1531 29.8177 26.1531L29.8109 26.1565Z" fill="#383A41"/>
<path d="M27.9407 26.0819C28.0085 26.0819 28.083 26.0616 28.1575 26.0311C28.6522 25.8413 29.2892 24.94 29.6754 23.8624C30.0854 22.7137 29.9668 21.7106 29.4857 21.2498C29.3197 21.1007 29.1198 20.9889 28.9097 20.9008C29.1672 20.6737 29.3434 20.345 29.3434 19.9723C29.3434 19.3996 28.9673 18.9354 28.4489 18.7863V18.2848H29.3061V17.5935H28.4489V16.5024H27.7544V17.5935H26.8972V18.2848H27.7544V18.7863C27.2394 18.9354 26.8667 19.3996 26.8667 19.9723C26.8667 20.3417 27.0327 20.6703 27.2936 20.8974C27.2733 20.9075 27.2495 20.9109 27.2292 20.9177C27.0937 20.9787 26.9649 21.0533 26.8464 21.1414C26.3314 21.5582 26.1213 22.5442 26.4296 23.7235C26.7549 24.984 27.4325 26.0141 27.9441 26.0751L27.9407 26.0819Z" fill="#383A41"/>
<path d="M22.3809 25.6143C22.5774 26.0345 22.8721 26.4445 23.0788 26.702C23.1025 26.6885 23.1228 26.6749 23.15 26.6647C24.6712 26.0717 26.1925 26.0582 26.1925 26.0582V26.0514H26.2094C26.2094 26.0514 25.3183 24.8112 25.1489 23.0152C25.0507 21.9749 25.0947 21.4396 25.1049 21.4294C24.6509 21.3514 24.1799 21.4429 23.7496 21.6463C23.7496 21.6463 23.7463 21.6463 23.7429 21.6496C23.7395 21.6496 23.7361 21.6496 23.7327 21.653C23.4345 21.8191 23.1703 22.0021 22.9501 22.1986C22.5638 22.5408 22.3063 22.9271 22.2081 23.3372C22.0488 23.7743 21.9946 24.2589 22.0861 24.7604C22.0929 24.8044 22.2487 25.3195 22.3842 25.6109L22.3809 25.6143Z" fill="#383A41"/>
<path d="M27.8086 37.1185C27.8425 37.1185 27.8729 37.105 27.9 37.088C27.9814 37.0507 28.039 36.9694 28.0322 36.8745C28.0254 36.7864 27.9678 36.7153 27.8933 36.6848C27.0835 36.3663 26.3652 35.9528 25.2336 36.0647C24.2341 36.1629 23.2651 36.8678 22.7535 37.3456C22.6282 37.4642 21.9201 38.091 21.8557 38.1419C21.5914 38.3282 21.317 38.5078 21.0019 38.6129C20.4429 38.8298 19.7686 38.884 19.0707 38.8399C19.0063 38.8331 18.9419 38.8264 18.8708 38.8196H18.8403C18.82 38.8162 18.803 38.8196 18.7861 38.823C18.7793 38.823 18.7759 38.8298 18.7692 38.8331C18.6743 38.8501 18.5964 38.9246 18.5896 39.0263C18.5828 39.1042 18.6167 39.1754 18.6743 39.2194C18.6743 39.2194 18.6811 39.2194 18.6845 39.2262C18.7759 39.294 18.881 39.3448 18.9792 39.4024C18.986 39.4058 18.9928 39.4092 18.9995 39.4126C19.152 39.5007 19.3146 39.5786 19.484 39.6464C19.6094 39.6938 19.7314 39.7413 19.8601 39.7752C19.8804 39.7819 19.9042 39.7887 19.9245 39.7955C20.409 39.9209 20.9274 39.9581 21.4288 39.8734C21.9031 39.7786 22.269 39.5244 22.6824 39.2635C23.0009 39.0602 23.4786 38.5621 24.0342 38.1656C24.4544 37.8674 24.9897 37.6946 25.525 37.5319C26.25 37.3184 27.0124 37.1829 27.812 37.1253L27.8086 37.1185Z" fill="#383A41"/>
<path d="M18.9758 34.9295C19.0063 35.0684 19.0402 35.1972 19.0741 35.3226C19.2638 36.0342 19.4908 36.5458 19.6873 36.8847C19.6907 36.8779 19.6975 36.8745 19.7009 36.8678C19.7009 36.8678 19.7009 36.8745 19.7043 36.8745C20.2226 36.1697 20.9003 35.597 21.6829 35.1938C21.9404 35.0616 22.2114 34.9498 22.4893 34.8583C23.0415 34.6754 23.6311 34.5703 24.2443 34.5703C24.2748 34.5703 24.3019 34.5703 24.3324 34.5737C25.5521 34.594 26.6024 35.0007 27.5206 35.6716C27.9272 35.9698 28.3608 36.3764 28.72 36.8068C29.0757 37.2337 29.1367 37.8437 28.8419 38.3181C28.3879 39.0466 27.6154 39.46 27.28 39.6125C26.8226 39.8158 26.2738 39.9107 25.7384 39.9107C24.7898 39.9107 24.1189 39.5481 24.1122 39.5515C24.1122 39.5515 24.1122 39.5515 24.1088 39.5515C24.1054 39.5549 24.0986 39.5515 24.0952 39.5583C24.0613 39.6023 24.0715 39.6735 24.2477 39.8463C24.4645 40.0632 26.4703 41.2628 28.6048 39.8158C28.7234 39.7345 29.1299 39.4329 29.4924 38.9687C30.1023 38.1893 30.1091 37.0914 29.5433 36.2781C29.3705 36.0274 29.1841 35.7902 29.0046 35.5835C28.4218 34.9193 26.7413 33.4826 25.3149 33.0895C22.8857 32.4219 22.1979 32.8591 21.5406 32.7811C20.6394 32.6727 20.8528 32.161 21.4559 31.812C21.649 31.7002 21.8184 31.5307 21.8693 31.3715C21.9201 31.2122 21.8523 31.0597 21.5711 30.9852C21.5237 30.975 21.4728 30.9513 21.4254 30.9513C18.7861 30.9513 18.7082 33.7265 18.9758 34.9227V34.9295Z" fill="#383A41"/>
<path d="M51.0949 75.6602V75.6916C51.0949 75.6916 51.1088 75.6916 51.1158 75.6916C51.1088 75.6811 51.1053 75.6707 51.0949 75.6602Z" fill="#383A41"/>
<path d="M40.2225 48.7414C40.3106 48.9176 40.6562 49.1954 40.7307 49.7308C40.7375 49.7884 42.0623 48.3279 42.0623 48.3279V46.9217L40.6494 47.5181L40.2225 48.7414Z" fill="#383A41"/>
<path d="M31.5998 85.5888C32.2402 85.4193 32.8229 85.2194 33.443 84.9822C33.7479 84.8636 34.0562 84.7281 34.3611 84.5756C34.6694 84.4197 34.9744 84.2435 35.2691 84.0334C35.5605 83.8301 35.8316 83.5726 36.062 83.2812C36.1805 83.1354 36.272 82.9796 36.3567 82.8068C36.3974 82.7187 36.4414 82.6238 36.4685 82.5424L36.5261 82.312V82.3052C36.5702 82.1392 36.4685 81.9698 36.3025 81.9257C36.2381 81.9088 36.1738 81.9189 36.1162 81.9393C36.0586 81.9562 36.0111 81.9901 35.9705 82.0342C35.7774 82.2612 35.5707 82.4171 35.3471 82.5391C35.1268 82.6543 34.8897 82.739 34.639 82.8169C34.124 82.966 33.5548 83.044 32.9754 83.1185C32.4028 83.1931 31.7794 83.2574 31.2102 83.3117C30.641 83.3625 30.0583 83.393 29.4687 83.4133L27.6426 83.4743C27.009 83.5082 26.3483 83.5421 25.5894 83.7149C25.3014 83.7827 24.9897 83.8708 24.6712 84.0199C24.5628 84.0707 24.4578 84.1249 24.3493 84.1927C23.936 84.4502 23.5193 84.8704 23.316 85.3617C23.1025 85.8497 23.0788 86.3343 23.1601 86.7443C23.255 87.1577 23.4244 87.5135 23.7192 87.8252C23.8377 87.9472 24.0173 87.9777 24.1664 87.9134C24.2172 87.8964 24.3459 87.7812 24.3459 87.7812C24.8711 86.9307 25.9993 86.4766 26.2162 86.4224C27.1242 86.2089 28.4252 86.1547 29.6788 85.9683C30.3158 85.8768 30.9561 85.7548 31.5965 85.5888H31.5998Z" fill="#383A41"/>
<path d="M25.874 82.0714C25.8638 82.2409 25.9892 82.3832 26.1586 82.3967C26.2297 82.4001 26.2975 82.3832 26.3517 82.3459L26.3619 82.3391H26.3686L26.4669 82.2714C26.6126 82.1731 26.7583 82.0918 26.9039 82.024C27.3546 81.8207 27.8086 81.7461 28.2524 81.736C28.8657 81.719 29.4891 81.7936 30.2073 81.9189C30.9798 82.0579 31.8539 82.1223 32.701 82.0511C33.1313 82.0206 33.5649 81.9359 34.0054 81.8173C34.2256 81.7427 34.4492 81.6682 34.6762 81.5496H34.6796C34.6864 81.5496 34.6898 81.5462 34.6932 81.5428C34.9032 81.4242 35.1946 81.2751 35.3403 80.9498C35.3979 80.8244 35.3403 80.6753 35.2149 80.6177C35.1946 80.6076 35.1777 80.6008 35.1573 80.5974C35.1573 80.5974 34.2968 80.4348 33.9478 80.3365L32.8534 80.0552C32.1047 79.8722 31.3898 79.713 30.5902 79.5774C29.7364 79.4317 28.7234 79.4385 27.7815 79.8045C27.6629 79.8519 27.5443 79.9027 27.4291 79.9637C26.6261 80.3771 25.935 81.1226 25.8706 82.068L25.874 82.0714Z" fill="#383A41"/>
<path d="M27.1038 79.0488C27.1411 79.0387 27.6459 78.8591 27.8831 78.7811H27.8763C27.8865 78.7811 24.9219 77.7069 26.6024 75.7992L26.6092 75.7246C26.6092 75.7246 26.599 75.7111 26.5956 75.7178C26.3144 75.6806 26.0264 75.7077 25.7656 75.8161C25.5013 75.9212 25.2675 76.0974 25.0778 76.3346C24.2714 77.3342 25.3759 78.4151 25.4064 78.4355C25.2404 78.4219 24.844 78.3643 24.6814 78.3474C23.9665 77.8594 22.7773 76.6497 24.4815 74.0981C24.4374 74.0913 24.3968 74.0913 24.3527 74.0879C24.1054 74.0778 23.8648 74.1218 23.6378 74.2235C23.5057 74.2675 23.377 74.3184 23.2584 74.3793C22.4215 74.7894 21.8489 75.5823 21.8489 76.5006C21.8489 76.8767 21.9506 77.2258 22.12 77.5443C22.2419 77.7747 22.408 77.9814 22.6011 78.1644C22.4757 78.1542 21.9336 78.1203 21.8015 78.0831C21.0222 77.1851 20.1583 75.5077 21.8218 73.5424C21.7778 73.5356 21.7371 73.5356 21.6931 73.5322C21.4491 73.522 21.2052 73.5661 20.9782 73.6677C20.8291 73.722 20.6868 73.7897 20.5581 73.8643C19.6365 74.3895 19.1893 75.3959 19.1893 76.2261C19.1893 76.6023 19.3248 77.2122 19.4603 77.5443C20.5513 80.2179 25.7113 79.408 27.1072 79.0556L27.1038 79.0488Z" fill="#383A41"/>
<path d="M53.3412 84.1927C53.2328 84.1249 53.1244 84.0707 53.0193 84.0199C52.7008 83.8708 52.3891 83.7827 52.1012 83.7149C51.3422 83.5387 50.6815 83.5082 50.048 83.4743L48.2218 83.4133C47.6323 83.393 47.0529 83.3625 46.4803 83.3117C45.9111 83.254 45.2877 83.1931 44.7151 83.1185C44.1358 83.044 43.5666 82.966 43.0516 82.8169C42.7975 82.739 42.5637 82.6543 42.3435 82.5391C42.1199 82.4171 41.9132 82.2612 41.7201 82.0342C41.6828 81.9901 41.632 81.9562 41.5744 81.9393C41.5168 81.9156 41.4524 81.9088 41.388 81.9257C41.222 81.9664 41.1204 82.1358 41.161 82.3052V82.312L41.222 82.5424C41.2525 82.6272 41.2965 82.7187 41.3338 82.8068C41.4185 82.9762 41.51 83.1354 41.6286 83.2812C41.859 83.5726 42.13 83.8301 42.4214 84.0334C42.7162 84.2435 43.0211 84.4197 43.3294 84.5756C43.6343 84.7315 43.9393 84.8636 44.2476 84.9822C44.8676 85.2194 45.447 85.416 46.0907 85.5888C46.731 85.7582 47.3748 85.8768 48.0084 85.9683C49.2619 86.1513 50.5596 86.2089 51.471 86.4224C51.6912 86.4766 52.816 86.9307 53.3412 87.7812C53.3412 87.7812 53.4699 87.893 53.5208 87.9133C53.6698 87.9777 53.8494 87.9472 53.968 87.8252C54.2628 87.5169 54.4322 87.1577 54.527 86.7443C54.6117 86.3343 54.5846 85.8463 54.3712 85.3617C54.1679 84.8738 53.7545 84.4536 53.3378 84.1927H53.3412Z" fill="#383A41"/>
<path d="M42.994 81.5428C42.994 81.5428 43.0008 81.5428 43.0075 81.5496H43.0109C43.2413 81.6716 43.4649 81.7428 43.6852 81.8173C44.1256 81.9359 44.5593 82.0206 44.9896 82.0511C45.8366 82.1189 46.7107 82.0579 47.4832 81.919C48.2015 81.7902 48.8249 81.7156 49.4381 81.736C49.8854 81.7461 50.3394 81.8207 50.7866 82.024C50.9323 82.0918 51.078 82.1731 51.2236 82.2714L51.3219 82.3357H51.3287L51.3422 82.3425C51.3964 82.3798 51.4642 82.4001 51.5354 82.3934C51.7048 82.3832 51.8301 82.2375 51.82 82.0681C51.7556 81.1226 51.0644 80.3772 50.2614 79.9637C50.1462 79.9027 50.0277 79.8485 49.9091 79.8045C48.9638 79.4351 47.9541 79.4317 47.1003 79.5774C46.2974 79.713 45.5859 79.8722 44.8371 80.0552L43.7427 80.3365C43.3938 80.4381 42.5332 80.5974 42.5332 80.5974C42.5129 80.5974 42.4925 80.6076 42.4756 80.6177C42.3502 80.6753 42.2926 80.8244 42.3502 80.9498C42.4959 81.2717 42.7907 81.4242 42.9974 81.5428H42.994Z" fill="#383A41"/>
<path d="M57.1291 73.8541C56.9969 73.7796 56.858 73.7118 56.709 73.6576C56.482 73.5593 56.2414 73.5119 55.9941 73.522C55.95 73.522 55.9094 73.5254 55.8653 73.5322C57.5289 75.4976 56.6649 77.1749 55.8857 78.0729C55.7569 78.1102 55.2148 78.1441 55.0861 78.1542C55.2792 77.9712 55.4452 77.7645 55.5672 77.5341C55.7366 77.2156 55.8382 76.8666 55.8382 76.4904C55.8382 75.5721 55.2656 74.7792 54.4288 74.3692C54.3068 74.3082 54.1814 74.2574 54.0493 74.2133C53.8223 74.115 53.5818 74.0676 53.3344 74.0778C53.2904 74.0778 53.2497 74.0812 53.2057 74.0879C54.9099 76.6395 53.7207 77.8493 53.0058 78.3372C52.8398 78.3542 52.4467 78.4152 52.2807 78.4253C52.3112 78.405 53.4124 77.3206 52.6094 76.3244C52.4163 76.0872 52.1859 75.911 51.9216 75.8059C51.6573 75.6975 51.3727 75.6738 51.0915 75.7077C51.0881 75.7009 51.0847 75.7212 51.078 75.7145L51.0847 75.789C52.7652 77.6968 49.804 78.7676 49.8108 78.771H49.804C50.0412 78.8523 50.5426 79.0319 50.5833 79.042C51.9792 79.3944 57.1359 80.2043 58.2302 77.5307C58.3657 77.1987 58.5013 76.5853 58.5013 76.2126C58.5013 75.3824 58.0506 74.376 57.1325 73.8507L57.1291 73.8541Z" fill="#383A41"/>
<path d="M47.5137 57.2128C46.9784 56.2369 46.2296 55.5931 45.325 55.4541C44.8371 55.3796 44.3391 55.4609 43.8512 55.6642C43.8478 55.6608 43.7563 55.7049 43.7563 55.7049C43.3904 55.8709 43.0312 56.1081 42.6823 56.4097C41.2661 57.6432 40.0599 59.9338 39.5585 62.6684C39.0807 65.281 39.3586 67.7005 40.1683 69.2999C40.707 70.3639 41.4829 71.0721 42.4383 71.2178C43.3768 71.3635 44.3424 70.9467 45.22 70.1301C46.5752 68.8695 47.7204 66.6466 48.2015 64.0035C48.6961 61.3028 48.3878 58.8088 47.5137 57.2128ZM41.0729 61.8619C41.615 59.7949 42.4587 58.6699 42.4587 58.6699C42.9432 57.9685 43.4819 57.4466 44.0375 57.1688C44.4847 56.9146 45.0472 56.8909 45.6096 57.1416C45.8976 57.2704 46.1517 57.4737 46.3448 57.7211C46.3448 57.7211 46.3448 57.7211 46.3448 57.7245C46.3821 57.7821 46.4058 57.8227 46.4363 57.8702C46.4735 57.9413 46.5108 58.0091 46.5481 58.0837C46.7378 58.47 46.8699 58.8732 46.9716 59.3374C46.9818 59.3917 46.9919 59.4493 47.0021 59.5069C47.202 60.9267 47.1918 61.1334 47.1817 62.6278C47.1817 62.7125 47.141 63.275 47.1308 63.3597C47.0597 63.9188 46.8395 65.0913 46.1822 66.6703C45.9857 67.2837 45.5384 67.8462 45.552 67.8563C44.7795 69.1643 43.5835 69.9403 42.7636 69.842C42.147 69.7709 41.8048 69.4219 41.5981 69.1914C41.0255 68.5442 40.9815 68.1884 40.89 67.9004C40.6969 67.2837 40.7273 66.9719 40.6969 66.6534C40.5478 65.0472 40.724 63.8646 40.8968 62.7836C40.9205 62.6379 40.995 62.2753 41.0424 62.0415C41.0424 62.0415 41.056 61.9636 41.0729 61.8857" fill="#383A41"/>
<path d="M41.1814 61.8247C41.1949 61.7603 41.2085 61.7061 41.2152 61.6688L41.1814 61.8247Z" fill="#383A41"/>
<path d="M77.5355 49.5953C77.4644 49.3547 77.2984 49.1683 77.0951 49.0633C76.8952 48.9514 76.6512 48.9209 76.4141 48.9887L76.3768 48.9989C75.3536 49.3039 74.283 49.6258 73.2293 49.8664C72.7041 49.9951 72.179 50.1205 71.6538 50.2357C71.132 50.3475 70.6171 50.4356 70.0513 50.5102C68.9501 50.6559 67.8422 50.7813 66.7377 50.8762C66.0296 50.9338 65.3045 50.9846 64.5964 51.0151C64.6981 50.988 64.7963 50.9643 64.9014 50.9338C65.2097 50.849 65.5112 50.7609 65.8094 50.6661C66.4057 50.4797 66.9918 50.2764 67.5712 50.0663C68.7299 49.6427 69.8547 49.1819 70.9762 48.6905C72.0977 48.2093 73.2767 47.6638 74.3135 46.9928C75.3604 46.3016 76.3429 45.5798 77.2645 44.6818C77.5491 44.404 77.6202 43.9634 77.4136 43.6043C77.3187 43.4416 77.1832 43.323 77.0239 43.2485C76.7664 43.1197 76.4513 43.1163 76.1837 43.2722L76.1464 43.2925C75.1774 43.8516 74.1474 44.4277 73.1242 44.919C72.0875 45.4273 71.1049 45.9119 70.0004 46.288C68.9027 46.6709 67.7846 47.0301 66.6733 47.3419C66.1177 47.4977 65.5586 47.6401 65.003 47.7688L64.6337 47.8468C64.9149 47.7282 65.1893 47.6028 65.4536 47.474C66.0601 47.1792 66.6394 46.8641 67.2053 46.5388C68.3403 45.8848 69.4211 45.1867 70.4815 44.4616C71.5691 43.7296 72.6499 42.9333 73.5918 42.0252C74.5337 41.0967 75.3977 40.1513 76.16 39.0263C76.3836 38.6942 76.3633 38.2401 76.082 37.9318C75.9973 37.8403 75.8957 37.7691 75.7873 37.7217C75.4722 37.5726 75.086 37.6132 74.8115 37.864L74.7776 37.8945C73.9103 38.684 72.9718 39.5007 72.0197 40.2225C71.0643 40.9578 70.1292 41.6762 69.0823 42.2759C68.8857 42.3911 68.6859 42.4962 68.4893 42.608C67.6186 43.1027 66.7411 43.5771 65.8534 44.0041C65.6806 44.0854 65.5112 44.1634 65.3384 44.2413C65.0165 44.3904 64.6913 44.5293 64.3694 44.6615C64.427 44.6208 64.488 44.5836 64.5456 44.5429C64.9251 44.2752 65.2842 43.9939 65.6332 43.7127C65.8263 43.5568 66.0194 43.4009 66.2092 43.2417C67.2493 42.3573 68.2183 41.422 69.1466 40.4766C69.1568 40.463 69.1703 40.4529 69.1839 40.4393C70.1698 39.4363 71.0914 38.4028 71.874 37.2642C72.6465 36.1087 73.3377 34.9498 73.8764 33.6283C74.0289 33.2555 73.9103 32.8116 73.5681 32.5676C73.5613 32.5643 73.5579 32.5643 73.5511 32.5609C73.1514 32.2796 72.5991 32.3745 72.3179 32.7744L72.2908 32.8116C71.5793 33.8214 70.7966 34.8651 69.9733 35.8173C69.7294 36.1053 69.4787 36.3934 69.2313 36.678C68.6486 37.3422 68.0489 37.986 67.3984 38.562C67.0731 38.8501 66.7411 39.1279 66.4124 39.4058C65.8161 39.9107 65.2131 40.402 64.5964 40.8595C64.6913 40.7375 64.7896 40.6121 64.881 40.4902C65.3892 39.7921 65.8602 39.0805 66.3074 38.3655C66.6191 37.8674 66.9207 37.3693 67.2154 36.8644C67.7338 35.9969 68.2081 35.1057 68.6181 34.1874C68.801 33.7774 68.9772 33.364 69.1297 32.9404C69.621 31.568 70.0174 30.2058 70.2274 28.7182C70.285 28.3116 70.0512 27.905 69.6481 27.7626C69.6481 27.7626 69.6481 27.7626 69.6447 27.7626C69.6379 27.7626 69.6345 27.7559 69.6311 27.7559C69.1703 27.5932 68.6655 27.8338 68.5029 28.2946L68.4893 28.3387C68.1167 29.3925 67.666 30.4735 67.1782 31.5206C67.1002 31.6866 67.0325 31.8594 66.9511 32.0221C66.4023 33.1539 65.8263 34.2687 65.1589 35.3124C65.1182 35.3734 65.0809 35.4378 65.0437 35.4988C64.5422 36.2375 64.0171 36.9525 63.4784 37.6505C61.8216 39.4939 59.0332 41.3407 57.5255 42.076C56.7903 42.4318 56.0415 42.9232 55.2894 43.2891C55.2792 43.2959 55.2656 43.3027 55.2555 43.3061C54.7473 43.5534 54.3136 43.9465 54.0561 44.448C53.9917 44.5768 53.9375 44.7089 53.8935 44.8479C53.8121 45.0918 53.7647 45.3494 53.7647 45.6171C53.7647 46.5828 54.2899 47.5079 55.0793 47.9247C55.3436 48.067 55.6349 48.1517 55.9466 48.1585C55.9975 48.1585 56.0381 48.1517 56.0856 48.1483C56.3566 48.1212 56.5057 48.0026 56.5057 48.0026C56.5057 48.0026 56.2956 47.4367 56.6175 47.1792C56.6717 47.1453 56.7259 47.1148 56.7869 47.0877C56.936 47.0199 57.102 46.9793 57.2748 46.9793C57.4374 46.9793 57.5933 47.0132 57.7355 47.0708C58.1557 47.2538 58.4504 47.6739 58.4504 48.1619C58.4504 48.7651 57.9998 49.2598 57.4171 49.3377C57.1528 49.4428 56.6446 49.4563 56.3227 49.4563C55.6519 49.4563 54.998 49.3852 54.3644 49.27C53.4937 49.1107 52.6602 48.8328 51.8843 48.477C50.9424 48.0433 49.2111 46.7726 49.2382 46.7014C47.4561 45.0478 46.3279 42.7741 46.233 40.2597C46.2296 40.1445 46.2127 40.0293 46.2127 39.9141C46.2127 39.5515 46.2398 39.1584 46.2804 38.806C46.355 38.1859 46.4939 37.576 46.687 36.9897C47.036 35.9359 47.5611 34.9498 48.2387 34.1027C48.3031 34.0214 48.608 33.6859 49.0044 33.2928C49.0282 33.2691 49.0519 33.2454 49.0756 33.225C49.079 33.2216 49.0824 33.2183 49.0891 33.2115C49.5228 32.7845 50.0514 32.3067 50.4986 32.0119C50.4986 32.0119 50.4986 32.0119 50.502 32.0119C50.4715 31.9916 50.4207 31.9475 50.3732 31.9001C50.3156 31.8425 50.258 31.7815 50.2242 31.7476C49.4042 31.6663 49.1129 31.2766 48.974 30.9479C48.9706 30.9377 48.9672 30.9276 48.9604 30.9174C48.9502 30.8903 48.9367 30.8632 48.9299 30.8395C48.8859 30.7175 48.8893 30.3414 48.9028 30.2905C48.9638 29.9889 49.1467 29.6874 49.3026 29.5416C49.3771 29.4603 49.4517 29.3858 49.533 29.3248C49.7803 29.135 50.0615 29.03 50.3597 28.9724C50.4342 28.9554 50.5088 28.9419 50.5833 28.9351C50.5935 28.9351 50.6036 28.9317 50.6138 28.9317C51.3761 28.8504 52.1283 29.1825 52.4298 29.9618V29.9686C52.3891 29.9991 51.9487 30.0804 51.9487 30.0804C51.7928 29.745 51.532 29.606 51.227 29.6264C51.1254 29.6331 51.0204 29.6602 50.9086 29.7043C50.8374 29.7314 50.7764 29.7687 50.7256 29.8127C50.2377 30.2295 50.6646 31.2834 51.3422 31.3545C51.4473 31.3647 51.5591 31.3545 51.6777 31.3105C51.681 31.3105 51.6878 31.3105 51.6912 31.3071C51.9894 31.1885 53.8799 30.7344 55.0149 30.5548C55.2318 30.5209 55.4249 30.4938 55.574 30.4837C55.5773 30.4837 55.5841 30.4769 55.5875 30.4769C55.784 30.1584 55.7908 28.0574 54.1374 27.373C52.8296 26.8308 51.6946 26.7461 50.668 26.7427C49.7363 26.7427 48.8926 26.8376 48.0253 27.0273C44.6609 27.766 42.6111 29.7179 40.7375 33.9332C39.467 36.4272 39.0096 38.8196 38.8266 39.477C38.8266 39.477 38.7555 39.477 38.6403 39.477C38.4506 38.7721 37.9966 36.3934 36.743 33.9366C34.866 29.7179 32.8094 27.7694 29.445 27.0273C28.5777 26.8376 27.7205 26.7393 26.7921 26.7427C25.7656 26.7427 24.6305 26.8308 23.3227 27.373C21.6694 28.0574 21.6761 30.1584 21.8726 30.4769C21.876 30.4769 21.8828 30.4837 21.8862 30.4837C22.0319 30.4938 22.225 30.5176 22.4452 30.5548C23.5836 30.7344 25.4708 31.1885 25.7689 31.3071C25.7723 31.3071 25.7791 31.3071 25.7825 31.3105C25.8977 31.3545 26.0095 31.3647 26.1179 31.3545C26.8633 31.2732 27.3105 30.0025 26.5584 29.7043C26.4499 29.6602 26.3415 29.6365 26.2399 29.6264C25.935 29.6026 25.6741 29.745 25.5182 30.0804C25.5182 30.0804 25.0541 29.9923 25.0337 29.9652V29.9584C25.3387 29.1791 26.0908 28.8504 26.8531 28.9283C26.8633 28.9283 26.8735 28.9317 26.8836 28.9317C26.9582 28.9385 27.0327 28.952 27.1072 28.969C27.5036 29.0469 27.8729 29.2062 28.1677 29.5416C28.3236 29.6874 28.5031 29.9889 28.5675 30.2939C28.5811 30.3481 28.5844 30.7209 28.5404 30.8429C28.5336 30.8666 28.5201 30.8937 28.5099 30.9208C28.5065 30.931 28.5031 30.9411 28.4964 30.9513C28.3574 31.2834 28.0661 31.6731 27.2461 31.751C27.2157 31.7849 27.1547 31.8493 27.0971 31.9035C27.0462 31.9509 26.9988 31.995 26.9683 32.0153C27.4494 32.3304 28.0152 32.8523 28.4659 33.2996C28.8589 33.6893 29.1638 34.0281 29.2316 34.1095C29.9058 34.9566 30.4343 35.9427 30.7833 36.9965C30.9764 37.5861 31.1187 38.1961 31.1899 38.8162C31.2305 39.1686 31.2576 39.5651 31.2576 39.9276C31.2576 40.0462 31.2441 40.1648 31.2373 40.2801C31.2305 40.4902 31.2136 40.6969 31.1899 40.9036C30.9663 41.9574 30.4953 43.6686 29.6246 45.1156C29.5805 45.1799 29.5365 45.2477 29.4891 45.3121H29.5026C29.1706 45.8339 28.7843 46.3117 28.3337 46.7048C28.3608 46.776 26.6295 48.0467 25.6876 48.4804C24.9118 48.8362 24.0817 49.1107 23.2075 49.2734C22.574 49.3886 21.9201 49.4597 21.2492 49.4597C20.9274 49.4597 20.4192 49.4428 20.1549 49.3411C19.5721 49.2632 19.1215 48.7685 19.1215 48.1653C19.1215 47.6773 19.4163 47.2605 19.8364 47.0742C19.9787 47.0132 20.1346 46.9827 20.2972 46.9827C20.4734 46.9827 20.636 47.0233 20.7851 47.0911C20.8427 47.1182 20.9003 47.1487 20.9545 47.1826C21.2763 47.4367 21.0663 48.006 21.0663 48.006C21.0663 48.006 21.2154 48.1212 21.4864 48.1517C21.5304 48.1551 21.5711 48.1653 21.6253 48.1619C21.937 48.1517 22.2318 48.067 22.4927 47.9281C23.2821 47.5147 23.8072 46.5862 23.8072 45.6205C23.8072 45.3494 23.7564 45.0918 23.6785 44.8513C23.6344 44.7123 23.5802 44.5802 23.5159 44.4514C23.2584 43.9499 22.8247 43.5568 22.3165 43.3095C22.3063 43.3027 22.2928 43.2959 22.2826 43.2925C21.5304 42.9232 20.7783 42.4352 20.0465 42.0794C18.5388 41.3441 15.747 39.5007 14.0936 37.6539C13.5583 36.9559 13.0331 36.2409 12.5283 35.5022C12.4876 35.4412 12.4504 35.3768 12.4131 35.3158C11.7423 34.2687 11.1697 33.1573 10.6208 32.0255C10.5395 31.8628 10.4717 31.69 10.3938 31.524C9.90592 30.4803 9.4553 29.3959 9.08261 28.3421L9.06906 28.298C8.90643 27.8372 8.4016 27.5966 7.94082 27.7593C7.93405 27.7593 7.93066 27.766 7.92727 27.766C7.92727 27.766 7.92727 27.766 7.92388 27.766C7.5207 27.9083 7.28692 28.315 7.34452 28.7216C7.55458 30.2058 7.95099 31.568 8.44226 32.9438C8.59472 33.364 8.77091 33.7808 8.95386 34.1908C9.36382 35.1057 9.83815 35.9969 10.3565 36.8678C10.6513 37.3727 10.9528 37.8708 11.2645 38.3689C11.7118 39.0839 12.1827 39.7955 12.6909 40.4935C12.7824 40.6189 12.8807 40.7409 12.9755 40.8629C12.3589 40.402 11.7592 39.9141 11.1595 39.4092C10.8309 39.1313 10.4988 38.8535 10.1736 38.5654C9.52306 37.9894 8.92337 37.3456 8.34062 36.6814C8.0899 36.3967 7.84257 36.1121 7.59863 35.8207C6.77532 34.8685 5.98929 33.8248 5.28118 32.815L5.25407 32.7777C4.97286 32.3779 4.4206 32.283 4.02081 32.5643C4.01403 32.5676 4.01064 32.5676 4.00387 32.571C3.66167 32.8116 3.54309 33.2555 3.69555 33.6317C4.23764 34.9532 4.92543 36.1121 5.69791 37.2676C6.48056 38.4062 7.40212 39.4431 8.38805 40.4427C8.39822 40.4563 8.41177 40.4664 8.42532 40.48C9.35366 41.4288 10.3227 42.3606 11.3628 43.2451C11.5491 43.4043 11.7456 43.5602 11.9388 43.7161C12.2877 44.0007 12.6469 44.2786 13.0263 44.5463C13.0839 44.5869 13.1449 44.6276 13.2025 44.6649C12.8807 44.5327 12.5554 44.3938 12.2335 44.2447C12.0607 44.1668 11.8879 44.0888 11.7185 44.0075C10.8309 43.5805 9.95335 43.1061 9.08261 42.6114C8.8861 42.4996 8.6862 42.3945 8.48969 42.2793C7.44278 41.6795 6.51105 40.9612 5.55222 40.2258C4.59678 39.5041 3.66167 38.6874 2.79432 37.8979L2.76044 37.8674C2.486 37.6166 2.09976 37.5726 1.78467 37.7251C1.67625 37.7725 1.578 37.8437 1.48991 37.9352C1.20869 38.2435 1.18837 38.6976 1.41198 39.0297C2.17091 40.1513 3.03826 41.1001 3.98015 42.0286C4.92204 42.9367 6.00284 43.733 7.09041 44.465C8.15089 45.1901 9.23169 45.8916 10.3667 46.5422C10.9325 46.8675 11.5153 47.1826 12.1183 47.4774C12.3826 47.6062 12.657 47.7282 12.9383 47.8502L12.569 47.7722C12.0133 47.6468 11.4577 47.5011 10.8986 47.3452C9.78733 47.0335 8.66587 46.6743 7.57152 46.2914C6.46701 45.9153 5.48107 45.4307 4.44771 44.9224C3.4245 44.4311 2.39452 43.855 1.42553 43.2959L1.38826 43.2756C1.1206 43.1197 0.805512 43.1231 0.548017 43.2518C0.392165 43.3264 0.253253 43.4484 0.158387 43.6076C-0.0482863 43.9668 0.0228635 44.4107 0.307463 44.6852C1.22902 45.5832 2.21157 46.305 3.25849 46.9962C4.29863 47.6672 5.4743 48.2127 6.59575 48.6939C7.71721 49.1886 8.84206 49.6461 10.0008 50.0697C10.5801 50.2798 11.1629 50.4831 11.7626 50.6694C12.0607 50.7643 12.3623 50.8524 12.6706 50.9371C12.7756 50.9676 12.8773 50.9914 12.9755 51.0185C12.2708 50.988 11.5457 50.9371 10.8343 50.8795C9.72973 50.7847 8.62183 50.6593 7.5207 50.5136C6.95489 50.439 6.4399 50.3475 5.91814 50.2391C5.39637 50.1239 4.87122 49.9985 4.34268 49.8697C3.29237 49.6258 2.21834 49.3072 1.19514 49.0023L1.15787 48.9921C0.920707 48.9209 0.676764 48.9548 0.476867 49.0666C0.270194 49.1751 0.107566 49.3581 0.0364159 49.5987C-0.0787791 49.9917 0.0872372 50.4018 0.422658 50.6085C1.45941 51.2455 2.51311 51.7165 3.6244 52.1469C4.71875 52.5637 5.93508 52.8314 7.05315 53.0652C8.18138 53.3092 9.313 53.5328 10.4548 53.7259C11.4814 53.8954 12.4809 54.0445 13.5583 54.1563C12.9044 54.2342 12.2471 54.3088 11.5932 54.3732C10.5395 54.4748 9.4824 54.5629 8.42532 54.6307C8.16105 54.651 7.90355 54.6578 7.62912 54.668L6.87019 54.6815L5.33539 54.651C4.30879 54.6409 3.25171 54.5663 2.2319 54.5121H2.19802C2.01506 54.5019 1.83888 54.5494 1.69319 54.6375C1.43908 54.7832 1.2629 55.0475 1.24596 55.3592C1.22563 55.7659 1.47974 56.1217 1.84565 56.2471C2.92984 56.6198 4.00048 56.84 5.11177 57.023C5.66742 57.1044 6.22645 57.1552 6.79226 57.1789C7.07347 57.1925 7.35807 57.1992 7.64267 57.2026L8.4592 57.2128C9.55017 57.2365 10.6377 57.2399 11.7287 57.2264C12.4843 57.2162 12.6469 57.2162 13.4058 57.1891L13.5041 57.5178C12.2572 57.9108 11.4068 58.165 10.1499 58.514C9.1707 58.7885 8.24575 58.9715 7.28015 59.1714C6.32471 59.3849 5.332 59.5577 4.37317 59.7542L4.34606 59.761C4.28169 59.7746 4.21732 59.7949 4.15972 59.822C3.77686 59.9847 3.54647 60.3981 3.63457 60.8182C3.71588 61.2113 4.04791 61.4926 4.42738 61.5265C5.49801 61.6213 6.53138 61.5908 7.58846 61.5265C8.63877 61.4553 9.70263 61.2181 10.7055 61.0317C11.7152 60.8454 13.2025 60.4929 14.202 60.2829L14.2799 60.5336C13.8632 60.7708 12.962 61.252 12.5452 61.4824C12.1285 61.7128 11.7118 61.9229 11.295 62.1262C10.8817 62.3262 10.4683 62.5227 10.055 62.7328C10.055 62.7328 10.0448 62.7396 10.0381 62.743C9.20458 63.1733 8.34401 63.5867 7.51054 64.034L7.49698 64.0408C7.06331 64.2746 6.90407 64.8168 7.13785 65.2505C7.32758 65.5995 7.71721 65.7724 8.0899 65.7012C9.07245 65.5148 10.0042 65.2336 10.9494 64.932C11.8879 64.6202 12.796 64.1831 13.687 63.7934C13.9242 63.6884 14.8559 63.2885 15.0931 63.1835L15.2557 63.9256C15.11 64.0272 14.5883 64.3932 14.5849 64.3932L13.5549 65.2844C12.8773 65.8876 12.2437 66.5483 11.644 67.2532C11.3221 67.6327 11.3662 68.1986 11.7423 68.5205C12.0269 68.7645 12.4233 68.795 12.7384 68.6289C12.7417 68.6289 12.7451 68.6255 12.7519 68.6221C12.7519 68.6221 12.7553 68.6221 12.7587 68.6221C13.582 68.1952 14.3646 67.7174 15.1032 67.182L15.8859 66.7245C15.8859 66.7415 16.3162 69.3168 16.428 70.3808C16.777 73.705 16.6787 77.5307 17.0378 77.978C17.336 78.3508 17.9323 78.2661 18.4676 78.283C18.4303 78.1542 18.4134 78.039 18.3863 77.9136C18.3863 77.9001 18.3863 77.8899 18.3863 77.8764C18.0034 76.094 18.532 74.7792 18.8606 74.2438C18.8674 74.2336 18.8606 74.2235 18.8674 74.2167C18.8742 74.2065 18.9047 74.0981 18.9047 74.0744C18.7895 71.9599 18.5049 68.551 18.0272 65.9011C17.2648 61.679 15.9875 54.9187 15.625 53.0042C15.6047 52.889 15.6453 52.7873 15.7165 52.7162C15.7944 52.645 15.9096 52.6111 16.0282 52.6416C17.3224 52.9703 19.4502 53.1601 20.8223 53.2515C21.8489 53.3193 24.2951 53.3125 26.8192 52.5366C25.7486 55.0611 25.1388 57.9549 25.1388 61.0317C25.1388 67.06 27.4799 72.3936 31.0442 75.5925C30.6207 75.6602 30.309 75.7178 30.2209 75.7483C29.3027 76.0703 28.5844 76.5345 28.1779 76.7683C28.1677 76.7751 28.1609 76.7819 28.1508 76.7886C28.1237 76.8022 28.0932 76.8123 28.0695 76.8259C27.9305 76.9038 27.9204 77.0597 27.9543 77.2156C28.0491 77.6527 28.2897 78.1949 28.5268 78.5168C28.5811 78.588 28.6319 78.6557 28.72 78.6625C32.0538 78.8286 34.5034 79.0827 36.4685 80.3263C36.4787 80.3331 36.4855 80.3365 36.4956 80.3433C36.5498 80.3771 36.5973 80.4178 36.6515 80.4551C37.5798 81.187 37.9525 82.6983 37.197 83.7759C36.9361 84.0436 36.665 84.3045 36.3974 84.5519C35.4826 85.338 34.4933 86.009 33.4531 86.5139C32.413 87.0221 31.322 87.3373 30.2209 87.4965C29.1096 87.6999 28.0017 87.8456 26.555 88.1878H26.5448C26.4974 88.2014 26.4533 88.2217 26.4161 88.2488C26.2975 88.3267 26.2297 88.4725 26.2636 88.6216C26.2772 88.6826 26.3076 88.7368 26.3483 88.7808C27.4122 89.9296 28.9842 90.3836 30.4987 90.2989C31.6439 90.2108 32.7586 89.8821 33.775 89.3941C34.1138 89.2315 34.4458 89.0519 34.7609 88.8587C36.0247 88.0794 37.1089 87.0628 37.9288 85.8633C37.9457 85.8395 37.9627 85.8124 37.9796 85.7887C37.9796 85.8023 37.9728 85.8158 37.9694 85.8294C37.7831 86.4766 37.1665 88.1743 36.6718 88.7435C36.1738 89.3196 35.7164 89.8686 35.1878 90.3023C34.7948 90.6242 34.3815 90.8987 33.9207 91.1291C33.7682 91.2037 33.6124 91.2748 33.4531 91.3392C32.7891 91.6137 32.0234 91.7933 31.1255 91.9864H31.1153C31.0713 91.9966 31.0306 92.0169 30.9934 92.044C30.8782 92.1152 30.8138 92.2507 30.8409 92.3931C30.8579 92.4778 30.9053 92.5489 30.9697 92.593C31.7692 93.1589 32.7755 93.4266 33.8224 93.3622C34.351 93.3317 34.8795 93.2029 35.3776 92.9962C35.8722 92.7963 36.3364 92.5184 36.743 92.1796C36.8785 92.0677 36.9903 91.9424 37.1123 91.817C37.3427 92.2744 37.5866 92.7353 37.7628 93.1927C37.9966 93.7383 38.1795 94.2839 38.481 94.8294C38.5488 94.9514 38.6979 95.009 38.7555 94.9989C38.7555 95.009 38.9893 94.9514 39.057 94.8294C39.3552 94.2839 39.5686 93.7383 39.8024 93.1927C39.9786 92.7353 40.2225 92.2778 40.4529 91.817C40.5749 91.9424 40.6833 92.0677 40.8222 92.1796C41.2288 92.5184 41.693 92.7963 42.1876 92.9962C42.6857 93.2029 43.2142 93.3283 43.7427 93.3622C44.7863 93.4232 45.7959 93.1589 46.5955 92.593C46.6599 92.5489 46.7073 92.4778 46.7243 92.3931C46.7548 92.2541 46.687 92.1152 46.5718 92.044C46.5345 92.0169 46.4939 92 46.4498 91.9898H46.4397C45.5418 91.7933 44.7761 91.6171 44.1121 91.3392C43.9494 91.2748 43.7936 91.2037 43.6445 91.1291C43.1837 90.8987 42.7704 90.6242 42.3773 90.3023C41.8488 89.8686 41.3914 89.3196 40.8934 88.7435C40.3987 88.1743 39.7821 86.4766 39.5957 85.8294C39.5923 85.8158 39.589 85.8023 39.5856 85.7887C39.6025 85.8158 39.6194 85.8395 39.6364 85.8633C40.4563 87.0594 41.5405 88.076 42.8042 88.8587C43.1227 89.0519 43.4514 89.2315 43.7902 89.3941C44.8066 89.8821 45.9213 90.2108 47.0665 90.2989C48.5809 90.3836 50.153 89.9296 51.2169 88.7808C51.2575 88.7368 51.288 88.6826 51.3016 88.6216C51.3355 88.4725 51.2711 88.3301 51.1491 88.2488C51.1118 88.2217 51.0678 88.2014 51.0204 88.1912H51.0102C49.5601 87.8456 48.4522 87.6999 47.3443 87.4965C46.2398 87.3373 45.1522 87.0221 44.1121 86.5139C43.0719 86.0124 42.0792 85.3414 41.1678 84.5519C40.9001 84.3045 40.6291 84.047 40.3682 83.7759C39.6127 82.6983 39.9854 81.187 40.9137 80.4551C40.9679 80.4212 41.0153 80.3771 41.0695 80.3433C41.0797 80.3365 41.0865 80.3331 41.0966 80.3263C43.0617 79.0793 45.5113 78.8286 48.8452 78.6625C48.9333 78.6591 48.9841 78.588 49.0383 78.5168C49.2755 78.1949 49.5161 77.6527 49.6109 77.2156C49.6448 77.0597 49.6346 76.9038 49.4957 76.8259C49.472 76.8123 49.4415 76.8022 49.4144 76.7886C49.4042 76.7819 49.3941 76.7717 49.3839 76.7683C48.9807 76.5345 48.2523 76.0703 47.3341 75.7483C47.2494 75.7178 46.9445 75.6636 46.5515 75.5992C50.1225 72.4004 52.4705 67.0668 52.4705 61.0283C52.4705 57.9549 51.8538 55.0644 50.7866 52.5433C53.2972 53.3092 55.7298 53.3159 56.753 53.2482C58.1252 53.1567 60.2529 52.9669 61.5471 52.6382C61.6657 52.6077 61.7775 52.6416 61.8589 52.7128C61.93 52.7839 61.9707 52.889 61.9503 53.0008C61.5878 54.9153 60.3105 61.6756 59.5482 65.8977C59.0705 68.5442 58.7859 71.9565 58.6707 74.071C58.6707 74.0947 58.7012 74.1998 58.7079 74.2133C58.7113 74.2235 58.7079 74.2336 58.7147 74.2404C59.0434 74.7792 59.5719 76.0906 59.189 77.873C59.189 77.8865 59.189 77.8967 59.189 77.9102C59.1619 78.0322 59.145 78.1508 59.1077 78.2796C59.643 78.2627 60.2394 78.3474 60.5375 77.9746C60.8966 77.5273 60.7984 73.7016 61.1474 70.3774C61.2592 69.31 61.6861 66.7381 61.6894 66.7212L62.4721 67.1786C63.2141 67.7106 63.9934 68.1884 64.8167 68.6188C64.8167 68.6188 64.82 68.6188 64.8234 68.6188C64.8268 68.6188 64.8302 68.6222 64.837 68.6255C65.1521 68.7882 65.5485 68.7611 65.8331 68.5171C66.2126 68.1952 66.2532 67.6293 65.9313 67.2498C65.3316 66.545 64.6981 65.8842 64.0205 65.281L62.9905 64.3898C62.9905 64.3898 62.4653 64.0238 62.3196 63.9222L62.4823 63.1801C62.716 63.2851 63.6512 63.685 63.8883 63.79C64.7794 64.1797 65.6874 64.6168 66.6259 64.9286C67.5678 65.2302 68.4995 65.508 69.4854 65.6978C69.8581 65.769 70.2478 65.5961 70.4375 65.2471C70.6713 64.8134 70.512 64.2712 70.0784 64.0374L70.0648 64.0306C69.2347 63.5799 68.3708 63.1699 67.5373 62.7396C67.5305 62.7396 67.5271 62.7362 67.5203 62.7328C67.107 62.5227 66.6937 62.3262 66.2803 62.1262C65.8636 61.9229 65.4468 61.7128 65.0301 61.4824C64.6134 61.252 63.7121 60.7708 63.2954 60.5336L63.3733 60.2829C64.3728 60.4929 65.8602 60.8454 66.8698 61.0317C67.8727 61.2181 68.9366 61.4553 69.9869 61.5265C71.044 61.5908 72.0773 61.6213 73.148 61.5265C73.5308 61.4926 73.8595 61.2147 73.9408 60.8182C74.0289 60.3947 73.7985 59.9813 73.4156 59.822C73.358 59.7949 73.297 59.7746 73.2293 59.761L73.2022 59.7542C72.2433 59.5577 71.2506 59.3849 70.2952 59.1714C69.3296 58.9715 68.4046 58.7885 67.4255 58.514C66.1685 58.1616 65.3181 57.9075 64.0713 57.5178L64.1695 57.1891C64.9251 57.2162 65.0911 57.2162 65.8466 57.2264C66.9342 57.2399 68.0252 57.2365 69.1161 57.2128L69.9327 57.2026C70.2173 57.1992 70.5019 57.1925 70.7831 57.1789C71.3489 57.1552 71.9079 57.1044 72.4636 57.023C73.5749 56.84 74.6455 56.6198 75.7297 56.2471C76.0956 56.1217 76.3497 55.7625 76.3294 55.3592C76.3124 55.0475 76.1363 54.7798 75.8821 54.6375C75.7365 54.5494 75.5603 54.5019 75.3773 54.5121H75.3434C74.3236 54.5697 73.2665 54.6409 72.24 54.651L70.7052 54.6815L69.9462 54.668C69.6752 54.6578 69.4143 54.651 69.15 54.6307C68.0929 54.5629 67.0359 54.4748 65.9822 54.3732C65.3283 54.3088 64.671 54.2342 64.0171 54.1563C65.0911 54.0445 66.0906 53.8954 67.1206 53.7259C68.2623 53.5328 69.394 53.3125 70.5222 53.0652C71.6403 52.8348 72.8566 52.5637 73.9509 52.1469C75.0622 51.7165 76.1159 51.2455 77.1527 50.6085C77.4847 50.4018 77.6541 49.9917 77.5389 49.5987L77.5355 49.5953ZM38.7961 76.7785C38.7961 76.7785 38.7656 76.7785 38.7521 76.7785C34.788 76.7581 31.2814 74.0947 29.1638 70.042C30.1497 68.3748 32.1928 64.7388 32.1928 64.7388C32.3859 65.4843 33.5243 70.4147 33.5243 70.4147C33.5243 70.4147 32.0843 71.0348 32.8128 71.4787C33.5412 71.9226 35.0862 71.5939 35.0862 71.5939C35.0862 71.5939 35.4792 71.9497 35.9027 72.2479C36.4075 72.6274 36.9767 72.9087 37.5934 73.0714C37.8271 73.1628 37.9864 73.2171 37.9864 73.2171C37.9864 73.2171 37.8407 73.8982 38.0609 74.254C38.1456 74.3929 38.2269 74.5115 38.5048 74.5115C38.5827 74.5115 38.6674 74.4946 38.7453 74.4641C38.9859 74.376 39.2163 74.1828 39.345 74.0473C39.677 73.705 39.7956 73.461 40.0463 73.129C40.0362 73.112 40.0463 73.0917 40.0701 73.0646C40.6596 72.9053 41.283 72.6918 41.8759 71.9497C40.436 71.3872 39.2163 70.0725 38.7453 67.9004C38.5725 67.1075 38.4777 66.2434 38.4675 65.3318C38.4573 64.3796 38.5353 63.38 38.725 62.3533C38.7318 62.316 38.7385 62.2821 38.7453 62.2482C39.4229 58.6868 41.632 55.9726 42.2723 55.7388C42.0724 55.2813 42.1571 54.1224 40.6088 53.482C40.2767 53.343 39.2366 53.282 39.1417 52.8043C39.6296 52.4722 40.0023 51.8487 40.0938 51.0998C40.2157 50.0934 39.7922 49.192 39.1146 48.8701C39.2772 48.5008 39.6737 47.9925 39.6737 47.9925L38.9012 47.1623L38.7453 47.247L37.9017 47.6977C37.9017 47.6977 38.1558 48.4228 38.1524 48.8125C37.4849 49.0362 36.9903 49.5614 36.8751 50.4932C36.8209 50.9507 37.0682 51.6589 37.59 52.1808C37.8712 52.462 37.9254 52.6992 37.7526 52.8754C37.3698 53.2583 36.5837 53.1634 36.1771 53.7564C35.923 54.1292 35.6147 54.9899 35.6147 54.9899C35.425 55.3762 34.3001 58.0701 33.7513 59.0189C33.6124 59.2561 33.0533 60.1405 33.0533 60.1405C33.0533 60.1405 32.8094 60.31 32.535 60.5268C32.3147 60.7064 32.0708 60.9165 31.9251 61.1063C31.5016 61.6484 31.671 62.6244 31.9319 63.0344L28.6658 69.0017C28.537 68.7306 28.476 68.5781 28.476 68.5781C27.5578 66.3382 27.0327 63.7663 27.0327 61.0351C27.0327 52.6721 31.9319 45.8136 38.088 45.3257H39.5144C40.192 45.3833 40.8561 45.5154 41.4998 45.7221C41.8353 45.8272 42.1673 45.9559 42.4925 46.0983C47.1715 48.1788 50.5528 54.0885 50.5528 61.0385C50.5528 69.7201 45.2776 76.7785 38.7928 76.7785H38.7961ZM37.59 59.7271C37.59 59.7271 35.2996 60.5946 34.2087 61.0351L36.438 57.1688C36.4448 57.1891 36.5431 57.7109 37.4511 58.0904C37.424 58.2294 37.59 59.7271 37.59 59.7271Z" fill="#383A41"/>
<path d="M35.4318 4.73385C35.4826 4.73385 35.5131 4.7169 35.5504 4.71013C35.713 4.98121 35.9976 5.17436 36.3432 5.17436H36.3533C36.6955 5.17436 36.9835 4.98799 37.1461 4.71013H38.3896V5.52339C37.5934 5.71315 37.0005 6.43492 37.0005 7.28545C37.0005 7.73952 37.1834 8.15631 37.4545 8.47145C37.1597 8.57989 36.8853 8.73915 36.6481 8.95263C35.9298 9.64051 35.7536 11.0908 36.3669 12.8088C36.7938 13.9948 37.424 14.9741 38.0203 15.5536C38.2913 15.845 38.5657 15.9772 38.8097 15.9772H38.8741C39.1214 15.9772 39.3924 15.8484 39.6635 15.5536C40.2632 14.9741 40.8934 13.9948 41.3169 12.8088C41.9301 11.0908 41.7506 9.64051 41.0357 8.95263C40.7951 8.73576 40.5139 8.57311 40.209 8.46467C40.4766 8.14954 40.6494 7.73274 40.6494 7.28884C40.6494 6.4383 40.0599 5.71654 39.2671 5.52678V4.71352H40.5173C40.663 4.99138 40.9611 5.17775 41.3033 5.17775H41.3135C41.6625 5.17775 41.964 4.98121 42.1165 4.68302C42.1503 4.69318 42.1842 4.70674 42.2181 4.70674C42.4587 4.70674 42.6552 4.51359 42.6552 4.273C42.6552 4.03241 42.4587 3.83926 42.2181 3.83926C42.1876 3.83926 42.1537 3.84943 42.1199 3.8562C41.964 3.56479 41.6591 3.36147 41.3135 3.36147H41.3033C40.9645 3.36147 40.663 3.54784 40.5173 3.8291H39.2671V2.18225C39.5517 2.01959 39.7313 1.73495 39.7313 1.38593C39.7313 1.03691 39.528 0.721768 39.2332 0.57267C39.2535 0.528619 39.2603 0.484567 39.2603 0.433738C39.2603 0.196538 39.0638 0 38.8266 0C38.5895 0 38.3896 0.199926 38.3896 0.433738C38.3896 0.484567 38.4031 0.52523 38.4201 0.57267C38.1151 0.721768 37.9118 1.02335 37.9118 1.38593C37.9118 1.74851 38.0982 2.01959 38.3828 2.18225V3.8291H37.1394C36.9767 3.54784 36.6854 3.36147 36.3466 3.36147H36.3364C35.9773 3.36147 35.6588 3.57834 35.5199 3.88331C35.4894 3.88331 35.4555 3.87315 35.425 3.87315C35.1912 3.87315 34.9913 4.05952 34.9913 4.30689C34.9913 4.55425 35.1912 4.74062 35.425 4.74062L35.4318 4.73385Z" fill="#383A41"/>
<path d="M47.0156 62.2584C46.8293 62.0754 46.6023 62.0043 46.416 62.0076C46.5278 61.7772 46.5955 61.4553 46.5176 61.2283C46.4939 61.1639 46.46 61.0995 46.4126 61.0453C46.1517 60.7132 45.9315 60.6319 45.823 60.6115C45.7519 60.5946 45.4029 60.5607 45.2233 60.7979L45.1929 60.5031C45.0539 60.6217 44.915 61.0012 44.8845 61.0995C44.81 61.3265 44.6609 61.8924 44.6609 61.8924C45.0946 61.2079 45.325 61.1232 45.6977 61.0283C45.3758 61.252 45.1149 61.7704 44.9659 62.2415L45.823 61.6654L45.6299 61.5332C45.735 61.3638 45.84 61.2893 46.0297 61.3977C46.0941 61.435 46.1381 61.5027 46.1517 61.6044C46.1618 61.679 46.1618 61.8687 45.9857 62.0924L44.4339 63.4308C44.3187 63.5291 44.2781 63.6274 44.2882 63.9425C44.2916 64.0476 44.4034 64.1662 44.5999 63.9832L46.2635 62.499C46.3448 62.4346 46.4668 62.4922 46.5007 62.543C46.5989 62.682 46.5413 62.9768 46.294 63.3495L46.1517 63.031C46.0094 63.2208 45.7485 63.6985 45.5283 63.9357C45.5283 63.9357 45.9653 63.973 46.3041 63.7121C46.3956 63.6409 46.4769 63.5698 46.5447 63.502C46.2669 64.2102 45.6401 64.7117 45.6299 64.7151C45.6299 64.7151 46.0602 64.6711 46.2906 64.5525C46.5311 64.4271 46.7582 64.2814 46.9479 64.0577L46.6294 63.9561C46.7886 63.7392 47.0394 63.4715 47.1376 63.031C47.2155 62.6854 47.1715 62.4278 47.0055 62.2618L47.0156 62.2584Z" fill="#383A41"/>
<path d="M43.4683 62.3397L43.6784 61.296L43.3972 61.5163C43.3972 61.5163 43.1905 61.2283 43.1227 61.1571C42.8517 60.8555 42.5772 60.7268 42.3096 60.781C42.0013 60.842 41.9301 61.0521 41.554 60.9538C41.571 61.2384 41.283 61.3536 41.117 61.5841C40.9577 61.8077 40.9577 62.1093 41.1238 62.482C41.1644 62.5735 41.3541 62.8853 41.3541 62.8853L40.9984 62.9971L42.1199 63.3258C42.1199 63.2106 41.9911 62.4515 41.9911 62.4515L41.7336 62.6447C41.632 62.5159 41.5879 62.4278 41.5202 62.3126C41.4151 62.133 41.3474 61.9907 41.4016 61.8653C41.449 61.7569 41.632 61.7433 41.7234 61.7332L42.9804 63.7121C43.0414 63.8307 43.16 63.8341 43.2007 63.7562C43.3192 63.5223 43.326 63.2513 43.2684 63.1869L42.1503 61.4689C42.1944 61.3808 42.3198 61.2757 42.4146 61.2588C42.5739 61.2283 42.6416 61.2757 42.7941 61.4079C42.8957 61.496 42.9974 61.6518 43.0414 61.7128L42.7467 61.828C42.9669 61.9771 43.3497 62.2415 43.4717 62.3431L43.4683 62.3397Z" fill="#383A41"/>
<path d="M43.6851 58.7817C43.8512 59.0257 44.1493 59.334 44.2882 59.4594C44.2882 59.4594 44.0917 59.7 44.0646 59.7475C43.946 59.9542 44.461 60.0287 44.4983 60.0355C44.5593 60.0457 45.0438 60.1507 45.0031 59.9135C44.9929 59.8593 44.8574 59.578 44.8574 59.578C45.0302 59.5069 45.447 59.3069 45.6875 59.1341C45.718 59.1104 45.7959 59.0562 45.823 59.0189C46.294 58.4395 46.1313 58.0701 46.1313 58.0701L45.2606 58.6157C45.1827 58.6665 45.1353 58.6157 45.1353 58.6157C45.2098 58.5716 45.3216 58.3073 45.3419 58.2429C45.3758 58.1345 45.3419 58.0599 45.2098 58.0328C45.0946 58.0091 45.037 58.0498 45.037 58.0498C45.0641 58.0023 45.0607 58.0057 45.0743 57.9854C45.0777 57.9752 45.0844 57.9685 45.0878 57.9583C45.0946 57.9413 45.098 57.9278 45.1014 57.9108C45.1014 57.9075 45.1014 57.9041 45.1014 57.9007C45.1014 57.8939 45.1048 57.8905 45.1048 57.8837C45.1048 57.7617 45.0065 57.6601 44.8811 57.6601C44.7829 57.6601 44.7016 57.7245 44.6745 57.8126C44.6745 57.8194 44.6677 57.8227 44.6643 57.8295C44.6541 57.877 44.6508 57.8465 44.6745 57.9752C44.6745 57.9752 44.6338 57.9244 44.5186 57.9041C44.3899 57.8837 44.356 57.938 44.3492 58.0498C44.3458 58.1209 44.3289 58.3344 44.3865 58.4767C44.3865 58.4835 44.3255 58.5072 44.2713 58.4327L43.6411 57.6228C43.6411 57.6228 43.3633 57.9109 43.6038 58.6191C43.6174 58.6597 43.6682 58.7411 43.6919 58.7715L43.6851 58.7817Z" fill="#383A41"/>
<path d="M42.7704 65.5419C42.8652 65.4471 42.9262 65.3285 42.9533 65.1997L43.0008 64.9455C43.0279 64.8032 42.8686 64.7253 42.7602 64.8236L41.2999 66.2129L41.2593 66.2502C41.2254 66.2366 41.1881 66.2264 41.1509 66.2197C41.0865 66.2129 41.0221 66.2197 40.9611 66.2366C40.8934 66.2569 40.8324 66.2942 40.7748 66.345C40.5579 66.545 40.5139 66.9075 40.6799 67.1583C40.7612 67.2803 40.8798 67.3582 41.0153 67.3718C41.1238 67.3853 41.2288 67.3582 41.3203 67.2972C41.344 67.2803 41.3677 67.2633 41.3914 67.243C41.5236 67.121 41.6354 66.8906 41.5744 66.6907L42.767 65.5385L42.7704 65.5419ZM41.0763 67.0566C40.951 67.0566 40.8459 66.955 40.8459 66.8262C40.8459 66.6974 40.9476 66.5958 41.0763 66.5958C41.2051 66.5958 41.3067 66.6974 41.3067 66.8262C41.3067 66.955 41.2051 67.0566 41.0763 67.0566Z" fill="#383A41"/>
<path d="M45.5113 66.7415C45.4571 66.7347 45.4029 66.7415 45.3487 66.755L44.2679 65.054C44.19 64.9354 44.0545 64.9557 44.0307 65.0946L43.9901 65.2403C43.9596 65.4165 43.9291 65.4199 44.1053 65.7622L44.976 67.0905C44.8913 67.2904 44.9049 67.531 45.0234 67.714C45.1081 67.8394 45.2301 67.9173 45.369 67.9343C45.5079 67.9512 45.6469 67.9038 45.7587 67.8021C45.7587 67.8021 45.762 67.7953 45.7654 67.7953C45.9857 67.5853 46.0263 67.2193 45.8569 66.9651C45.7722 66.8398 45.6502 66.7618 45.5113 66.7449V66.7415ZM45.4402 67.5446C45.3148 67.5446 45.2098 67.4429 45.2098 67.3142C45.2098 67.1854 45.3114 67.0837 45.4402 67.0837C45.5689 67.0837 45.6706 67.1854 45.6706 67.3142C45.6706 67.4429 45.5689 67.5446 45.4402 67.5446Z" fill="#383A41"/>
<path d="M43.1329 68.5239C43.4514 66.8093 44.2815 62.3465 44.2882 62.3025C44.3492 61.9399 44.5457 60.9741 44.5965 60.4286C44.627 60.2219 44.295 60.0965 44.2205 60.3845C44.1188 60.781 43.885 61.8077 43.8071 62.2042C43.8071 62.2042 42.9059 66.7076 42.5603 68.4358C42.54 68.5374 42.4892 68.6255 42.4282 68.7103C42.3875 68.7679 42.357 68.839 42.3435 68.9136C42.3028 69.1609 42.4519 69.3914 42.6721 69.4286C42.8957 69.4659 43.1092 69.2931 43.1464 69.0457C43.1566 68.9881 43.1532 68.9305 43.1464 68.8797C43.1227 68.7611 43.1092 68.6425 43.1295 68.5239H43.1329Z" fill="#383A41"/>
<path d="M45.4251 66.0788L44.3108 66.914C44.2539 66.9567 44.2424 67.0374 44.285 67.0943L44.344 67.1729C44.3866 67.2298 44.4673 67.2414 44.5242 67.1987L45.6385 66.3635C45.6954 66.3209 45.7069 66.2402 45.6643 66.1833L45.6054 66.1046C45.5627 66.0477 45.482 66.0361 45.4251 66.0788Z" fill="#383A41"/>
</svg>
