<svg width="734" height="95" viewBox="0 0 734 95" fill="none" xmlns="http://www.w3.org/2000/svg">
<g clip-path="url(#clip0_1_667)">
<path d="M340.086 13.4069H329.617V60.7178H304.997V13.4069H294.593V70.4563H339.116V79.9974H349.003V60.7178H340.086V13.4069Z" fill="#383A41"/>
<path d="M390.619 35.3844C388.874 33.213 386.677 31.5022 384.027 30.3177C381.378 29.1333 378.405 28.4753 375.045 28.4753C371.943 28.4753 369.1 29.0017 366.515 30.0545C363.931 31.1074 361.604 32.6208 359.73 34.529C357.792 36.4372 356.305 38.7403 355.271 41.3723C354.173 44.0043 353.656 46.8996 353.656 50.058C353.656 54.3351 354.561 58.0857 356.435 61.31C358.244 64.5342 360.829 67.0346 364.124 68.8771C367.42 70.6537 371.233 71.5749 375.562 71.5749C377.436 71.5749 379.439 71.3775 381.507 70.9827C383.575 70.5879 385.514 69.9957 387.388 69.2061C389.262 68.4165 390.813 67.561 392.04 66.5082L388.422 59.2043C386.612 60.5203 384.674 61.5732 382.541 62.2312C380.409 62.8892 378.212 63.2182 375.95 63.2182C373.365 63.2182 371.103 62.7576 369.229 61.8364C367.291 60.9152 365.869 59.6649 364.835 58.0857C363.801 56.5065 363.284 54.5983 363.349 52.4926H394.625C395.142 49.071 395.077 45.9126 394.367 42.9515C393.656 39.9905 392.428 37.49 390.683 35.2528L390.619 35.3844ZM363.931 45.1887C364.254 42.4251 365.352 40.3195 367.355 38.7403C369.359 37.161 371.814 36.3714 374.851 36.3714C377.888 36.3714 380.279 37.161 381.96 38.7403C383.64 40.3195 384.544 42.4251 384.609 45.1887H363.866H363.931Z" fill="#383A41"/>
<path d="M430.683 45.0571H412.266V29.7255H401.992V70.4563H412.266V53.5455H430.683V70.4563H440.958V29.7255H430.683V45.0571Z" fill="#383A41"/>
<path d="M448.712 38.1481H461.313V70.4563H471.588V38.1481H484.189V29.7255H448.712V38.1481Z" fill="#383A41"/>
<path d="M524.77 31.239C521.733 29.3965 518.308 28.4753 514.431 28.4753C511.006 28.4753 508.034 29.0675 505.643 30.3177C503.187 31.5022 501.248 33.1472 499.697 35.1212V29.7255H490.586V84.4061H500.796V65.9818C502.412 67.7585 504.35 69.1403 506.547 70.1273C508.744 71.1143 511.329 71.6407 514.237 71.6407C517.145 71.6407 519.924 71.1143 522.379 69.9957C524.835 68.8771 526.967 67.3636 528.777 65.3896C530.586 63.4156 531.943 61.1126 532.912 58.5463C533.882 55.9143 534.399 53.1507 534.399 50.1238C534.399 45.9126 533.558 42.1619 531.814 38.9377C530.069 35.7134 527.743 33.1472 524.706 31.3048L524.77 31.239ZM522.767 56.7039C521.798 58.5463 520.376 59.9939 518.631 61.0468C516.886 62.0996 514.883 62.5602 512.621 62.5602C510.36 62.5602 508.357 62.0338 506.547 61.0468C504.803 60.0597 503.381 58.6121 502.412 56.7039C501.442 54.8615 500.925 52.6242 500.925 50.058C500.925 47.4918 501.442 45.3204 502.476 43.4121C503.51 41.5697 504.867 40.1221 506.612 39.0693C508.357 38.0822 510.36 37.5558 512.621 37.5558C514.883 37.5558 516.886 38.0822 518.631 39.0693C520.376 40.0563 521.798 41.5039 522.767 43.4121C523.801 45.2545 524.318 47.4918 524.318 50.058C524.318 52.6242 523.801 54.7957 522.831 56.7039H522.767Z" fill="#383A41"/>
<path d="M564.253 53.3481V13.4069H553.914V70.4563H563.995L590.295 30.1203V70.4563H600.634V13.4069H590.489L564.253 53.3481Z" fill="#383A41"/>
<path d="M621.119 53.3481V13.4069H610.715V70.4563H620.86L647.161 30.1203V70.4563H657.5V13.4069H647.29L621.119 53.3481Z" fill="#383A41"/>
<path d="M96.7261 45.8468V76.181C96.7261 76.7732 96.403 77.3654 95.8861 77.6944L79.0202 87.6303C77.9216 88.2883 76.5 87.4329 76.5 86.1169V55.7827C76.5 55.1905 76.8231 54.5983 77.3401 54.2693L94.2059 44.3333C95.3045 43.6753 96.7261 44.5307 96.7261 45.8468Z" fill="#383A41"/>
<path d="M122.186 17.355V60.981C122.186 61.5732 121.863 62.1654 121.346 62.4944L104.481 72.4303C103.382 73.0883 101.96 72.2329 101.96 70.9169V27.2909C101.96 26.6987 102.283 26.1065 102.8 25.7775L119.666 15.8416C120.765 15.1835 122.186 16.039 122.186 17.355Z" fill="#383A41"/>
<path d="M168.067 35.516L147.841 47.426V23.6061L127.615 11.6961V57.2961C127.615 58.5463 128.261 59.6649 129.295 60.2571L146.161 70.1931C147.194 70.7853 148.487 70.7853 149.521 70.1931L188.293 47.3602L168.067 35.4502V35.516Z" fill="#BF3D3D"/>
<path d="M165.482 13.1437L147.776 23.5403L127.55 11.6303L146.936 0.246753C147.453 -0.0822511 148.099 -0.0822511 148.616 0.246753L165.482 10.1827C166.581 10.8407 166.581 12.4857 165.482 13.1437Z" fill="#383A41"/>
<path d="M206.839 34.529L189.973 24.5931C188.939 24.0009 187.647 24.0009 186.613 24.5931L168.067 35.516L188.293 47.426V71.2459L170.587 81.6424C169.488 82.3004 169.488 83.9454 170.587 84.6035L188.293 95L208.519 83.09V37.49C208.519 36.2398 207.873 35.1212 206.839 34.529Z" fill="#383A41"/>
<path d="M188.293 71.1801L188.293 95L170.587 84.6035C169.488 83.9454 169.488 82.3004 170.587 81.6424L188.293 71.2459L188.293 71.1801Z" fill="#BF3D3D"/>
<path d="M233.075 67.4294C233.075 68.0216 232.752 68.6139 232.235 68.9429L215.369 78.8788C214.27 79.5368 212.849 78.7472 212.849 77.3654V33.6736C212.849 33.0814 213.172 32.4892 213.689 32.1602L230.554 22.2242C231.653 21.5662 233.075 22.4216 233.075 23.7377V67.4294Z" fill="#383A41"/>
<path d="M257.695 23.8035V52.69C257.695 53.2823 257.372 53.8745 256.855 54.2035L239.989 64.1394C238.89 64.7974 237.469 63.942 237.469 62.626V33.7394C237.469 33.1472 237.792 32.555 238.309 32.226L255.175 22.29C256.273 21.632 257.695 22.4874 257.695 23.8035Z" fill="#383A41"/>
</g>
<defs>
<clipPath id="clip0_1_667">
<rect width="734" height="95" fill="white"/>
</clipPath>
</defs>
</svg>
