<svg width="51" height="51" viewBox="0 0 51 51" fill="none" xmlns="http://www.w3.org/2000/svg">
<path d="M1 50.3887V13.8509L13.4622 1.38867H50V38.9469L38.5582 50.3887H1Z" fill="white" stroke="#CEDBE7"/>
<path d="M38.1983 13.5489C38.1539 13.4846 38.1049 13.4255 38.0523 13.3701C38.0499 13.3674 38.048 13.3645 38.0454 13.362C38.0432 13.3598 38.0406 13.3577 38.0384 13.3555C37.7442 13.0531 37.335 12.8887 36.8613 12.8887C36.5925 12.8887 36.3038 12.9414 36.0037 13.0454L13.9072 20.6936C12.7382 21.0983 12.5252 21.8049 12.5023 22.1899C12.4793 22.5751 12.6069 23.3035 13.7186 23.8547L19.2672 26.6064L16.7841 32.9735C16.7779 32.9889 16.7724 33.0046 16.7674 33.0202C16.4915 33.8798 16.6026 34.6527 17.0725 35.1405C17.3727 35.4522 17.7847 35.6118 18.259 35.6118C18.5272 35.6118 18.8153 35.5607 19.1142 35.4573C19.1295 35.452 19.1444 35.4464 19.1592 35.44L25.291 32.8616L27.9407 38.623C28.4472 39.7241 29.1147 39.8887 29.4676 39.8887C29.7828 39.8887 30.5617 39.7461 30.985 38.4271L38.3505 15.4821C38.5931 14.7263 38.5391 14.0398 38.1983 13.5489ZM14.1499 22.296C14.2102 22.2643 14.2891 22.2292 14.3891 22.1946L35.4988 14.8876L23.5894 27.2547C23.1549 26.8752 22.7006 26.5559 22.2698 26.3423L14.375 22.427C14.28 22.3798 14.206 22.3351 14.1499 22.296ZM18.6115 33.9637C18.3487 34.0512 18.1997 34.0362 18.1521 34.0195C18.136 33.9699 18.1215 33.8154 18.2058 33.5424L20.6445 27.2895L21.6131 27.7701C22.5352 28.2272 23.73 29.4681 24.1704 30.4253L24.6332 31.4314L18.6115 33.9637ZM29.5396 37.927C29.5063 38.031 29.4726 38.1128 29.442 38.1754C29.4041 38.1171 29.3609 38.0403 29.3155 37.9412L25.5451 29.7435C25.3394 29.2961 25.0319 28.8245 24.6665 28.3732L36.5764 16.0062L29.5396 37.927Z" fill="#AC3639"/>
</svg>
