<svg width="50" height="51" viewBox="0 0 50 51" fill="none" xmlns="http://www.w3.org/2000/svg">
<path d="M0.5 49.6113V13.0735L12.9622 0.611328H49.5V38.1695L38.0582 49.6113H0.5Z" fill="#B21616" stroke="#CEDBE7"/>
<path d="M37.6983 12.6602C37.6539 12.5959 37.6049 12.5368 37.5523 12.4814C37.5499 12.4787 37.5479 12.4758 37.5454 12.4734C37.5432 12.4711 37.5406 12.469 37.5384 12.4668C37.2442 12.1644 36.835 12 36.3613 12C36.0925 12 35.8038 12.0527 35.5037 12.1568L13.4072 19.8049C12.2382 20.2097 12.0252 20.9162 12.0023 21.3012C11.9793 21.6864 12.1069 22.4148 13.2186 22.9661L18.7672 25.7177L16.2841 32.0848C16.2779 32.1002 16.2724 32.1159 16.2674 32.1316C15.9915 32.9912 16.1026 33.7641 16.5725 34.2518C16.8727 34.5635 17.2847 34.7232 17.759 34.7232C18.0272 34.7232 18.3153 34.6721 18.6142 34.5687C18.6295 34.5633 18.6444 34.5577 18.6592 34.5514L24.791 31.9729L27.4407 37.7344C27.9472 38.8354 28.6147 39 28.9676 39C29.2828 39 30.0617 38.8575 30.485 37.5385L37.8505 14.5935C38.0931 13.8377 38.0391 13.1511 37.6983 12.6602ZM13.6499 21.4073C13.7102 21.3756 13.7891 21.3406 13.8891 21.306L34.9988 13.999L23.0894 26.366C22.6549 25.9866 22.2006 25.6673 21.7698 25.4537L13.875 21.5383C13.78 21.4912 13.706 21.4465 13.6499 21.4073ZM18.1115 33.075C17.8487 33.1626 17.6997 33.1475 17.6521 33.1308C17.636 33.0812 17.6215 32.9267 17.7058 32.6537L20.1445 26.4008L21.1131 26.8814C22.0352 27.3385 23.23 28.5794 23.6704 29.5367L24.1332 30.5427L18.1115 33.075ZM29.0396 37.0383C29.0063 37.1423 28.9726 37.2241 28.942 37.2868C28.9041 37.2285 28.8609 37.1516 28.8155 37.0525L25.0451 28.8548C24.8394 28.4074 24.5319 27.9359 24.1665 27.4845L36.0764 15.1175L29.0396 37.0383Z" fill="#F7F8F9"/>
</svg>
