<svg width="28" height="30" viewBox="0 0 28 30" fill="none" xmlns="http://www.w3.org/2000/svg">
<path d="M27.6751 0.733566C27.6273 0.662155 27.5745 0.596466 27.5179 0.534897C27.5153 0.531921 27.5132 0.528717 27.5104 0.52597C27.5081 0.523453 27.5053 0.521164 27.5029 0.518646C27.1861 0.182648 26.7454 0 26.2352 0C25.9457 0 25.6349 0.0585937 25.3117 0.174179L1.51549 8.6721C0.256543 9.12186 0.0270987 9.90692 0.00253069 10.3347C-0.022251 10.7627 0.115116 11.572 1.31233 12.1845L7.2877 15.2419L4.61363 22.3164C4.60701 22.3336 4.60103 22.351 4.59569 22.3684C4.29852 23.3235 4.41815 24.1823 4.92426 24.7243C5.24749 25.0706 5.69121 25.248 6.20201 25.248C6.49084 25.248 6.80104 25.1912 7.12299 25.0763C7.13944 25.0703 7.15546 25.0642 7.17148 25.0571L13.7749 22.1922L16.6285 28.5938C17.1739 29.8171 17.8928 30 18.2728 30C18.6123 30 19.451 29.8416 19.9069 28.3761L27.839 2.88162C28.1002 2.04185 28.0421 1.27899 27.6751 0.733566ZM1.77677 10.4526C1.84172 10.4173 1.92674 10.3784 2.03441 10.34L24.768 2.22107L11.9424 15.9622C11.4745 15.5406 10.9853 15.1859 10.5213 14.9485L2.01925 10.5981C1.91691 10.5457 1.83723 10.4961 1.77677 10.4526ZM6.58164 23.4167C6.29857 23.5139 6.13813 23.4972 6.08686 23.4787C6.06955 23.4235 6.05396 23.2519 6.14475 22.9486L8.77097 16.0009L9.81415 16.5349C10.8071 17.0428 12.0939 18.4216 12.5681 19.4852L13.0665 20.603L6.58164 23.4167ZM18.3504 27.8204C18.3145 27.9359 18.2782 28.0268 18.2453 28.0964C18.2045 28.0316 18.1579 27.9462 18.109 27.8362L14.0486 18.7276C13.8271 18.2304 13.4959 17.7065 13.1024 17.205L25.9284 3.4639L18.3504 27.8204Z" fill="#383A41"/>
</svg>
