<svg width="51" height="51" viewBox="0 0 51 51" fill="none" xmlns="http://www.w3.org/2000/svg">
<path d="M1.5 50.5V13.9622L13.9622 1.5H50.5V39.0582L39.0582 50.5H1.5Z" fill="white" stroke="#CEDBE7"/>
<path d="M39.8744 35.8885H35.6242C34.9705 35.89 34.3526 35.6017 33.9505 35.108L29.8067 30.0443C29.6207 29.8167 29.3047 29.7268 29.0191 29.8207C28.7337 29.9144 28.5415 30.1708 28.5405 30.4598V32.4955C28.5405 34.3702 26.6366 35.8885 24.2903 35.8885C23.373 35.8964 22.4726 35.6522 21.6959 35.1845C15.7455 31.5371 11.7077 26.9314 8.20153 19.7896C7.89257 19.1595 7.94134 18.4217 8.33072 17.8337C8.72009 17.2458 9.39612 16.8894 10.123 16.8887H14.3732C15.2236 16.8867 15.9932 17.3705 16.3299 18.1185L16.808 19.1873C17.5305 20.7928 18.5004 22.2855 19.686 23.615C19.7246 23.6548 19.7796 23.6766 19.8364 23.6744C19.8886 23.6791 19.9407 23.6625 19.9794 23.6284C20.0183 23.5946 20.0403 23.5464 20.0401 23.4962V20.8413C19.0678 20.5085 18.4862 19.5546 18.6608 18.58C18.8353 17.6054 19.7161 16.8919 20.7485 16.8887H26.4154C27.5889 16.8887 28.5405 17.8002 28.5405 18.9244V23.6744C28.541 23.9773 28.7511 24.2432 29.0554 24.3259C29.3597 24.4087 29.6842 24.2882 29.851 24.0305L33.8089 17.864C34.1925 17.2555 34.8821 16.885 35.6242 16.8887H39.8744C40.6597 16.8889 41.3806 17.3042 41.7495 17.9682C42.1184 18.6322 42.0748 19.437 41.6364 20.061L37.1737 25.9899C36.9934 26.2277 36.9934 26.5495 37.1737 26.7873L41.6011 32.6652C42.066 33.2855 42.1295 34.1028 41.7656 34.7822C41.4016 35.4616 40.6714 35.8885 39.8744 35.8885ZM29.2489 28.4242C29.9026 28.4229 30.5203 28.7109 30.9224 29.2047L35.0662 34.2683C35.2001 34.4335 35.4058 34.5307 35.6242 34.5312H39.8744C40.1411 34.5322 40.3857 34.3893 40.5071 34.1619C40.6288 33.9343 40.6065 33.661 40.4498 33.454L36.0227 27.576C35.4862 26.8646 35.4862 25.9041 36.0227 25.1927L40.4765 19.2807C40.5466 19.1739 40.5834 19.0504 40.5826 18.9244C40.5826 18.5496 40.2656 18.2457 39.8744 18.2457H35.6242C35.3786 18.246 35.1508 18.368 35.0221 18.568L31.064 24.7345C30.5686 25.5143 29.5916 25.8828 28.6741 25.6358C27.7565 25.389 27.123 24.5871 27.1238 23.6744V18.9244C27.1238 18.5496 26.8066 18.2457 26.4154 18.2457H20.7485C20.3571 18.2457 20.0401 18.5496 20.0401 18.9244C20.0401 19.2991 20.3571 19.603 20.7485 19.603H21.4567V23.4962C21.4487 24.1401 21.0266 24.7124 20.3955 24.9348C19.7646 25.1569 19.0558 24.9827 18.6143 24.4972C17.3383 23.0656 16.2934 21.4588 15.5154 19.7303L15.0282 18.6615C14.9174 18.409 14.6591 18.245 14.3732 18.2457H10.123C9.88122 18.247 9.65683 18.3663 9.52764 18.5621C9.39846 18.7579 9.38263 19.0032 9.48536 19.2129C12.9122 26.1934 16.6752 30.4939 22.4661 34.0479C23.0147 34.3697 23.6469 34.5374 24.2903 34.5312C25.8486 34.5312 27.1238 33.6152 27.1238 32.4955V30.4598C27.1238 29.3356 28.0751 28.4242 29.2489 28.4242Z" fill="#AC3639"/>
</svg>
