<svg width="50" height="51" viewBox="0 0 50 51" fill="none" xmlns="http://www.w3.org/2000/svg">
<path d="M0.5 49.6113V13.0735L12.9622 0.611328H49.5V38.1695L38.0582 49.6113H0.5Z" fill="#B21616" stroke="#CEDBE7"/>
<path d="M38.8744 35.1111H34.6242C33.9705 35.1126 33.3526 34.8244 32.9505 34.3306L28.8067 29.267C28.6207 29.0394 28.3047 28.9494 28.0191 29.0434C27.7337 29.137 27.5415 29.3935 27.5405 29.6825V31.7182C27.5405 33.5928 25.6366 35.1111 23.2903 35.1111C22.373 35.1191 21.4726 34.8748 20.6959 34.4072C14.7455 30.7597 10.7077 26.1541 7.20153 19.0123C6.89257 18.3821 6.94134 17.6443 7.33072 17.0564C7.72009 16.4684 8.39612 16.1121 9.12299 16.1114H13.3732C14.2236 16.1094 14.9932 16.5932 15.3299 17.3412L15.808 18.4099C16.5305 20.0155 17.5004 21.5082 18.686 22.8377C18.7246 22.8774 18.7796 22.8993 18.8364 22.897C18.8886 22.9018 18.9407 22.8851 18.9794 22.8511C19.0183 22.8173 19.0403 22.7691 19.0401 22.7189V20.0639C18.0678 19.7312 17.4862 18.7772 17.6608 17.8026C17.8353 16.828 18.7161 16.1146 19.7485 16.1114H25.4154C26.5889 16.1114 27.5405 17.0228 27.5405 18.147V22.897C27.541 23.2 27.7511 23.4659 28.0554 23.5486C28.3597 23.6314 28.6842 23.5108 28.851 23.2531L32.8089 17.0867C33.1925 16.4781 33.8821 16.1076 34.6242 16.1114H38.8744C39.6597 16.1116 40.3806 16.5268 40.7495 17.1908C41.1184 17.8548 41.0748 18.6597 40.6364 19.2837L36.1737 25.2125C35.9934 25.4503 35.9934 25.7722 36.1737 26.01L40.6011 31.8879C41.066 32.5081 41.1295 33.3254 40.7656 34.0048C40.4016 34.6842 39.6714 35.1111 38.8744 35.1111ZM28.2489 27.6468C28.9026 27.6456 29.5203 27.9336 29.9224 28.4273L34.0662 33.4909C34.2001 33.6562 34.4058 33.7534 34.6242 33.7539H38.8744C39.1411 33.7548 39.3857 33.612 39.5071 33.3846C39.6288 33.157 39.6065 32.8836 39.4498 32.6766L35.0227 26.7987C34.4862 26.0872 34.4862 25.1268 35.0227 24.4154L39.4765 18.5034C39.5466 18.3965 39.5834 18.273 39.5826 18.147C39.5826 17.7723 39.2656 17.4684 38.8744 17.4684H34.6242C34.3786 17.4686 34.1508 17.5907 34.0221 17.7907L30.064 23.9571C29.5686 24.7369 28.5916 25.1054 27.6741 24.8584C26.7565 24.6117 26.123 23.8098 26.1238 22.897V18.147C26.1238 17.7723 25.8066 17.4684 25.4154 17.4684H19.7485C19.3571 17.4684 19.0401 17.7723 19.0401 18.147C19.0401 18.5218 19.3571 18.8257 19.7485 18.8257H20.4567V22.7189C20.4487 23.3627 20.0266 23.935 19.3955 24.1574C18.7646 24.3796 18.0558 24.2054 17.6143 23.7198C16.3383 22.2882 15.2934 20.6815 14.5154 18.9529L14.0282 17.8841C13.9174 17.6317 13.6591 17.4676 13.3732 17.4684H9.12299C8.88122 17.4696 8.65683 17.5889 8.52764 17.7847C8.39846 17.9805 8.38263 18.2258 8.48536 18.4355C11.9122 25.4161 15.6752 29.7165 21.4661 33.2705C22.0147 33.5923 22.6469 33.7601 23.2903 33.7539C24.8486 33.7539 26.1238 32.8379 26.1238 31.7182V29.6825C26.1238 28.5583 27.0751 27.6468 28.2489 27.6468Z" fill="#F7F8F9"/>
</svg>
